{
.appVersion = "1116";
classes = (
{
automatic = 1;

glyphs = (
{
glyphname = A;
layers = (
{
anchors = (
{
name = bottom;
position = "{526, 30}";
},
{
name = ogonek;
position = "{963, 9}";
},
{
name = top;
position = "{526, 1284}";
},
{
name = top_case;
position = "{540, 1284}";
}
);
guideLines = (
{
angle = 190.3048;
position = "{952, -2}";
},
{
angle = -9.6052;
position = "{114, -2}";
}
);
layerId = "1D628CB9-BBF5-410A-9D74-9E6094BFE839";
paths = (
{
closed = 1;
nodes = (
"174 -13 LINE",
"294 367 LINE",
"235 320 LINE",
"828 320 LINE",
"770 367 LINE",
"886 -13 LINE",
"1007 9 LINE",
"628 1284 LINE",
"441 1284 LINE",
"44 9 LINE"
);
},
{
closed = 1;
nodes = (
"543 1217 LINE",
"517 1217 LINE",
"762 377 LINE",
"794 421 LINE",
"258 421 LINE",
"290 377 LINE"
);
}
);
width = 1051;
},
{
anchors = (
{
name = bottom;
position = "{605, -50}";
},
{
name = ogonek;
position = "{1066, 30}";
},
{
name = top;
position = "{604, 1336}";
},
{
name = top_case;
position = "{613, 1336}";
}
);
guideLines = (
{
angle = 170.5377;
position = "{272, -17}";
},
{
position = "{-3, 25}";
},
{
position = "{-6, -30}";
},
{
angle = 9.4623;
position = "{936, -17}";
},
{
angle = 73.3155;
position = "{472, 512}";
},
{
angle = 106.5863;
position = "{737, 512}";
}
);
layerId = "D42B5605-DB46-4B3B-8EA0-4CE7066523CE";
paths = (
{
closed = 1;
nodes = (
"321 -25 LINE",
"419 335 LINE",
"275 219 LINE",
"928 219 LINE",
"785 344 LINE",
"886 -25 LINE",
"1188 25 LINE",
"799 1284 LINE",
"411 1284 LINE",
"19 25 LINE"
);
},
{
closed = 1;
nodes = (
"632 1047 LINE",
"577 1047 LINE",
"775 377 LINE",
"879 489 LINE",
"323 489 LINE",
"432 377 LINE"
);
}
);
width = 1207;
}
);
leftKerningGroup = A;
rightKerningGroup = A;
unicode = 0041;
},
{
glyphname = AE;
layers = (
{
anchors = (
{
name = bottom;
position = "{715, 0}";
},
{
name = top_case;
position = "{981, 1284}";
}
);
guideLines = (
{
angle = -9.6052;
position = "{70, -2}";
},
{
position = "{153, 9}";
},
{
angle = 244.0891;
position = "{424, 585}";
}
);
layerId = "1D628CB9-BBF5-410A-9D74-9E6094BFE839";
paths = (
{
closed = 1;
nodes = (
"133 -14 LINE",
"319 369 LINE",
"253 320 LINE",
"715 320 LINE",
"715 0 LINE",
"1324 0 LINE",
"1308 100 LINE",
"843 100 LINE",
"843 626 LINE",
"1264 626 LINE",
"1264 722 LINE",
"843 722 LINE",
"843 1184 LINE",
"1298 1184 LINE",
"1320 1284 LINE",
"642 1284 LINE",
"4 8 LINE"
);
},
{
closed = 1;
nodes = (
"715 1184 LINE",
"715 420 LINE",
"297 420 LINE",
"324 379 LINE"
);
}
);
width = 1396;
},
{
anchors = (
{
name = bottom;
position = "{763, 0}";
},
{
name = top_case;
position = "{989, 1284}";
}
);
guideLines = (
{
angle = 66.8122;
position = "{292, 642}";
},
{
angle = 66.8122;
position = "{594, 653}";
},
{
position = "{-325, 489}";
}
);
layerId = "D42B5605-DB46-4B3B-8EA0-4CE7066523CE";
paths = (
{
closed = 1;
nodes = (
"302 -28 LINE",
"426 260 LINE",
"359 219 LINE",
"761 219 LINE",
"761 0 LINE",
"1600 0 LINE",
"1577 295 LINE",
"1089 295 LINE",
"1089 521 LINE",
"1540 521 LINE",
"1540 796 LINE",
"1089 796 LINE",
"1089 989 LINE",
"1561 989 LINE",
"1596 1284 LINE",
"557 1284 LINE",
"16 20 LINE"
);
},
{
closed = 1;
nodes = (
"761 1043 LINE",
"761 489 LINE",
"475 489 LINE",
"506 448 LINE"
);
}
);
width = 1660;
}
);
rightKerningGroup = E;
rightMetricsKey = "=E";
unicode = 00C6;
},
{
glyphname = B;
layers = (
{
anchors = (
{
name = bottom;
position = "{488, 0}";
},
{
name = top_case;
position = "{488, 1284}";
}
);
layerId = "1D628CB9-BBF5-410A-9D74-9E6094BFE839";
paths = (
{
closed = 1;
nodes = (
"471 0 LINE SMOOTH",
"784 0 OFFCURVE",
"953 65 OFFCURVE",
"953 377 CURVE SMOOTH",
"953 556 OFFCURVE",
"856 650 OFFCURVE",
"713 683 CURVE",
"856 718 OFFCURVE",
"907 810 OFFCURVE",
"907 971 CURVE SMOOTH",
"907 1217 OFFCURVE",
"768 1284 OFFCURVE",
"474 1284 CURVE SMOOTH",
"153 1284 LINE",
"153 0 LINE"
);
},
{
closed = 1;
nodes = (
"281 665 LINE",
"226 626 LINE",
"515 626 LINE SMOOTH",
"716 626 OFFCURVE",
"825 555 OFFCURVE",
"825 375 CURVE SMOOTH",
"825 139 OFFCURVE",
"698 101 OFFCURVE",
"478 101 CURVE SMOOTH",
"226 101 LINE",
"281 46 LINE"
);
},
{
closed = 1;
nodes = (
"281 1238 LINE",
"226 1183 LINE",
"498 1183 LINE SMOOTH",
"702 1183 OFFCURVE",
"779 1127 OFFCURVE",
"779 971 CURVE SMOOTH",
"779 781 OFFCURVE",
"704 727 OFFCURVE",
"514 727 CURVE SMOOTH",
"226 727 LINE",
"281 687 LINE"
);
}
);
width = 1026;
},
{
anchors = (
{
name = bottom;
position = "{527, 0}";
},
{
name = top_case;
position = "{517, 1334}";
}
);
layerId = "D42B5605-DB46-4B3B-8EA0-4CE7066523CE";
paths = (
{
closed = 1;
nodes = (
"530 0 LINE SMOOTH",
"864 0 OFFCURVE",
"1052 91 OFFCURVE",
"1052 357 CURVE SMOOTH",
"1052 536 OFFCURVE",
"955 621 OFFCURVE",
"812 668 CURVE",
"955 720 OFFCURVE",
"1005 807 OFFCURVE",
"1005 955 CURVE SMOOTH",
"1005 1201 OFFCURVE",
"830 1284 OFFCURVE",
"501 1284 CURVE SMOOTH",
"92 1284 LINE",
"92 0 LINE"
);
},
{
closed = 1;
nodes = (
"420 648 LINE",
"275 532 LINE",
"577 532 LINE SMOOTH",
"669 532 OFFCURVE",
"724 494 OFFCURVE",
"724 391 CURVE SMOOTH",
"724 289 OFFCURVE",
"650 260 OFFCURVE",
"537 260 CURVE SMOOTH",
"275 260 LINE",
"420 46 LINE"
);
},
{
closed = 1;
nodes = (
"420 1238 LINE",
"275 1024 LINE",
"527 1024 LINE SMOOTH",
"616 1024 OFFCURVE",
"677 995 OFFCURVE",
"677 908 CURVE SMOOTH",
"677 821 OFFCURVE",
"626 792 OFFCURVE",
"557 792 CURVE SMOOTH",
"275 792 LINE",
"420 694 LINE"
);
}
);
width = 1107;
}
);
leftKerningGroup = StraightUPPER;
leftMetricsKey = "=H";
rightKerningGroup = B;
unicode = 0042;
},
{
glyphname = C;
layers = (
{
anchors = (
{
name = bottom;
position = "{504, 0}";
},
{
name = cedilla;
position = "{575, 0}";
},
{
name = top;
position = "{583, 1284}";
},
{
name = top_case;
position = "{589, 1284}";
}
);
guideLines = (
{
angle = 270;
position = "{572, 639}";
},
{
angle = 270;
position = "{893, 639}";
}
);
layerId = "1D628CB9-BBF5-410A-9D74-9E6094BFE839";
paths = (
{
closed = 1;
nodes = (
"699 -10 OFFCURVE",
"803 8 OFFCURVE",
"920 64 CURVE",
"880 161 LINE",
"777 112 OFFCURVE",
"690 96 OFFCURVE",
"603 96 CURVE SMOOTH",
"388 96 OFFCURVE",
"243 242 OFFCURVE",
"243 638 CURVE SMOOTH",
"243 1092 OFFCURVE",
"368 1195 OFFCURVE",
"594 1195 CURVE SMOOTH",
"676 1195 OFFCURVE",
"753 1175 OFFCURVE",
"807 1146 CURVE",
"784 1202 LINE",
"784 949 LINE",
"893 959 LINE",
"893 1226 LINE",
"783 1280 OFFCURVE",
"682 1301 OFFCURVE",
"583 1301 CURVE SMOOTH",
"267 1301 OFFCURVE",
"115 1114 OFFCURVE",
"115 641 CURVE SMOOTH",
"115 179 OFFCURVE",
"316 -10 OFFCURVE",
"595 -10 CURVE SMOOTH"
);
}
);
width = 1012;
},
{
anchors = (
{
name = bottom;
position = "{615, 0}";
},
{
name = cedilla;
position = "{596, -20}";
},
{
name = top;
position = "{694, 1334}";
},
{
name = top_case;
position = "{610, 1334}";
}
);
guideLines = (
{
angle = 270;
position = "{609, 639}";
},
{
angle = 270;
position = "{1054, 639}";
}
);
layerId = "D42B5605-DB46-4B3B-8EA0-4CE7066523CE";
paths = (
{
closed = 1;
nodes = (
"807 -40 OFFCURVE",
"929 -4 OFFCURVE",
"1094 73 CURVE",
"993 324 LINE",
"837 258 OFFCURVE",
"756 245 OFFCURVE",
"664 245 CURVE SMOOTH",
"490 245 OFFCURVE",
"384 337 OFFCURVE",
"384 638 CURVE SMOOTH",
"384 982 OFFCURVE",
"462 1046 OFFCURVE",
"605 1046 CURVE SMOOTH",
"739 1046 OFFCURVE",
"801 1006 OFFCURVE",
"868 966 CURVE",
"754 1232 LINE",
"754 814 LINE",
"1054 844 LINE",
"1054 1226 LINE",
"874 1310 OFFCURVE",
"746 1331 OFFCURVE",
"574 1331 CURVE SMOOTH",
"258 1331 OFFCURVE",
"56 1174 OFFCURVE",
"56 641 CURVE SMOOTH",
"56 119 OFFCURVE",
"298 -40 OFFCURVE",
"626 -40 CURVE SMOOTH"
);
}
);
width = 1134;
}
);
leftKerningGroup = RoundUPPER;
leftMetricsKey = "=O";
rightKerningGroup = C;
unicode = 0043;
},
{
glyphname = D;
layers = (
{
anchors = (
{
name = bottom;
position = "{534, 0}";
},
{
name = center;
position = "{554, 642}";
},
{
name = top_case;
position = "{514, 1284}";
}
);
layerId = "1D628CB9-BBF5-410A-9D74-9E6094BFE839";
paths = (
{
closed = 1;
nodes = (
"437 0 LINE SMOOTH",
"909 0 OFFCURVE",
"985 229 OFFCURVE",
"985 636 CURVE SMOOTH",
"985 1101 OFFCURVE",
"880 1284 OFFCURVE",
"426 1284 CURVE SMOOTH",
"153 1284 LINE",
"153 0 LINE"
);
},
{
closed = 1;
nodes = (
"281 1228 LINE",
"236 1183 LINE",
"426 1183 LINE SMOOTH",
"801 1183 OFFCURVE",
"857 1030 OFFCURVE",
"857 636 CURVE SMOOTH",
"857 266 OFFCURVE",
"821 101 OFFCURVE",
"437 101 CURVE SMOOTH",
"236 101 LINE",
"281 56 LINE"
);
}
);
width = 1100;
},
{
anchors = (
{
name = bottom;
position = "{543, -50}";
},
{
name = center;
position = "{573, 642}";
},
{
name = top_case;
position = "{513, 1334}";
}
);
layerId = "D42B5605-DB46-4B3B-8EA0-4CE7066523CE";
paths = (
{
closed = 1;
nodes = (
"476 0 LINE SMOOTH",
"939 0 OFFCURVE",
"1084 191 OFFCURVE",
"1084 646 CURVE SMOOTH",
"1084 1101 OFFCURVE",
"939 1284 OFFCURVE",
"465 1284 CURVE SMOOTH",
"92 1284 LINE",
"92 0 LINE"
);
},
{
closed = 1;
nodes = (
"420 1228 LINE",
"175 999 LINE",
"465 999 LINE SMOOTH",
"706 999 OFFCURVE",
"756 933 OFFCURVE",
"756 646 CURVE SMOOTH",
"756 359 OFFCURVE",
"707 285 OFFCURVE",
"476 285 CURVE SMOOTH",
"175 285 LINE",
"420 56 LINE"
);
}
);
width = 1140;
}
);
leftKerningGroup = StraightUPPER;
leftMetricsKey = "=H";
rightKerningGroup = RoundUPPER;
rightMetricsKey = "=O";
unicode = 0044;
},
{
glyphname = Eth;
layers = (
{
layerId = "1D628CB9-BBF5-410A-9D74-9E6094BFE839";
paths = (
{
closed = 1;
nodes = (
"437 0 LINE SMOOTH",
"909 0 OFFCURVE",
"985 229 OFFCURVE",
"985 636 CURVE SMOOTH",
"985 1101 OFFCURVE",
"880 1284 OFFCURVE",
"426 1284 CURVE SMOOTH",
"153 1284 LINE",
"153 712 LINE",
"4 712 LINE",
"4 609 LINE",
"153 609 LINE",
"153 0 LINE"
);
},
{
closed = 1;
nodes = (
"281 609 LINE",
"484 609 LINE",
"484 712 LINE",
"281 712 LINE",
"281 1229 LINE",
"236 1184 LINE",
"426 1184 LINE SMOOTH",
"801 1184 OFFCURVE",
"857 1030 OFFCURVE",
"857 636 CURVE SMOOTH",
"857 269 OFFCURVE",
"821 104 OFFCURVE",
"437 104 CURVE SMOOTH",
"236 104 LINE",
"281 59 LINE"
);
}
);
width = 1107;
},
{
layerId = "D42B5605-DB46-4B3B-8EA0-4CE7066523CE";
paths = (
{
closed = 1;
nodes = (
"557 0 LINE SMOOTH",
"1020 0 OFFCURVE",
"1165 191 OFFCURVE",
"1165 646 CURVE SMOOTH",
"1165 1101 OFFCURVE",
"1020 1284 OFFCURVE",
"546 1284 CURVE SMOOTH",
"173 1284 LINE",
"173 742 LINE",
"42 742 LINE",
"42 577 LINE",
"173 577 LINE",
"173 0 LINE"
);
},
{
closed = 1;
nodes = (
"501 577 LINE",
"698 577 LINE",
"698 742 LINE",
"501 742 LINE",
"501 1228 LINE",
"256 999 LINE",
"546 999 LINE SMOOTH",
"787 999 OFFCURVE",
"837 933 OFFCURVE",
"837 646 CURVE SMOOTH",
"837 359 OFFCURVE",
"788 285 OFFCURVE",
"557 285 CURVE SMOOTH",
"256 285 LINE",
"501 56 LINE"
);
}
);
width = 1221;
}
);
leftKerningGroup = ethcroat;
rightKerningGroup = RoundUPPER;
unicode = 00D0;
},
{
glyphname = Dcroat;
layers = (
{
layerId = "1D628CB9-BBF5-410A-9D74-9E6094BFE839";
paths = (
{
closed = 1;
nodes = (
"437 0 LINE SMOOTH",
"909 0 OFFCURVE",
"985 229 OFFCURVE",
"985 636 CURVE SMOOTH",
"985 1101 OFFCURVE",
"880 1284 OFFCURVE",
"426 1284 CURVE SMOOTH",
"153 1284 LINE",
"153 712 LINE",
"4 712 LINE",
"4 609 LINE",
"153 609 LINE",
"153 0 LINE"
);
},
{
closed = 1;
nodes = (
"281 609 LINE",
"484 609 LINE",
"484 712 LINE",
"281 712 LINE",
"281 1229 LINE",
"236 1184 LINE",
"426 1184 LINE SMOOTH",
"801 1184 OFFCURVE",
"857 1030 OFFCURVE",
"857 636 CURVE SMOOTH",
"857 269 OFFCURVE",
"821 104 OFFCURVE",
"437 104 CURVE SMOOTH",
"236 104 LINE",
"281 59 LINE"
);
}
);
width = 1107;
},
{
layerId = "D42B5605-DB46-4B3B-8EA0-4CE7066523CE";
paths = (
{
closed = 1;
nodes = (
"557 0 LINE SMOOTH",
"1020 0 OFFCURVE",
"1165 191 OFFCURVE",
"1165 646 CURVE SMOOTH",
"1165 1101 OFFCURVE",
"1020 1284 OFFCURVE",
"546 1284 CURVE SMOOTH",
"173 1284 LINE",
"173 742 LINE",
"42 742 LINE",
"42 577 LINE",
"173 577 LINE",
"173 0 LINE"
);
},
{
closed = 1;
nodes = (
"501 577 LINE",
"698 577 LINE",
"698 742 LINE",
"501 742 LINE",
"501 1228 LINE",
"256 999 LINE",
"546 999 LINE SMOOTH",
"787 999 OFFCURVE",
"837 933 OFFCURVE",
"837 646 CURVE SMOOTH",
"837 359 OFFCURVE",
"788 285 OFFCURVE",
"557 285 CURVE SMOOTH",
"256 285 LINE",
"501 56 LINE"
);
}
);
width = 1221;
}
);
leftKerningGroup = ethcroat;
rightKerningGroup = RoundUPPER;
unicode = 0110;
},
{
glyphname = E;
layers = (
{
anchors = (
{
name = bottom;
position = "{498, 0}";
},
{
name = cedilla;
position = "{480, 0}";
},
{
name = ogonek;
position = "{792, 0}";
},
{
name = top;
position = "{507, 1284}";
},
{
name = top_case;
position = "{506, 1284}";
}
);
layerId = "1D628CB9-BBF5-410A-9D74-9E6094BFE839";
paths = (
{
closed = 1;
nodes = (
"842 0 LINE",
"826 101 LINE",
"236 101 LINE",
"281 56 LINE",
"281 671 LINE",
"236 622 LINE",
"782 622 LINE",
"782 723 LINE",
"236 723 LINE",
"281 677 LINE",
"281 1228 LINE",
"236 1183 LINE",
"816 1183 LINE",
"838 1284 LINE",
"153 1284 LINE",
"153 0 LINE"
);
}
);
width = 914;
},
{
anchors = (
{
name = bottom;
position = "{526, -50}";
},
{
name = cedilla;
position = "{506, 0}";
},
{
name = ogonek;
position = "{809, 5}";
},
{
name = top;
position = "{516, 1337}";
},
{
name = top_case;
position = "{516, 1336}";
}
);
guideLines = (
{
angle = 263.2847;
position = "{933, 1319}";
},
{
angle = 270;
position = "{516, 0}";
},
{
position = "{1352, -148}";
}
);
layerId = "D42B5605-DB46-4B3B-8EA0-4CE7066523CE";
paths = (
{
closed = 1;
nodes = (
"931 0 LINE",
"908 295 LINE",
"275 295 LINE",
"420 56 LINE",
"420 638 LINE",
"275 521 LINE",
"871 521 LINE",
"871 796 LINE",
"275 796 LINE",
"420 684 LINE",
"420 1228 LINE",
"275 989 LINE",
"892 989 LINE",
"927 1284 LINE",
"92 1284 LINE",
"92 0 LINE"
);
}
);
width = 991;
}
);
leftKerningGroup = StraightUPPER;
leftMetricsKey = "=H";
rightKerningGroup = E;
unicode = 0045;
},
{
glyphname = F;
layers = (
{
anchors = (
{
name = bottom;
position = "{423, 0}";
},
{
name = top_case;
position = "{503, 1284}";
}
);
guideLines = (
{
angle = 77.7751;
position = "{822, 1172}";
}
);
layerId = "1D628CB9-BBF5-410A-9D74-9E6094BFE839";
paths = (
{
closed = 1;
nodes = (
"281 0 LINE",
"281 648 LINE",
"236 603 LINE",
"737 603 LINE",
"737 699 LINE",
"236 699 LINE",
"281 654 LINE",
"281 1228 LINE",
"236 1183 LINE",
"801 1183 LINE",
"823 1284 LINE",
"153 1284 LINE",
"153 0 LINE"
);
}
);
width = 860;
},
{
anchors = (
{
name = bottom;
position = "{639, 0}";
},
{
name = top_case;
position = "{540, 1334}";
}
);
guideLines = (
{
angle = 263.2847;
position = "{943, 1319}";
}
);
layerId = "D42B5605-DB46-4B3B-8EA0-4CE7066523CE";
paths = (
{
closed = 1;
nodes = (
"420 0 LINE",
"420 612 LINE",
"275 478 LINE",
"853 478 LINE",
"853 753 LINE",
"275 753 LINE",
"420 618 LINE",
"420 1228 LINE",
"275 989 LINE",
"904 989 LINE",
"939 1284 LINE",
"92 1284 LINE",
"92 0 LINE"
);
}
);
width = 994;
}
);
leftKerningGroup = StraightUPPER;
leftMetricsKey = "=H";
rightKerningGroup = F;
unicode = 0046;
},
{
glyphname = G;
layers = (
{
anchors = (
{
name = bottom;
position = "{584, 0}";
},
{
name = top_case;
position = "{578, 1284}";
}
);
guideLines = (
{
angle = 270;
position = "{580, 639}";
}
);
layerId = "1D628CB9-BBF5-410A-9D74-9E6094BFE839";
paths = (
{
closed = 1;
nodes = (
"783 -10 OFFCURVE",
"906 41 OFFCURVE",
"969 75 CURVE",
"969 665 LINE",
"617 665 LINE",
"617 569 LINE",
"898 569 LINE",
"853 614 LINE",
"853 100 LINE",
"875 157 LINE",
"807 116 OFFCURVE",
"693 96 OFFCURVE",
"595 96 CURVE SMOOTH",
"387 96 OFFCURVE",
"243 242 OFFCURVE",
"243 659 CURVE SMOOTH",
"243 1103 OFFCURVE",
"391 1195 OFFCURVE",
"615 1195 CURVE SMOOTH",
"696 1195 OFFCURVE",
"798 1176 OFFCURVE",
"845 1147 CURVE",
"825 1202 LINE",
"825 944 LINE",
"934 954 LINE",
"934 1226 LINE",
"824 1280 OFFCURVE",
"703 1301 OFFCURVE",
"604 1301 CURVE SMOOTH",
"288 1301 OFFCURVE",
"115 1123 OFFCURVE",
"115 650 CURVE SMOOTH",
"115 178 OFFCURVE",
"316 -10 OFFCURVE",
"589 -10 CURVE SMOOTH"
);
}
);
width = 1104;
},
{
anchors = (
{
name = bottom;
position = "{664, -50}";
},
{
name = top_case;
position = "{628, 1334}";
}
);
guideLines = (
{
angle = 270;
position = "{609, 1539}";
},
{
position = "{896, 665}";
}
);
layerId = "D42B5605-DB46-4B3B-8EA0-4CE7066523CE";
paths = (
{
closed = 1;
nodes = (
"818 -40 OFFCURVE",
"996 -4 OFFCURVE",
"1139 62 CURVE",
"1139 685 LINE",
"642 685 LINE",
"642 420 LINE",
"968 420 LINE",
"831 534 LINE",
"831 65 LINE",
"1012 338 LINE",
"856 272 OFFCURVE",
"757 245 OFFCURVE",
"664 245 CURVE SMOOTH",
"490 245 OFFCURVE",
"384 337 OFFCURVE",
"384 638 CURVE SMOOTH",
"384 982 OFFCURVE",
"462 1046 OFFCURVE",
"605 1046 CURVE SMOOTH",
"739 1046 OFFCURVE",
"811 1015 OFFCURVE",
"868 986 CURVE",
"804 1232 LINE",
"804 828 LINE",
"1104 858 LINE",
"1104 1226 LINE",
"924 1310 OFFCURVE",
"786 1331 OFFCURVE",
"614 1331 CURVE SMOOTH",
"258 1331 OFFCURVE",
"56 1174 OFFCURVE",
"56 641 CURVE SMOOTH",
"56 119 OFFCURVE",
"298 -40 OFFCURVE",
"626 -40 CURVE SMOOTH"
);
}
);
width = 1231;
}
);
leftKerningGroup = RoundUPPER;
leftMetricsKey = "=O";
rightKerningGroup = G;
unicode = 0047;
},
{
glyphname = H;
layers = (
{
anchors = (
{
name = bottom;
position = "{571, 0}";
},
{
name = center;
position = "{571, 642}";
},
{
name = top_case;
position = "{571, 1284}";
}
);
layerId = "1D628CB9-BBF5-410A-9D74-9E6094BFE839";
paths = (
{
closed = 1;
nodes = (
"281 0 LINE",
"281 647 LINE",
"236 602 LINE",
"906 602 LINE",
"861 647 LINE",
"861 0 LINE",
"989 0 LINE",
"989 1284 LINE",
"861 1284 LINE",
"861 658 LINE",
"906 703 LINE",
"236 703 LINE",
"281 658 LINE",
"281 1284 LINE",
"153 1284 LINE",
"153 0 LINE"
);
}
);
width = 1142;
},
{
anchors = (
{
name = bottom;
position = "{610, -50}";
},
{
name = center;
position = "{610, 642}";
},
{
name = top_case;
position = "{610, 1334}";
}
);
layerId = "D42B5605-DB46-4B3B-8EA0-4CE7066523CE";
paths = (
{
closed = 1;
nodes = (
"420 0 LINE",
"420 637 LINE",
"275 510 LINE",
"965 510 LINE",
"820 637 LINE",
"820 0 LINE",
"1148 0 LINE",
"1148 1284 LINE",
"820 1284 LINE",
"820 668 LINE",
"965 795 LINE",
"275 795 LINE",
"420 668 LINE",
"420 1284 LINE",
"92 1284 LINE",
"92 0 LINE"
);
}
);
width = 1240;
}
);
leftKerningGroup = StraightUPPER;
rightKerningGroup = StraightUPPER;
unicode = 0048;
userData = {
com.fontlab.hintData = {
hhints = (
{
position = 0;
width = 21;
},
{
position = 602;
width = 101;
},
{
position = 1264;
width = 20;
}
);
vhints = (
{
position = 149;
width = 128;
},
{
position = 857;
width = 128;
}
);
};
};
},
{
glyphname = Hbar;
layers = (
{
layerId = "1D628CB9-BBF5-410A-9D74-9E6094BFE839";
paths = (
{
closed = 1;
nodes = (
"281 0 LINE",
"281 647 LINE",
"236 602 LINE",
"906 602 LINE",
"861 647 LINE",
"861 0 LINE",
"989 0 LINE",
"989 1284 LINE",
"861 1284 LINE",
"861 658 LINE",
"906 703 LINE",
"236 703 LINE",
"281 658 LINE",
"281 1284 LINE",
"153 1284 LINE",
"153 0 LINE"
);
},
{
closed = 1;
nodes = (
"1101 896 LINE",
"1101 984 LINE",
"45 984 LINE",
"45 896 LINE"
);
}
);
width = 1142;
},
{
guideLines = (
{
position = "{707, 799}";
},
{
position = "{676, 514}";
}
);
layerId = "D42B5605-DB46-4B3B-8EA0-4CE7066523CE";
paths = (
{
closed = 1;
nodes = (
"510 0 LINE",
"510 637 LINE",
"365 510 LINE",
"1055 510 LINE",
"910 637 LINE",
"910 0 LINE",
"1238 0 LINE",
"1238 1284 LINE",
"910 1284 LINE",
"910 668 LINE",
"1055 795 LINE",
"365 795 LINE",
"510 668 LINE",
"510 1284 LINE",
"182 1284 LINE",
"182 0 LINE"
);
},
{
closed = 1;
nodes = (
"1363 969 LINE",
"1363 1134 LINE",
"51 1134 LINE",
"51 969 LINE"
);
}
);
width = 1414;
}
);
leftKerningGroup = StraightUPPER;
rightKerningGroup = StraightUPPER;
unicode = 0126;
},
{
glyphname = I;
layers = (
{
anchors = (
{
name = bottom;
position = "{350, 0}";
},
{
name = ogonek;
position = "{359, 0}";
},
{
name = top;
position = "{353, 1284}";
},
{
name = top_case;
position = "{353, 1284}";
}
);
layerId = "1D628CB9-BBF5-410A-9D74-9E6094BFE839";
paths = (
{
closed = 1;
nodes = (
"605 0 LINE",
"605 106 LINE",
"372 106 LINE",
"417 61 LINE",
"417 1223 LINE",
"372 1178 LINE",
"601 1178 LINE",
"601 1284 LINE",
"95 1284 LINE",
"95 1178 LINE",
"334 1178 LINE",
"289 1223 LINE",
"289 61 LINE",
"334 106 LINE",
"95 106 LINE",
"95 0 LINE"
);
}
);
width = 700;
},
{
anchors = (
{
name = bottom;
position = "{428, -50}";
},
{
name = ogonek;
position = "{447, 6}";
},
{
name = top;
position = "{432, 1336}";
},
{
name = top_case;
position = "{431, 1336}";
}
);
guideLines = (
{
angle = 270;
position = "{431, 916}";
}
);
layerId = "D42B5605-DB46-4B3B-8EA0-4CE7066523CE";
paths = (
{
closed = 1;
nodes = (
"813 0 LINE",
"813 285 LINE",
"450 285 LINE",
"595 61 LINE",
"595 1223 LINE",
"450 999 LINE",
"809 999 LINE",
"809 1284 LINE",
"43 1284 LINE",
"43 999 LINE",
"412 999 LINE",
"267 1223 LINE",
"267 61 LINE",
"412 285 LINE",
"43 285 LINE",
"43 0 LINE"
);
}
);
width = 856;
}
);
leftKerningGroup = I;
rightKerningGroup = I;
unicode = 0049;
},
{
glyphname = J;
layers = (
{
anchors = (
{
name = bottom;
position = "{295, 0}";
},
{
name = top_case;
position = "{295, 1284}";
}
);
guideLines = (
{
angle = 270;
position = "{78, 727}";
}
);
layerId = "1D628CB9-BBF5-410A-9D74-9E6094BFE839";
paths = (
{
closed = 1;
nodes = (
"368 -232 OFFCURVE",
"467 -155 OFFCURVE",
"467 91 CURVE SMOOTH",
"467 1284 LINE",
"78 1284 LINE",
"78 1183 LINE",
"384 1183 LINE",
"339 1228 LINE",
"339 91 LINE SMOOTH",
"339 -62 OFFCURVE",
"300 -126 OFFCURVE",
"187 -126 CURVE SMOOTH",
"140 -126 OFFCURVE",
"83 -115 OFFCURVE",
"35 -98 CURVE",
"20 -200 LINE",
"75 -221 OFFCURVE",
"139 -232 OFFCURVE",
"196 -232 CURVE SMOOTH"
);
}
);
width = 632;
},
{
anchors = (
{
name = bottom;
position = "{187, 0}";
},
{
name = top_case;
position = "{365, 1334}";
}
);
guideLines = (
{
angle = 261.6663;
position = "{14, 49}";
},
{
angle = 270;
position = "{30, 727}";
},
{
position = "{743, 1408}";
}
);
layerId = "D42B5605-DB46-4B3B-8EA0-4CE7066523CE";
paths = (
{
closed = 1;
nodes = (
"410 -340 OFFCURVE",
"648 -248 OFFCURVE",
"648 121 CURVE SMOOTH",
"648 1284 LINE",
"30 1284 LINE",
"30 999 LINE",
"465 999 LINE",
"320 1228 LINE",
"320 117 LINE SMOOTH",
"320 -26 OFFCURVE",
"249 -55 OFFCURVE",
"186 -55 CURVE SMOOTH",
"143 -55 OFFCURVE",
"62 -46 OFFCURVE",
"-11 -26 CURVE",
"-50 -295 LINE",
"44 -326 OFFCURVE",
"160 -340 OFFCURVE",
"230 -340 CURVE SMOOTH"
);
}
);
width = 758;
}
);
rightKerningGroup = StraightUPPER;
unicode = 004A;
},
{
glyphname = K;
layers = (
{
anchors = (
{
name = bottom;
position = "{520, 0}";
},
{
name = top;
position = "{520, 1284}";
}
);
guideLines = (
{
position = "{817, 9}";
},
{
angle = 190.3049;
position = "{932, -2}";
}
);
layerId = "1D628CB9-BBF5-410A-9D74-9E6094BFE839";
paths = (
{
closed = 1;
nodes = (
"281 0 LINE",
"281 525 LINE",
"249 449 LINE",
"489 683 LINE",
"443 676 LINE",
"569 453 OFFCURVE",
"718 211 OFFCURVE",
"867 -14 CURVE",
"997 9 LINE",
"838 248 OFFCURVE",
"683 497 OFFCURVE",
"539 748 CURVE",
"527 685 LINE",
"973 1277 LINE",
"838 1296 LINE",
"436 778 LINE",
"251 576 LINE",
"281 564 LINE",
"281 1284 LINE",
"153 1284 LINE",
"153 0 LINE"
);
}
);
width = 1043;
},
{
anchors = (
{
name = bottom;
position = "{596, -50}";
},
{
name = top;
position = "{609, 1286}";
}
);
layerId = "D42B5605-DB46-4B3B-8EA0-4CE7066523CE";
paths = (
{
closed = 1;
nodes = (
"420 0 LINE",
"420 505 LINE",
"333 347 LINE",
"578 541 LINE",
"502 564 LINE",
"619 352 OFFCURVE",
"718 196 OFFCURVE",
"859 -30 CURVE",
"1211 24 LINE",
"1029 306 OFFCURVE",
"900 501 OFFCURVE",
"738 776 CURVE",
"737 632 LINE",
"1162 1252 LINE",
"816 1308 LINE",
"506 863 LINE",
"304 643 LINE",
"420 634 LINE",
"420 1284 LINE",
"92 1284 LINE",
"92 0 LINE"
);
}
);
width = 1216;
}
);
leftKerningGroup = StraightUPPER;
leftMetricsKey = "=H";
rightKerningGroup = K;
unicode = 004B;
userData = {
com.fontlab.hintData = {
hhints = (
{
position = 0;
width = 21;
},
{
position = 1264;
width = 20;
}
);
vhints = (
{
position = 149;
width = 128;
}
);
};
};
},
{
glyphname = L;
layers = (
{
anchors = (
{
name = bottom;
position = "{472, 0}";
},
{
name = center;
position = "{720, 675}";
},
{
name = top_case;
position = "{397, 1284}";
},
{
name = topright;
position = "{561, 1284}";
}
);
guideLines = (
{
angle = -80.5924;
position = "{786, 162}";
}
);
layerId = "1D628CB9-BBF5-410A-9D74-9E6094BFE839";
paths = (
{
closed = 1;
nodes = (
"790 0 LINE",
"773 101 LINE",
"236 101 LINE",
"281 56 LINE",
"281 1284 LINE",
"153 1284 LINE",
"153 0 LINE"
);
}
);
width = 833;
},
{
anchors = (
{
name = bottom;
position = "{513, -50}";
},
{
name = center;
position = "{694, 695}";
},
{
name = top_case;
position = "{366, 1324}";
},
{
name = topright;
position = "{670, 1284}";
}
);
guideLines = (
{
angle = -83.2847;
position = "{786, 1319}";
},
{
angle = 270;
position = "{511, 619}";
}
);
layerId = "D42B5605-DB46-4B3B-8EA0-4CE7066523CE";
paths = (
{
closed = 1;
nodes = (
"941 0 LINE",
"906 285 LINE",
"275 285 LINE",
"420 56 LINE",
"420 1284 LINE",
"92 1284 LINE",
"92 0 LINE"
);
}
);
width = 956;
}
);
leftKerningGroup = StraightUPPER;
leftMetricsKey = "=H";
rightKerningGroup = L;
unicode = 004C;
},
{
color = 4;
glyphname = Lslash;
layers = (
{
layerId = "1D628CB9-BBF5-410A-9D74-9E6094BFE839";
paths = (
{
closed = 1;
nodes = (
"867 0 LINE",
"850 101 LINE",
"313 101 LINE",
"358 56 LINE",
"358 1284 LINE",
"230 1284 LINE",
"230 0 LINE"
);
},
{
closed = 1;
nodes = (
"763 912 LINE",
"711 992 LINE",
"15 550 LINE",
"68 470 LINE"
);
}
);
width = 890;
},
{
guideLines = (
{
angle = 123.6239;
position = "{65, 443}";
},
{
angle = 123.6239;
position = "{865, 1060}";
}
);
layerId = "D42B5605-DB46-4B3B-8EA0-4CE7066523CE";
paths = (
{
closed = 1;
nodes = (
"1093 0 LINE",
"1058 285 LINE",
"427 285 LINE",
"572 56 LINE",
"572 1284 LINE",
"244 1284 LINE",
"244 0 LINE"
);
},
{
closed = 1;
nodes = (
"941 876 LINE",
"852 1008 LINE",
"13 470 LINE",
"102 339 LINE"
);
}
);
width = 1108;
}
);
rightKerningGroup = L;
unicode = 0141;
},
{
glyphname = M;
layers = (
{
anchors = (
{
name = bottom;
position = "{676, 0}";
},
{
name = top_case;
position = "{672, 1284}";
}
);
guideLines = (
{
angle = 270;
position = "{676, 1133}";
},
{
angle = 6.6544;
position = "{1160, -2}";
}
);
layerId = "1D628CB9-BBF5-410A-9D74-9E6094BFE839";
paths = (
{
closed = 1;
nodes = (
"254 -9 LINE",
"349 1131 LINE",
"327 1127 LINE",
"619 438 LINE",
"734 438 LINE",
"1026 1131 LINE",
"1005 1134 LINE",
"1100 -9 LINE",
"1220 5 LINE",
"1116 1284 LINE",
"975 1284 LINE",
"659 540 LINE",
"694 541 LINE",
"379 1284 LINE",
"237 1284 LINE",
"132 5 LINE"
);
}
);
width = 1352;
},
{
anchors = (
{
name = bottom;
position = "{761, 0}";
},
{
name = top_case;
position = "{757, 1334}";
}
);
guideLines = (
{
angle = 265.6286;
position = "{152, 443}";
},
{
angle = -85.6286;
position = "{1379, 443}";
},
{
angle = 270;
position = "{768, 876}";
},
{
angle = 185.6062;
position = "{1303, -1}";
}
);
layerId = "D42B5605-DB46-4B3B-8EA0-4CE7066523CE";
paths = (
{
closed = 1;
nodes = (
"378 -18 LINE",
"458 1144 LINE",
"358 1141 LINE",
"641 357 LINE",
"896 357 LINE",
"1179 1143 LINE",
"1080 1146 LINE",
"1160 -18 LINE",
"1475 14 LINE",
"1358 1284 LINE",
"976 1284 LINE",
"671 475 LINE",
"866 475 LINE",
"560 1284 LINE",
"179 1284 LINE",
"62 14 LINE"
);
}
);
width = 1537;
}
);
leftKerningGroup = M;
rightKerningGroup = M;
unicode = 004D;
},
{
glyphname = N;
layers = (
{
anchors = (
{
name = bottom;
position = "{605, 0}";
},
{
name = top_case;
position = "{600, 1284}";
}
);
guideLines = (
{
angle = 6.6544;
position = "{969, -2}";
}
);
layerId = "1D628CB9-BBF5-410A-9D74-9E6094BFE839";
paths = (
{
closed = 1;
nodes = (
"281 0 LINE",
"281 1126 LINE",
"259 1120 LINE",
"902 -10 LINE",
"1036 6 LINE",
"1036 1284 LINE",
"908 1284 LINE",
"908 174 LINE",
"931 180 LINE",
"293 1284 LINE",
"153 1284 LINE",
"153 0 LINE"
);
}
);
width = 1189;
},
{
anchors = (
{
name = bottom;
position = "{659, -50}";
},
{
name = top_case;
position = "{657, 1334}";
}
);
guideLines = (
{
angle = 120.0349;
position = "{202, 1681}";
},
{
angle = 270;
position = "{649, 199}";
},
{
angle = 185.6062;
position = "{1303, 24}";
},
{
position = "{828, -18}";
}
);
layerId = "D42B5605-DB46-4B3B-8EA0-4CE7066523CE";
paths = (
{
closed = 1;
nodes = (
"415 0 LINE",
"415 1026 LINE",
"260 1020 LINE",
"876 -18 LINE",
"1195 13 LINE",
"1195 1284 LINE",
"872 1284 LINE",
"872 274 LINE",
"1028 280 LINE",
"422 1284 LINE",
"92 1284 LINE",
"92 0 LINE"
);
}
);
width = 1287;
}
);
leftKerningGroup = StraightUPPER;
leftMetricsKey = "=H";
rightKerningGroup = StraightUPPER;
rightMetricsKey = "=H";
unicode = 004E;
},
{
glyphname = Eng;
layers = (
{
anchors = (
{
name = bottom;
position = "{580, -29}";
},
{
name = top_case;
position = "{593, 1308}";
}
);
guideLines = (
{
angle = 270;
position = "{932, 565}";
}
);
layerId = "1D628CB9-BBF5-410A-9D74-9E6094BFE839";
paths = (
{
closed = 1;
nodes = (
"837 -343 OFFCURVE",
"1033 -305 OFFCURVE",
"1036 0 CURVE SMOOTH",
"1036 1284 LINE",
"908 1284 LINE",
"908 220 LINE",
"293 1284 LINE",
"153 1284 LINE",
"153 0 LINE",
"281 0 LINE",
"281 1081 LINE",
"908 -21 LINE",
"908 -45 LINE SMOOTH",
"908 -225 OFFCURVE",
"778 -236 OFFCURVE",
"593 -236 CURVE",
"595 -343 LINE"
);
}
);
width = 1201;
},
{
anchors = (
{
name = bottom;
position = "{679, -50}";
},
{
name = top_case;
position = "{647, 1334}";
}
);
layerId = "D42B5605-DB46-4B3B-8EA0-4CE7066523CE";
paths = (
{
closed = 1;
nodes = (
"1056 -462 OFFCURVE",
"1195 -254 OFFCURVE",
"1195 0 CURVE SMOOTH",
"1195 1284 LINE",
"872 1284 LINE",
"872 538 LINE",
"422 1284 LINE",
"92 1284 LINE",
"92 0 LINE",
"415 0 LINE",
"415 759 LINE",
"865 0 LINE",
"865 -21 LINE SMOOTH",
"865 -133 OFFCURVE",
"778 -176 OFFCURVE",
"636 -176 CURVE",
"635 -466 LINE"
);
}
);
width = 1287;
}
);
leftKerningGroup = StraightUPPER;
unicode = 014A;
},
{
glyphname = O;
layers = (
{
anchors = (
{
name = bottom;
position = "{563, -20}";
},
{
name = ogonek;
position = "{724, 30}";
},
{
name = top;
position = "{563, 1284}";
},
{
name = top_case;
position = "{563, 1284}";
},
{
name = topright;
position = "{889, 954}";
}
);
layerId = "1D628CB9-BBF5-410A-9D74-9E6094BFE839";
paths = (
{
closed = 1;
nodes = (
"924 -10 OFFCURVE",
"1011 241 OFFCURVE",
"1011 657 CURVE SMOOTH",
"1011 1074 OFFCURVE",
"912 1308 OFFCURVE",
"563 1308 CURVE SMOOTH",
"214 1308 OFFCURVE",
"115 1074 OFFCURVE",
"115 657 CURVE SMOOTH",
"115 241 OFFCURVE",
"202 -10 OFFCURVE",
"563 -10 CURVE SMOOTH"
);
},
{
closed = 1;
nodes = (
"313 96 OFFCURVE",
"243 273 OFFCURVE",
"243 654 CURVE SMOOTH",
"243 1039 OFFCURVE",
"316 1202 OFFCURVE",
"563 1202 CURVE SMOOTH",
"810 1202 OFFCURVE",
"883 1039 OFFCURVE",
"883 654 CURVE SMOOTH",
"883 273 OFFCURVE",
"813 96 OFFCURVE",
"563 96 CURVE SMOOTH"
);
}
);
width = 1126;
},
{
anchors = (
{
name = bottom;
position = "{589, -50}";
},
{
name = ogonek;
position = "{713, 14}";
},
{
name = top;
position = "{590, 1336}";
},
{
name = top_case;
position = "{589, 1336}";
},
{
name = topright;
position = "{1085, 844}";
}
);
layerId = "D42B5605-DB46-4B3B-8EA0-4CE7066523CE";
paths = (
{
closed = 1;
nodes = (
"940 -40 OFFCURVE",
"1122 132 OFFCURVE",
"1122 648 CURVE SMOOTH",
"1122 1165 OFFCURVE",
"928 1331 OFFCURVE",
"589 1331 CURVE SMOOTH",
"250 1331 OFFCURVE",
"56 1165 OFFCURVE",
"56 648 CURVE SMOOTH",
"56 132 OFFCURVE",
"238 -40 OFFCURVE",
"589 -40 CURVE SMOOTH"
);
},
{
closed = 1;
nodes = (
"439 245 OFFCURVE",
"384 334 OFFCURVE",
"384 645 CURVE SMOOTH",
"384 961 OFFCURVE",
"442 1046 OFFCURVE",
"589 1046 CURVE SMOOTH",
"736 1046 OFFCURVE",
"794 961 OFFCURVE",
"794 645 CURVE SMOOTH",
"794 334 OFFCURVE",
"739 245 OFFCURVE",
"589 245 CURVE SMOOTH"
);
}
);
width = 1178;
}
);
leftKerningGroup = RoundUPPER;
rightKerningGroup = RoundUPPER;
unicode = 004F;
userData = {
com.fontlab.hintData = {
hhints = (
{
position = -10;
width = 106;
},
{
position = 1195;
width = 106;
}
);
vhints = (
{
position = 116;
width = 128;
},
{
position = 884;
width = 128;
}
);
};
};
},
{
glyphname = Ohorn;
layers = (
{
anchors = (
{
name = _topright;
position = "{894, 974}";
},
{
name = bottom;
position = "{568, 0}";
},
{
name = ogonek;
position = "{729, 30}";
},
{
name = top;
position = "{568, 1284}";
},
{
name = top_case;
position = "{568, 1284}";
},
{
name = topright;
position = "{894, 974}";
}
);
components = (
{
name = O;
},
{
name = horncomb;
transform = "{1, 0, 0, 1, 854, -31}";
}
);
layerId = "1D628CB9-BBF5-410A-9D74-9E6094BFE839";
width = 1126;
},
{
anchors = (
{
name = _topright;
position = "{890, 974}";
},
{
name = bottom;
position = "{564, 0}";
},
{
name = ogonek;
position = "{725, 30}";
},
{
name = top;
position = "{564, 1284}";
},
{
name = top_case;
position = "{564, 1284}";
},
{
name = topright;
position = "{890, 974}";
}
);
associatedMasterId = "1D628CB9-BBF5-410A-9D74-9E6094BFE839";
layerId = "14DD0084-6660-4B70-A99D-CC78A7D99BE3";
name = "Regular Jul 25 16, 11:36";
paths = (
{
closed = 1;
nodes = (
"925 -10 OFFCURVE",
"1012 232 OFFCURVE",
"1012 648 CURVE SMOOTH",
"1012 1065 OFFCURVE",
"913 1301 OFFCURVE",
"564 1301 CURVE SMOOTH",
"215 1301 OFFCURVE",
"116 1065 OFFCURVE",
"116 648 CURVE SMOOTH",
"116 232 OFFCURVE",
"203 -10 OFFCURVE",
"564 -10 CURVE SMOOTH"
);
},
{
closed = 1;
nodes = (
"314 96 OFFCURVE",
"244 264 OFFCURVE",
"244 645 CURVE SMOOTH",
"244 1030 OFFCURVE",
"317 1195 OFFCURVE",
"564 1195 CURVE SMOOTH",
"811 1195 OFFCURVE",
"884 1030 OFFCURVE",
"884 645 CURVE SMOOTH",
"884 264 OFFCURVE",
"814 96 OFFCURVE",
"564 96 CURVE SMOOTH"
);
},
{
closed = 1;
nodes = (
"900 1066 LINE SMOOTH",
"1022 1107 OFFCURVE",
"1128 1166 OFFCURVE",
"1128 1291 CURVE SMOOTH",
"1128 1331 OFFCURVE",
"1121 1363 OFFCURVE",
"1111 1389 CURVE",
"979 1389 LINE",
"992 1361 OFFCURVE",
"1000 1330 OFFCURVE",
"1000 1299 CURVE SMOOTH",
"1000 1223 OFFCURVE",
"961 1180 OFFCURVE",
"890 1149 CURVE SMOOTH",
"855 1134 LINE",
"855 1051 LINE"
);
}
);
width = 1128;
},
{
anchors = (
{
name = _topright;
position = "{914, 974}";
},
{
name = bottom;
position = "{588, -50}";
},
{
name = ogonek;
position = "{749, -20}";
},
{
name = top;
position = "{588, 1334}";
},
{
name = top_case;
position = "{588, 1334}";
},
{
name = topright;
position = "{914, 974}";
}
);
components = (
{
name = O;
},
{
name = horncomb;
transform = "{1, 0, 0, 1, 925, -141}";
}
);
layerId = "D42B5605-DB46-4B3B-8EA0-4CE7066523CE";
width = 1178;
}
);
leftKerningGroup = RoundUPPER;
rightKerningGroup = hornUPPER;
unicode = 01A0;
userData = {
com.schriftgestaltung.Glyphs.ColorIndex = 7;
};
},
{
glyphname = OE;
layers = (
{
anchors = (
{
name = bottom;
position = "{947, 0}";
},
{
name = top_case;
position = "{952, 1284}";
}
);
layerId = "1D628CB9-BBF5-410A-9D74-9E6094BFE839";
paths = (
{
closed = 1;
nodes = (
"1572 0 LINE",
"1556 104 LINE",
"1011 104 LINE",
"1011 626 LINE",
"1512 626 LINE",
"1512 722 LINE",
"1011 722 LINE",
"1011 1184 LINE",
"1546 1184 LINE",
"1568 1284 LINE",
"674 1284 LINE SMOOTH",
"220 1284 OFFCURVE",
"115 1101 OFFCURVE",
"115 648 CURVE SMOOTH",
"115 229 OFFCURVE",
"191 0 OFFCURVE",
"663 0 CURVE SMOOTH"
);
},
{
closed = 1;
nodes = (
"279 99 OFFCURVE",
"243 264 OFFCURVE",
"243 645 CURVE SMOOTH",
"243 1030 OFFCURVE",
"299 1181 OFFCURVE",
"674 1183 CURVE SMOOTH",
"884 1184 LINE",
"883 102 LINE",
"663 101 LINE SMOOTH"
);
}
);
width = 1644;
},
{
anchors = (
{
name = bottom;
position = "{912, 0}";
},
{
name = top_case;
position = "{917, 1284}";
}
);
layerId = "D42B5605-DB46-4B3B-8EA0-4CE7066523CE";
paths = (
{
closed = 1;
nodes = (
"1690 0 LINE",
"1667 295 LINE",
"1179 295 LINE",
"1179 521 LINE",
"1630 521 LINE",
"1630 796 LINE",
"1179 796 LINE",
"1179 989 LINE",
"1651 989 LINE",
"1686 1284 LINE",
"675 1284 LINE SMOOTH",
"201 1284 OFFCURVE",
"56 1101 OFFCURVE",
"56 648 CURVE SMOOTH",
"56 191 OFFCURVE",
"201 0 OFFCURVE",
"664 0 CURVE SMOOTH"
);
},
{
closed = 1;
nodes = (
"433 285 OFFCURVE",
"384 356 OFFCURVE",
"384 645 CURVE SMOOTH",
"384 933 OFFCURVE",
"434 999 OFFCURVE",
"675 999 CURVE SMOOTH",
"851 999 LINE",
"851 285 LINE",
"664 285 LINE SMOOTH"
);
}
);
width = 1765;
}
);
leftKerningGroup = RoundUPPER;
leftMetricsKey = "=O";
rightKerningGroup = E;
rightMetricsKey = "=E";
unicode = 0152;
},
{
glyphname = P;
layers = (
{
anchors = (
{
name = bottom;
position = "{495, 0}";
},
{
name = top_case;
position = "{495, 1284}";
}
);
layerId = "1D628CB9-BBF5-410A-9D74-9E6094BFE839";
paths = (
{
closed = 1;
nodes = (
"281 0 LINE",
"281 536 LINE",
"458 536 LINE SMOOTH",
"723 536 OFFCURVE",
"921 597 OFFCURVE",
"921 905 CURVE SMOOTH",
"921 1200 OFFCURVE",
"761 1284 OFFCURVE",
"502 1284 CURVE SMOOTH",
"153 1284 LINE",
"153 0 LINE"
);
},
{
closed = 1;
nodes = (
"281 1228 LINE",
"236 1183 LINE",
"510 1183 LINE SMOOTH",
"698 1183 OFFCURVE",
"793 1127 OFFCURVE",
"793 903 CURVE SMOOTH",
"793 665 OFFCURVE",
"647 637 OFFCURVE",
"435 637 CURVE SMOOTH",
"236 637 LINE",
"281 592 LINE"
);
}
);
width = 988;
},
{
anchors = (
{
name = bottom;
position = "{716, 0}";
},
{
name = top_case;
position = "{536, 1334}";
}
);
layerId = "D42B5605-DB46-4B3B-8EA0-4CE7066523CE";
paths = (
{
closed = 1;
nodes = (
"420 0 LINE",
"420 426 LINE",
"537 426 LINE SMOOTH",
"850 426 OFFCURVE",
"1042 507 OFFCURVE",
"1042 855 CURVE SMOOTH",
"1042 1170 OFFCURVE",
"878 1284 OFFCURVE",
"618 1284 CURVE SMOOTH",
"92 1284 LINE",
"92 0 LINE"
);
},
{
closed = 1;
nodes = (
"420 1223 LINE",
"375 1009 LINE",
"566 1009 LINE SMOOTH",
"648 1009 OFFCURVE",
"714 969 OFFCURVE",
"714 861 CURVE SMOOTH",
"714 726 OFFCURVE",
"645 701 OFFCURVE",
"509 701 CURVE SMOOTH",
"375 701 LINE",
"420 487 LINE"
);
}
);
width = 1092;
}
);
leftKerningGroup = StraightUPPER;
leftMetricsKey = "=H";
rightKerningGroup = P;
unicode = 0050;
},
{
glyphname = Thorn;
layers = (
{
layerId = "1D628CB9-BBF5-410A-9D74-9E6094BFE839";
paths = (
{
closed = 1;
nodes = (
"281 0 LINE",
"281 372 LINE",
"236 327 LINE",
"443 327 LINE SMOOTH",
"748 327 OFFCURVE",
"921 389 OFFCURVE",
"921 697 CURVE SMOOTH",
"921 992 OFFCURVE",
"730 1052 OFFCURVE",
"471 1052 CURVE SMOOTH",
"237 1052 LINE",
"282 1007 LINE",
"282 1284 LINE",
"153 1284 LINE",
"153 0 LINE"
);
},
{
closed = 1;
nodes = (
"281 997 LINE",
"236 952 LINE",
"479 952 LINE SMOOTH",
"667 952 OFFCURVE",
"793 919 OFFCURVE",
"793 695 CURVE SMOOTH",
"793 447 OFFCURVE",
"690 431 OFFCURVE",
"440 431 CURVE SMOOTH",
"236 431 LINE",
"281 386 LINE"
);
}
);
width = 989;
},
{
guideLines = (
{
position = "{679, 697}";
}
);
layerId = "D42B5605-DB46-4B3B-8EA0-4CE7066523CE";
paths = (
{
closed = 1;
nodes = (
"420 0 LINE",
"420 402 LINE",
"375 277 LINE",
"572 277 LINE SMOOTH",
"861 277 OFFCURVE",
"1060 365 OFFCURVE",
"1060 697 CURVE SMOOTH",
"1060 1019 OFFCURVE",
"852 1102 OFFCURVE",
"583 1102 CURVE SMOOTH",
"376 1102 LINE",
"421 967 LINE",
"421 1284 LINE",
"93 1284 LINE",
"92 0 LINE"
);
},
{
closed = 1;
nodes = (
"420 957 LINE",
"375 817 LINE",
"608 817 LINE SMOOTH",
"696 817 OFFCURVE",
"732 761 OFFCURVE",
"732 697 CURVE SMOOTH",
"732 623 OFFCURVE",
"699 562 OFFCURVE",
"579 562 CURVE SMOOTH",
"375 562 LINE",
"420 416 LINE"
);
}
);
width = 1116;
}
);
leftKerningGroup = StraightUPPER;
unicode = 00DE;
},
{
glyphname = Q;
layers = (
{
anchors = (
{
name = bottom;
position = "{565, 0}";
},
{
name = top;
position = "{565, 1284}";
}
);
layerId = "1D628CB9-BBF5-410A-9D74-9E6094BFE839";
paths = (
{
closed = 1;
nodes = (
"924 -5 OFFCURVE",
"1011 237 OFFCURVE",
"1011 653 CURVE SMOOTH",
"1011 1070 OFFCURVE",
"912 1306 OFFCURVE",
"563 1306 CURVE SMOOTH",
"214 1306 OFFCURVE",
"115 1070 OFFCURVE",
"115 653 CURVE SMOOTH",
"115 237 OFFCURVE",
"202 -5 OFFCURVE",
"563 -5 CURVE SMOOTH"
);
},
{
closed = 1;
nodes = (
"1005 -94 LINE",
"883 55 OFFCURVE",
"775 206 OFFCURVE",
"679 361 CURVE",
"595 295 LINE",
"691 141 OFFCURVE",
"799 -11 OFFCURVE",
"921 -159 CURVE"
);
},
{
closed = 1;
nodes = (
"313 101 OFFCURVE",
"243 269 OFFCURVE",
"243 650 CURVE SMOOTH",
"243 1035 OFFCURVE",
"316 1200 OFFCURVE",
"563 1200 CURVE SMOOTH",
"810 1200 OFFCURVE",
"883 1035 OFFCURVE",
"883 650 CURVE SMOOTH",
"883 269 OFFCURVE",
"813 101 OFFCURVE",
"563 101 CURVE SMOOTH"
);
}
);
width = 1126;
},
{
anchors = (
{
name = bottom;
position = "{589, 0}";
},
{
name = top;
position = "{589, 1284}";
}
);
layerId = "D42B5605-DB46-4B3B-8EA0-4CE7066523CE";
paths = (
{
closed = 1;
nodes = (
"920 -40 OFFCURVE",
"1122 142 OFFCURVE",
"1122 648 CURVE SMOOTH",
"1122 1165 OFFCURVE",
"928 1331 OFFCURVE",
"589 1331 CURVE SMOOTH",
"250 1331 OFFCURVE",
"56 1165 OFFCURVE",
"56 648 CURVE SMOOTH",
"56 132 OFFCURVE",
"238 -40 OFFCURVE",
"589 -40 CURVE SMOOTH"
);
},
{
closed = 1;
nodes = (
"1111 -52 LINE",
"952 123 OFFCURVE",
"786 371 OFFCURVE",
"665 564 CURVE",
"463 427 LINE",
"567 263 OFFCURVE",
"770 -37 OFFCURVE",
"920 -211 CURVE"
);
},
{
closed = 1;
nodes = (
"439 242 OFFCURVE",
"384 334 OFFCURVE",
"384 645 CURVE SMOOTH",
"384 961 OFFCURVE",
"442 1046 OFFCURVE",
"589 1046 CURVE SMOOTH",
"736 1046 OFFCURVE",
"794 961 OFFCURVE",
"794 635 CURVE SMOOTH",
"794 304 OFFCURVE",
"759 242 OFFCURVE",
"589 242 CURVE SMOOTH"
);
}
);
width = 1178;
}
);
leftKerningGroup = RoundUPPER;
leftMetricsKey = "=O";
rightKerningGroup = RoundUPPER;
rightMetricsKey = "=O";
unicode = 0051;
},
{
glyphname = R;
layers = (
{
anchors = (
{
name = bottom;
position = "{501, 0}";
},
{
name = top;
position = "{501, 1284}";
},
{
name = top_case;
position = "{501, 1284}";
}
);
guideLines = (
{
position = "{774, 9}";
},
{
angle = 190.3049;
position = "{932, -2}";
}
);
layerId = "1D628CB9-BBF5-410A-9D74-9E6094BFE839";
paths = (
{
closed = 1;
nodes = (
"988 10 LINE",
"876 202 OFFCURVE",
"760 425 OFFCURVE",
"660 617 CURVE",
"639 584 LINE",
"827 617 OFFCURVE",
"921 709 OFFCURVE",
"921 922 CURVE SMOOTH",
"921 1238 OFFCURVE",
"747 1284 OFFCURVE",
"406 1284 CURVE SMOOTH",
"153 1284 LINE",
"153 0 LINE",
"281 0 LINE",
"281 612 LINE",
"236 567 LINE",
"474 567 LINE SMOOTH",
"496 567 OFFCURVE",
"560 569 OFFCURVE",
"611 575 CURVE",
"545 597 LINE",
"632 408 OFFCURVE",
"769 139 OFFCURVE",
"858 -14 CURVE"
);
},
{
closed = 1;
nodes = (
"281 1223 LINE",
"236 1178 LINE",
"400 1178 LINE SMOOTH",
"660 1178 OFFCURVE",
"793 1166 OFFCURVE",
"793 920 CURVE SMOOTH",
"793 751 OFFCURVE",
"726 673 OFFCURVE",
"465 673 CURVE SMOOTH",
"236 673 LINE",
"281 628 LINE"
);
}
);
width = 1056;
},
{
anchors = (
{
name = bottom;
position = "{576, -50}";
},
{
name = top;
position = "{546, 1335}";
},
{
name = top_case;
position = "{546, 1334}";
}
);
guideLines = (
{
position = "{682, -30}";
},
{
angle = 9.4623;
position = "{944, -3}";
}
);
layerId = "D42B5605-DB46-4B3B-8EA0-4CE7066523CE";
paths = (
{
closed = 1;
nodes = (
"1109 25 LINE",
"1038 146 OFFCURVE",
"892 417 OFFCURVE",
"843 526 CURVE",
"772 465 LINE",
"934 524 OFFCURVE",
"1042 621 OFFCURVE",
"1042 860 CURVE SMOOTH",
"1042 1160 OFFCURVE",
"878 1284 OFFCURVE",
"618 1284 CURVE SMOOTH",
"92 1284 LINE",
"92 0 LINE",
"420 0 LINE",
"420 531 LINE",
"325 436 LINE",
"534 436 LINE SMOOTH",
"571 436 OFFCURVE",
"608 437 OFFCURVE",
"645 440 CURVE",
"540 458 LINE",
"603 305 OFFCURVE",
"713 81 OFFCURVE",
"774 -31 CURVE"
);
},
{
closed = 1;
nodes = (
"420 1094 LINE",
"325 1009 LINE",
"566 1009 LINE SMOOTH",
"648 1009 OFFCURVE",
"714 959 OFFCURVE",
"714 866 CURVE SMOOTH",
"714 736 OFFCURVE",
"645 711 OFFCURVE",
"509 711 CURVE SMOOTH",
"325 711 LINE",
"420 626 LINE"
);
}
);
width = 1119;
}
);
leftKerningGroup = StraightUPPER;
leftMetricsKey = "=H";
rightKerningGroup = R;
unicode = 0052;
},
{
glyphname = S;
layers = (
{
anchors = (
{
name = bottom;
position = "{447, 0}";
},
{
name = cedilla;
position = "{422, 0}";
},
{
name = top_case;
position = "{469, 1284}";
}
);
layerId = "1D628CB9-BBF5-410A-9D74-9E6094BFE839";
paths = (
{
closed = 1;
nodes = (
"686 -10 OFFCURVE",
"846 117 OFFCURVE",
"846 353 CURVE SMOOTH",
"846 603 OFFCURVE",
"667 661 OFFCURVE",
"504 720 CURVE SMOOTH",
"390 761 LINE SMOOTH",
"248 812 OFFCURVE",
"206 867 OFFCURVE",
"206 972 CURVE SMOOTH",
"206 1143 OFFCURVE",
"307 1195 OFFCURVE",
"487 1195 CURVE SMOOTH",
"614 1195 OFFCURVE",
"732 1158 OFFCURVE",
"791 1136 CURVE",
"815 1239 LINE",
"706 1284 OFFCURVE",
"588 1301 OFFCURVE",
"470 1301 CURVE SMOOTH",
"255 1301 OFFCURVE",
"78 1213 OFFCURVE",
"78 969 CURVE SMOOTH",
"78 786 OFFCURVE",
"182 700 OFFCURVE",
"349 644 CURVE SMOOTH",
"472 603 LINE SMOOTH",
"633 549 OFFCURVE",
"718 495 OFFCURVE",
"718 355 CURVE SMOOTH",
"718 175 OFFCURVE",
"603 96 OFFCURVE",
"444 96 CURVE SMOOTH",
"283 96 OFFCURVE",
"182 140 OFFCURVE",
"106 173 CURVE",
"78 68 LINE",
"189 18 OFFCURVE",
"318 -10 OFFCURVE",
"444 -10 CURVE SMOOTH"
);
}
);
width = 924;
},
{
anchors = (
{
name = bottom;
position = "{525, -50}";
},
{
name = cedilla;
position = "{463, -30}";
},
{
name = top_case;
position = "{525, 1334}";
}
);
guideLines = (
{
angle = 251.7901;
position = "{2937, 1360}";
},
{
angle = 270;
position = "{510, 985}";
}
);
layerId = "D42B5605-DB46-4B3B-8EA0-4CE7066523CE";
paths = (
{
closed = 1;
nodes = (
"778 -37 OFFCURVE",
"950 66 OFFCURVE",
"950 369 CURVE SMOOTH",
"950 573 OFFCURVE",
"862 705 OFFCURVE",
"621 788 CURVE SMOOTH",
"507 827 LINE SMOOTH",
"422 856 OFFCURVE",
"387 887 OFFCURVE",
"387 939 CURVE SMOOTH",
"387 1010 OFFCURVE",
"415 1043 OFFCURVE",
"542 1043 CURVE SMOOTH",
"624 1043 OFFCURVE",
"732 1028 OFFCURVE",
"849 988 CURVE",
"916 1263 LINE",
"764 1323 OFFCURVE",
"584 1328 OFFCURVE",
"500 1328 CURVE SMOOTH",
"225 1328 OFFCURVE",
"59 1205 OFFCURVE",
"59 944 CURVE SMOOTH",
"59 765 OFFCURVE",
"110 627 OFFCURVE",
"355 549 CURVE SMOOTH",
"456 517 LINE SMOOTH",
"564 483 OFFCURVE",
"622 443 OFFCURVE",
"622 369 CURVE SMOOTH",
"622 297 OFFCURVE",
"592 248 OFFCURVE",
"485 248 CURVE SMOOTH",
"355 248 OFFCURVE",
"216 291 OFFCURVE",
"122 333 CURVE",
"49 61 LINE",
"172 7 OFFCURVE",
"314 -37 OFFCURVE",
"518 -37 CURVE SMOOTH"
);
}
);
width = 994;
}
);
leftKerningGroup = S;
rightKerningGroup = S;
unicode = 0053;
},
{
glyphname = Germandbls;
layers = (
{
layerId = "1D628CB9-BBF5-410A-9D74-9E6094BFE839";
paths = (
{
closed = 1;
nodes = (
"895 -10 OFFCURVE",
"1050 130 OFFCURVE",
"1050 347 CURVE SMOOTH",
"1050 592 OFFCURVE",
"849 735 OFFCURVE",
"549 735 CURVE",
"557 680 LINE",
"960 1080 LINE",
"960 1182 LINE",
"861 1253 OFFCURVE",
"727 1301 OFFCURVE",
"591 1301 CURVE SMOOTH",
"294 1301 OFFCURVE",
"153 1142 OFFCURVE",
"153 822 CURVE SMOOTH",
"153 0 LINE",
"281 0 LINE",
"281 811 LINE SMOOTH",
"281 1071 OFFCURVE",
"367 1195 OFFCURVE",
"587 1195 CURVE SMOOTH",
"702 1195 OFFCURVE",
"798 1161 OFFCURVE",
"881 1109 CURVE",
"881 1161 LINE",
"461 735 LINE",
"461 624 LINE",
"540 624 LINE SMOOTH",
"781 624 OFFCURVE",
"922 531 OFFCURVE",
"922 347 CURVE SMOOTH",
"922 189 OFFCURVE",
"828 95 OFFCURVE",
"671 95 CURVE SMOOTH",
"591 95 OFFCURVE",
"506 122 OFFCURVE",
"438 156 CURVE",
"400 66 LINE",
"485 18 OFFCURVE",
"584 -10 OFFCURVE",
"683 -10 CURVE SMOOTH"
);
}
);
width = 1114;
},
{
layerId = "D42B5605-DB46-4B3B-8EA0-4CE7066523CE";
paths = (
{
closed = 1;
nodes = (
"1156 -10 OFFCURVE",
"1300 133 OFFCURVE",
"1300 357 CURVE SMOOTH",
"1300 654 OFFCURVE",
"1092 755 OFFCURVE",
"649 755 CURVE",
"792 599 LINE",
"1210 910 LINE",
"1210 1182 LINE",
"1023 1273 OFFCURVE",
"849 1331 OFFCURVE",
"611 1331 CURVE SMOOTH",
"314 1331 OFFCURVE",
"83 1175 OFFCURVE",
"83 822 CURVE SMOOTH",
"83 0 LINE",
"411 0 LINE",
"411 791 LINE SMOOTH",
"411 957 OFFCURVE",
"467 1046 OFFCURVE",
"663 1046 CURVE SMOOTH",
"778 1046 OFFCURVE",
"848 1012 OFFCURVE",
"931 960 CURVE",
"931 1091 LINE",
"581 765 LINE",
"581 524 LINE",
"685 514 LINE SMOOTH",
"860 497 OFFCURVE",
"972 481 OFFCURVE",
"972 377 CURVE SMOOTH",
"972 292 OFFCURVE",
"905 275 OFFCURVE",
"818 275 CURVE SMOOTH",
"713 275 OFFCURVE",
"606 302 OFFCURVE",
"538 336 CURVE",
"500 66 LINE",
"585 18 OFFCURVE",
"772 -10 OFFCURVE",
"871 -10 CURVE SMOOTH"
);
}
);
width = 1329;
}
);
leftKerningGroup = StraightUPPER;
unicode = 1E9E;
},
{
glyphname = Schwa;
layers = (
{
layerId = "1D628CB9-BBF5-410A-9D74-9E6094BFE839";
paths = (
{
closed = 1;
nodes = (
"419 1308 OFFCURVE",
"255 1264 OFFCURVE",
"140 1187 CURVE",
"190 1096 LINE",
"321 1172 OFFCURVE",
"424 1202 OFFCURVE",
"542 1202 CURVE SMOOTH",
"788 1202 OFFCURVE",
"888 1014 OFFCURVE",
"892 639 CURVE",
"936 684 LINE",
"130 684 LINE",
"124 629 OFFCURVE",
"120 557 OFFCURVE",
"120 507 CURVE SMOOTH",
"120 165 OFFCURVE",
"272 -10 OFFCURVE",
"562 -10 CURVE SMOOTH",
"862 -10 OFFCURVE",
"1020 181 OFFCURVE",
"1020 632 CURVE SMOOTH",
"1020 1086 OFFCURVE",
"873 1308 OFFCURVE",
"533 1308 CURVE SMOOTH"
);
},
{
closed = 1;
nodes = (
"312 96 OFFCURVE",
"226 247 OFFCURVE",
"246 631 CURVE",
"199 583 LINE",
"936 583 LINE",
"891 631 LINE",
"892 249 OFFCURVE",
"787 96 OFFCURVE",
"562 96 CURVE SMOOTH"
);
}
);
width = 1140;
},
{
associatedMasterId = "1D628CB9-BBF5-410A-9D74-9E6094BFE839";
layerId = "43E52C2D-3EEE-49AE-BEA2-65001AC44158";
name = "Regular Jul 6 16, 10:41";
paths = (
{
closed = 1;
nodes = (
"542 1200 CURVE SMOOTH",
"412 1200 OFFCURVE",
"298 1173 OFFCURVE",
"176 1096 CURVE",
"126 1197 LINE",
"251 1274 OFFCURVE",
"409 1308 OFFCURVE",
"533 1308 CURVE SMOOTH",
"869 1308 OFFCURVE",
"1087 1120 OFFCURVE",
"1087 649 CURVE SMOOTH",
"1087 195 OFFCURVE",
"870 -10 OFFCURVE",
"566 -10 CURVE SMOOTH",
"276 -10 OFFCURVE",
"102 198 OFFCURVE",
"102 507 CURVE SMOOTH",
"102 547 OFFCURVE",
"106 607 OFFCURVE",
"112 684 CURVE",
"920 684 LINE",
"915 1109 OFFCURVE",
"733 1200 OFFCURVE"
);
},
{
closed = 1;
nodes = (
"565 127 CURVE SMOOTH",
"791 127 OFFCURVE",
"900 296 OFFCURVE",
"920 566 CURVE",
"258 566 LINE",
"258 501 LINE SMOOTH",
"258 274 OFFCURVE",
"375 127 OFFCURVE"
);
}
);
width = 1203;
},
{
layerId = "D42B5605-DB46-4B3B-8EA0-4CE7066523CE";
paths = (
{
closed = 1;
nodes = (
"341 1331 OFFCURVE",
"206 1276 OFFCURVE",
"57 1195 CURVE",
"195 960 LINE",
"366 1034 OFFCURVE",
"450 1046 OFFCURVE",
"514 1046 CURVE SMOOTH",
"646 1046 OFFCURVE",
"791 959 OFFCURVE",
"764 690 CURVE",
"911 785 LINE",
"71 785 LINE",
"58 708 OFFCURVE",
"57 594 OFFCURVE",
"57 549 CURVE SMOOTH",
"57 153 OFFCURVE",
"219 -40 OFFCURVE",
"544 -40 CURVE SMOOTH",
"868 -40 OFFCURVE",
"1092 118 OFFCURVE",
"1092 644 CURVE SMOOTH",
"1092 1157 OFFCURVE",
"892 1331 OFFCURVE",
"559 1331 CURVE SMOOTH"
);
},
{
closed = 1;
nodes = (
"409 245 OFFCURVE",
"362 366 OFFCURVE",
"382 727 CURVE",
"271 529 LINE",
"911 529 LINE",
"764 630 LINE",
"787 326 OFFCURVE",
"683 245 OFFCURVE",
"559 245 CURVE SMOOTH"
);
}
);
width = 1148;
}
);
rightKerningGroup = RoundUPPER;
unicode = 018F;
userData = {
com.schriftgestaltung.Glyphs.leftMetricsKey = "=O";
com.schriftgestaltung.Glyphs.rightMetricsKey = "=O";
com.typemytype.robofont.layerData = {
"Regular Jul 6 16, 10:41" = {
anchors = (
);
components = (
);
contours = (
{
points = (
{
segmentType = curve;
smooth = 1;
x = 542;
y = 1200;
},
{
smooth = 0;
x = 412;
y = 1200;
},
{
smooth = 0;
x = 298;
y = 1173;
},
{
segmentType = curve;
smooth = 0;
x = 176;
y = 1096;
},
{
segmentType = line;
smooth = 0;
x = 126;
y = 1197;
},
{
smooth = 0;
x = 251;
y = 1274;
},
{
smooth = 0;
x = 409;
y = 1308;
},
{
segmentType = curve;
smooth = 1;
x = 533;
y = 1308;
},
{
smooth = 0;
x = 869;
y = 1308;
},
{
smooth = 0;
x = 1087;
y = 1120;
},
{
segmentType = curve;
smooth = 1;
x = 1087;
y = 649;
},
{
smooth = 0;
x = 1087;
y = 195;
},
{
smooth = 0;
x = 870;
y = -10;
},
{
segmentType = curve;
smooth = 1;
x = 566;
y = -10;
},
{
smooth = 0;
x = 276;
y = -10;
},
{
smooth = 0;
x = 102;
y = 198;
},
{
segmentType = curve;
smooth = 1;
x = 102;
y = 507;
},
{
smooth = 0;
x = 102;
y = 547;
},
{
smooth = 0;
x = 106;
y = 607;
},
{
segmentType = curve;
smooth = 0;
x = 112;
y = 684;
},
{
segmentType = line;
smooth = 0;
x = 920;
y = 684;
},
{
smooth = 0;
x = 915;
y = 1109;
},
{
smooth = 0;
x = 733;
y = 1200;
}
);
},
{
points = (
{
segmentType = curve;
smooth = 1;
x = 565;
y = 127;
},
{
smooth = 0;
x = 791;
y = 127;
},
{
smooth = 0;
x = 900;
y = 296;
},
{
segmentType = curve;
smooth = 0;
x = 920;
y = 566;
},
{
segmentType = line;
smooth = 0;
x = 258;
y = 566;
},
{
segmentType = line;
smooth = 1;
x = 258;
y = 501;
},
{
smooth = 0;
x = 258;
y = 274;
},
{
smooth = 0;
x = 375;
y = 127;
}
);
}
);
lib = {
};
name = Schwa;
unicodes = (
);
width = 1203;
};
};
};
},
{
glyphname = T;
layers = (
{
anchors = (
{
name = bottom;
position = "{447, 0}";
},
{
name = cedilla;
position = "{448, 0}";
},
{
name = top_case;
position = "{460, 1284}";
}
);
layerId = "1D628CB9-BBF5-410A-9D74-9E6094BFE839";
paths = (
{
closed = 1;
nodes = (
"511 0 LINE",
"511 1223 LINE",
"466 1178 LINE",
"860 1178 LINE",
"860 1284 LINE",
"39 1284 LINE",
"39 1178 LINE",
"428 1178 LINE",
"383 1223 LINE",
"383 0 LINE"
);
}
);
width = 899;
},
{
anchors = (
{
name = bottom;
position = "{543, -50}";
},
{
name = cedilla;
position = "{555, -16}";
},
{
name = top_case;
position = "{548, 1334}";
}
);
layerId = "D42B5605-DB46-4B3B-8EA0-4CE7066523CE";
paths = (
{
closed = 1;
nodes = (
"709 0 LINE",
"709 1223 LINE",
"564 999 LINE",
"1053 999 LINE",
"1053 1284 LINE",
"37 1284 LINE",
"37 999 LINE",
"526 999 LINE",
"381 1223 LINE",
"381 0 LINE"
);
}
);
width = 1090;
}
);
leftKerningGroup = T;
rightKerningGroup = T;
unicode = 0054;
},
{
glyphname = Tbar;
layers = (
{
components = (
{
name = T;
}
);
layerId = "1D628CB9-BBF5-410A-9D74-9E6094BFE839";
paths = (
{
closed = 1;
nodes = (
"720 609 LINE",
"720 715 LINE",
"170 715 LINE",
"170 609 LINE"
);
}
);
width = 899;
},
{
components = (
{
name = T;
}
);
layerId = "D42B5605-DB46-4B3B-8EA0-4CE7066523CE";
paths = (
{
closed = 1;
nodes = (
"941 519 LINE",
"941 684 LINE",
"150 684 LINE",
"150 519 LINE"
);
}
);
width = 1090;
}
);
leftKerningGroup = T;
rightKerningGroup = T;
unicode = 0166;
},
{
glyphname = U;
layers = (
{
anchors = (
{
name = bottom;
position = "{544, 0}";
},
{
name = ogonek;
position = "{725, 30}";
},
{
name = top;
position = "{544, 1284}";
},
{
name = top_case;
position = "{544, 1284}";
},
{
name = topright;
position = "{960, 974}";
}
);
layerId = "1D628CB9-BBF5-410A-9D74-9E6094BFE839";
paths = (
{
closed = 1;
nodes = (
"930 -16 OFFCURVE",
"960 224 OFFCURVE",
"960 635 CURVE SMOOTH",
"960 1284 LINE",
"832 1284 LINE",
"832 540 LINE SMOOTH",
"832 263 OFFCURVE",
"817 90 OFFCURVE",
"544 90 CURVE SMOOTH",
"271 90 OFFCURVE",
"256 263 OFFCURVE",
"256 540 CURVE SMOOTH",
"256 1284 LINE",
"128 1284 LINE",
"128 635 LINE SMOOTH",
"128 224 OFFCURVE",
"158 -16 OFFCURVE",
"544 -16 CURVE SMOOTH"
);
}
);
width = 1088;
},
{
anchors = (
{
name = bottom;
position = "{611, -50}";
},
{
name = ogonek;
position = "{802, 42}";
},
{
name = top;
position = "{599, 1336}";
},
{
name = top_case;
position = "{609, 1336}";
},
{
name = topright;
position = "{1219, 844}";
}
);
guideLines = (
{
angle = 270;
position = "{609, 645}";
}
);
layerId = "D42B5605-DB46-4B3B-8EA0-4CE7066523CE";
paths = (
{
closed = 1;
nodes = (
"992 -40 OFFCURVE",
"1139 142 OFFCURVE",
"1139 558 CURVE SMOOTH",
"1139 1284 LINE",
"811 1284 LINE",
"811 555 LINE SMOOTH",
"811 334 OFFCURVE",
"781 245 OFFCURVE",
"611 245 CURVE SMOOTH",
"441 245 OFFCURVE",
"411 334 OFFCURVE",
"411 555 CURVE SMOOTH",
"411 1284 LINE",
"83 1284 LINE",
"83 558 LINE SMOOTH",
"83 142 OFFCURVE",
"230 -40 OFFCURVE",
"611 -40 CURVE SMOOTH"
);
}
);
width = 1222;
}
);
leftKerningGroup = U;
rightKerningGroup = U;
unicode = 0055;
},
{
glyphname = Uhorn;
layers = (
{
anchors = (
{
name = bottom;
position = "{544, 0}";
},
{
name = ogonek;
position = "{725, 30}";
},
{
name = top;
position = "{544, 1284}";
},
{
name = top_case;
position = "{544, 1284}";
}
);
components = (
{
name = U;
},
{
name = horncomb;
transform = "{1, 0, 0, 1, 925, -11}";
}
);
layerId = "1D628CB9-BBF5-410A-9D74-9E6094BFE839";
width = 1088;
},
{
anchors = (
{
name = _topright;
position = "{956, 974}";
},
{
name = bottom;
position = "{540, 0}";
},
{
name = ogonek;
position = "{721, 30}";
},
{
name = top_case;
position = "{540, 1284}";
},
{
name = topright;
position = "{956, 974}";
}
);
associatedMasterId = "1D628CB9-BBF5-410A-9D74-9E6094BFE839";
layerId = "F9DD0791-68B1-45D6-AA01-62C5055AAAB5";
name = "Regular Jul 25 16, 11:38";
paths = (
{
closed = 1;
nodes = (
"926 -16 OFFCURVE",
"956 224 OFFCURVE",
"956 635 CURVE SMOOTH",
"956 1284 LINE",
"828 1284 LINE",
"828 540 LINE SMOOTH",
"828 263 OFFCURVE",
"813 96 OFFCURVE",
"540 96 CURVE SMOOTH",
"267 96 OFFCURVE",
"252 263 OFFCURVE",
"252 540 CURVE SMOOTH",
"252 1284 LINE",
"124 1284 LINE",
"124 635 LINE SMOOTH",
"124 224 OFFCURVE",
"154 -16 OFFCURVE",
"540 -16 CURVE SMOOTH"
);
},
{
closed = 1;
nodes = (
"966 1066 LINE SMOOTH",
"1088 1107 OFFCURVE",
"1194 1166 OFFCURVE",
"1194 1291 CURVE SMOOTH",
"1194 1331 OFFCURVE",
"1187 1363 OFFCURVE",
"1177 1389 CURVE",
"1045 1389 LINE",
"1058 1361 OFFCURVE",
"1066 1330 OFFCURVE",
"1066 1299 CURVE SMOOTH",
"1066 1223 OFFCURVE",
"1027 1180 OFFCURVE",
"956 1149 CURVE SMOOTH",
"921 1134 LINE",
"921 1051 LINE"
);
}
);
width = 1080;
},
{
anchors = (
{
name = bottom;
position = "{612, 0}";
},
{
name = ogonek;
position = "{793, 30}";
},
{
name = top;
position = "{612, 1334}";
},
{
name = top_case;
position = "{612, 1334}";
}
);
components = (
{
name = U;
},
{
alignment = 1;
name = horncomb;
transform = "{1, 0, 0, 1, 1059, -141}";
}
);
layerId = "D42B5605-DB46-4B3B-8EA0-4CE7066523CE";
width = 1222;
}
);
leftKerningGroup = U;
rightKerningGroup = hornUPPER;
unicode = 01AF;
userData = {
com.schriftgestaltung.Glyphs.ColorIndex = 7;
};
},
{
glyphname = V;
layers = (
{
anchors = (
{
name = bottom;
position = "{502, 0}";
},
{
name = top;
position = "{502, 1284}";
}
);
guideLines = (
{
angle = 169.6951;
position = "{906, 1285}";
},
{
angle = 9.6052;
position = "{113, 1293}";
},
{
angle = 270;
position = "{503, 1002}";
},
{
position = "{322, 1283}";
}
);
layerId = "1D628CB9-BBF5-410A-9D74-9E6094BFE839";
paths = (
{
closed = 1;
nodes = (
"581 0 LINE",
"948 1277 LINE",
"823 1300 LINE",
"495 109 LINE",
"509 109 LINE",
"179 1304 LINE",
"55 1283 LINE",
"423 0 LINE"
);
}
);
width = 1003;
},
{
anchors = (
{
name = bottom;
position = "{608, 0}";
},
{
name = top;
position = "{608, 1284}";
}
);
guideLines = (
{
angle = 171.0776;
position = "{1043, 1297}";
},
{
angle = 188.9224;
position = "{214, 1305}";
},
{
position = "{1288, 1273}";
}
);
layerId = "D42B5605-DB46-4B3B-8EA0-4CE7066523CE";
paths = (
{
closed = 1;
nodes = (
"800 0 LINE",
"1193 1255 LINE",
"871 1306 LINE",
"528 115 LINE",
"685 115 LINE",
"337 1306 LINE",
"15 1256 LINE",
"412 0 LINE"
);
}
);
width = 1208;
}
);
unicode = 0056;
},
{
glyphname = W;
layers = (
{
anchors = (
{
name = bottom;
position = "{656, 0}";
},
{
name = top_case;
position = "{656, 1284}";
}
);
layerId = "1D628CB9-BBF5-410A-9D74-9E6094BFE839";
paths = (
{
closed = 1;
nodes = (
"402 0 LINE",
"671 744 LINE",
"640 744 LINE",
"918 0 LINE",
"1060 0 LINE",
"1180 1279 LINE",
"1063 1293 LINE",
"952 138 LINE",
"971 141 LINE",
"713 846 LINE",
"598 846 LINE",
"350 143 LINE",
"370 140 LINE",
"249 1293 LINE",
"132 1284 LINE",
"261 0 LINE"
);
}
);
width = 1312;
},
{
anchors = (
{
name = bottom;
position = "{774, 0}";
},
{
name = top_case;
position = "{804, 1336}";
}
);
layerId = "D42B5605-DB46-4B3B-8EA0-4CE7066523CE";
paths = (
{
closed = 1;
nodes = (
"590 0 LINE",
"896 808 LINE",
"701 808 LINE",
"1006 0 LINE",
"1388 0 LINE",
"1515 1269 LINE",
"1200 1301 LINE",
"1110 138 LINE",
"1209 141 LINE",
"926 926 LINE",
"671 926 LINE",
"388 143 LINE",
"488 140 LINE",
"398 1301 LINE",
"82 1269 LINE",
"209 0 LINE"
);
}
);
width = 1597;
}
);
leftKerningGroup = W;
rightKerningGroup = W;
unicode = 0057;
},
{
glyphname = X;
layers = (
{
anchors = (
{
name = bottom;
position = "{468, 0}";
},
{
name = top;
position = "{468, 1284}";
}
);
guideLines = (
{
angle = 270;
position = "{480, 837}";
},
{
position = "{-2236, 11}";
}
);
layerId = "1D628CB9-BBF5-410A-9D74-9E6094BFE839";
paths = (
{
closed = 1;
nodes = (
"175 -10 LINE",
"501 609 LINE",
"460 609 LINE",
"780 -10 LINE",
"908 11 LINE",
"542 697 LINE",
"543 617 LINE",
"889 1277 LINE",
"763 1298 LINE",
"460 705 LINE",
"500 705 LINE",
"192 1298 LINE",
"65 1277 LINE",
"410 618 LINE",
"411 698 LINE",
"48 11 LINE"
);
}
);
width = 956;
},
{
anchors = (
{
name = bottom;
position = "{544, 0}";
},
{
name = top;
position = "{544, 1284}";
}
);
guideLines = (
{
angle = 188.9224;
position = "{1066, -10}";
},
{
angle = 171.0776;
position = "{237, -19}";
},
{
angle = 188.9224;
position = "{237, 1305}";
},
{
angle = 171.0776;
position = "{1012, 1285}";
}
);
layerId = "D42B5605-DB46-4B3B-8EA0-4CE7066523CE";
paths = (
{
closed = 1;
nodes = (
"316 -28 LINE",
"657 608 LINE",
"460 608 LINE",
"805 -28 LINE",
"1115 20 LINE",
"735 696 LINE",
"726 616 LINE",
"1096 1267 LINE",
"781 1316 LINE",
"450 704 LINE",
"666 704 LINE",
"338 1316 LINE",
"27 1267 LINE",
"383 617 LINE",
"374 697 LINE",
"5 20 LINE"
);
}
);
width = 1120;
}
);
unicode = 0058;
},
{
glyphname = Y;
layers = (
{
anchors = (
{
name = bottom;
position = "{451, 0}";
},
{
name = top;
position = "{449, 1284}";
},
{
name = top_case;
position = "{449, 1284}";
},
{
name = topleft;
position = "{8, 1284}";
}
);
guideLines = (
{
angle = 270;
position = "{451, 901}";
}
);
layerId = "1D628CB9-BBF5-410A-9D74-9E6094BFE839";
paths = (
{
closed = 1;
nodes = (
"515 0 LINE",
"515 588 LINE",
"883 1277 LINE",
"748 1299 LINE",
"431 664 LINE",
"471 664 LINE",
"149 1299 LINE",
"19 1277 LINE",
"387 586 LINE",
"387 0 LINE"
);
}
);
width = 902;
},
{
anchors = (
{
name = bottom;
position = "{539, -50}";
},
{
name = top;
position = "{537, 1356}";
},
{
name = top_case;
position = "{546, 1336}";
},
{
name = topleft;
position = "{-5, 1284}";
}
);
guideLines = (
{
angle = 270;
position = "{548, 1096}";
},
{
angle = 171.0776;
position = "{977, 1290}";
},
{
angle = 188.9224;
position = "{148, 1295}";
},
{
position = "{45, 1272}";
}
);
layerId = "D42B5605-DB46-4B3B-8EA0-4CE7066523CE";
paths = (
{
closed = 1;
nodes = (
"712 0 LINE",
"712 501 LINE",
"1091 1267 LINE",
"775 1317 LINE",
"503 700 LINE",
"590 700 LINE",
"321 1317 LINE",
"5 1267 LINE",
"384 501 LINE",
"384 0 LINE"
);
}
);
width = 1096;
}
);
leftKerningGroup = Y;
rightKerningGroup = Y;
unicode = 0059;
},
{
glyphname = Z;
layers = (
{
anchors = (
{
name = bottom;
position = "{440, 0}";
},
{
name = top_case;
position = "{440, 1284}";
}
);
guideLines = (
{
angle = 270;
position = "{817, 598}";
},
{
angle = 270;
position = "{80, 633}";
}
);
layerId = "1D628CB9-BBF5-410A-9D74-9E6094BFE839";
paths = (
{
closed = 1;
nodes = (
"817 0 LINE",
"817 101 LINE",
"173 101 LINE",
"201 60 LINE",
"796 1176 LINE",
"780 1284 LINE",
"111 1284 LINE",
"111 1183 LINE",
"704 1183 LINE",
"676 1224 LINE",
"80 98 LINE",
"101 0 LINE"
);
}
);
width = 897;
},
{
anchors = (
{
name = bottom;
position = "{508, -50}";
},
{
name = top_case;
position = "{533, 1334}";
}
);
guideLines = (
{
angle = -83.9217;
position = "{922, 1475}";
},
{
angle = -83.9217;
position = "{-28, 912}";
},
{
angle = 270;
position = "{985, 598}";
},
{
angle = 270;
position = "{48, 487}";
},
{
angle = 180;
position = "{421, 999}";
}
);
layerId = "D42B5605-DB46-4B3B-8EA0-4CE7066523CE";
paths = (
{
closed = 1;
nodes = (
"985 0 LINE",
"985 285 LINE",
"251 285 LINE",
"364 179 LINE",
"968 1046 LINE",
"942 1284 LINE",
"79 1284 LINE",
"79 999 LINE",
"762 999 LINE",
"653 1110 LINE",
"45 228 LINE",
"69 0 LINE"
);
}
);
width = 1023;
}
);
leftKerningGroup = Z;
rightKerningGroup = Z;
unicode = 005A;
},
{
glyphname = A.001;
layers = (
{
anchors = (
{
name = bottom;
position = "{545, 30}";
},
{
name = ogonek;
position = "{981, 0}";
},
{
name = top;
position = "{554, 1284}";
},
{
name = top_case;
position = "{554, 1284}";
}
);
guideLines = (
{
position = "{817, -25}";
},
{
position = "{775, 12}";
}
);
layerId = "1D628CB9-BBF5-410A-9D74-9E6094BFE839";
paths = (
{
closed = 1;
nodes = (
"197 0 LINE",
"313 367 LINE",
"254 320 LINE",
"847 320 LINE",
"789 367 LINE",
"901 0 LINE",
"1029 0 LINE",
"647 1284 LINE",
"460 1284 LINE",
"60 0 LINE"
);
},
{
closed = 1;
nodes = (
"567 1217 LINE",
"541 1217 LINE",
"786 377 LINE",
"818 421 LINE",
"282 421 LINE",
"314 377 LINE"
);
}
);
width = 1090;
},
{
anchors = (
{
name = bottom;
position = "{601, -50}";
},
{
name = ogonek;
position = "{1069, 5}";
},
{
name = top;
position = "{600, 1436}";
},
{
name = top_case;
position = "{609, 1436}";
}
);
guideLines = (
{
angle = 252.1913;
position = "{1986, 1465}";
},
{
angle = -72.1913;
position = "{1650, 1502}";
},
{
angle = 270;
position = "{601, 700}";
},
{
angle = 107.1404;
position = "{686, 642}";
},
{
angle = 72.6968;
position = "{514, 642}";
},
{
position = "{592, -51}";
}
);
layerId = "D42B5605-DB46-4B3B-8EA0-4CE7066523CE";
paths = (
{
closed = 1;
nodes = (
"314 0 LINE",
"415 325 LINE",
"271 209 LINE",
"924 209 LINE",
"781 334 LINE",
"884 0 LINE",
"1191 0 LINE",
"795 1284 LINE",
"407 1284 LINE",
"7 0 LINE"
);
},
{
closed = 1;
nodes = (
"628 1007 LINE",
"573 1007 LINE",
"771 367 LINE",
"875 479 LINE",
"319 479 LINE",
"428 367 LINE"
);
}
);
width = 1198;
}
);
},
{
glyphname = K.001;
layers = (
{
anchors = (
{
name = bottom;
position = "{520, 0}";
},
{
name = top;
position = "{520, 1284}";
}
);
guideLines = (
{
angle = 270;
position = "{1005, 637}";
}
);
layerId = "1D628CB9-BBF5-410A-9D74-9E6094BFE839";
paths = (
{
closed = 1;
nodes = (
"281 0 LINE",
"281 525 LINE",
"249 449 LINE",
"489 683 LINE",
"433 690 LINE",
"864 0 LINE",
"1005 0 LINE",
"530 759 LINE",
"527 685 LINE",
"979 1284 LINE",
"829 1284 LINE",
"436 778 LINE",
"251 576 LINE",
"281 564 LINE",
"281 1284 LINE",
"153 1284 LINE",
"153 0 LINE"
);
}
);
width = 1040;
},
{
anchors = (
{
name = bottom;
position = "{570, 0}";
},
{
name = top;
position = "{570, 1422}";
}
);
layerId = "D42B5605-DB46-4B3B-8EA0-4CE7066523CE";
paths = (
{
closed = 1;
nodes = (
"420 0 LINE",
"420 505 LINE",
"333 347 LINE",
"608 561 LINE",
"522 584 LINE",
"795 0 LINE",
"1199 0 LINE",
"768 796 LINE",
"757 662 LINE",
"1172 1284 LINE",
"800 1284 LINE",
"517 855 LINE",
"304 633 LINE",
"420 624 LINE",
"420 1284 LINE",
"92 1284 LINE",
"92 0 LINE"
);
}
);
width = 1214;
}
);
userData = {
com.fontlab.hintData = {
hhints = (
{
position = 0;
width = 21;
},
{
position = 1264;
width = 20;
}
);
vhints = (
{
position = 149;
width = 128;
}
);
};
};
},
{
glyphname = M.001;
layers = (
{
anchors = (
{
name = bottom;
position = "{685, 0}";
},
{
name = top_case;
position = "{681, 1284}";
}
);
guideLines = (
{
angle = 270;
position = "{685, 1133}";
},
{
position = "{817, -25}";
},
{
position = "{775, 12}";
}
);
layerId = "1D628CB9-BBF5-410A-9D74-9E6094BFE839";
paths = (
{
closed = 1;
nodes = (
"263 0 LINE",
"358 1131 LINE",
"336 1127 LINE",
"628 438 LINE",
"743 438 LINE",
"1035 1131 LINE",
"1014 1134 LINE",
"1108 0 LINE",
"1229 0 LINE",
"1125 1284 LINE",
"984 1284 LINE",
"668 540 LINE",
"703 541 LINE",
"388 1284 LINE",
"246 1284 LINE",
"141 0 LINE"
);
}
);
width = 1370;
},
{
anchors = (
{
name = bottom;
position = "{772, 0}";
},
{
name = top_case;
position = "{768, 1334}";
}
);
guideLines = (
{
angle = 265.6286;
position = "{163, 443}";
},
{
angle = -85.6286;
position = "{1390, 443}";
},
{
angle = 270;
position = "{779, 876}";
}
);
layerId = "D42B5605-DB46-4B3B-8EA0-4CE7066523CE";
paths = (
{
closed = 1;
nodes = (
"410 0 LINE",
"489 1144 LINE",
"329 1141 LINE",
"652 308 LINE",
"907 308 LINE",
"1230 1143 LINE",
"1071 1146 LINE",
"1150 0 LINE",
"1478 0 LINE",
"1359 1284 LINE",
"997 1284 LINE",
"712 566 LINE",
"847 566 LINE",
"561 1284 LINE",
"200 1284 LINE",
"82 0 LINE"
);
}
);
width = 1560;
}
);
},
{
glyphname = Q.001;
layers = (
{
anchors = (
{
name = bottom;
position = "{570, 0}";
},
{
name = top;
position = "{570, 1284}";
}
);
layerId = "1D628CB9-BBF5-410A-9D74-9E6094BFE839";
paths = (
{
closed = 1;
nodes = (
"929 -5 OFFCURVE",
"1016 237 OFFCURVE",
"1016 653 CURVE SMOOTH",
"1016 1070 OFFCURVE",
"917 1306 OFFCURVE",
"568 1306 CURVE SMOOTH",
"219 1306 OFFCURVE",
"120 1070 OFFCURVE",
"120 653 CURVE SMOOTH",
"120 237 OFFCURVE",
"207 -5 OFFCURVE",
"568 -5 CURVE SMOOTH"
);
},
{
closed = 1;
nodes = (
"980 -94 LINE",
"684 361 LINE",
"600 295 LINE",
"896 -159 LINE"
);
},
{
closed = 1;
nodes = (
"318 101 OFFCURVE",
"248 269 OFFCURVE",
"248 650 CURVE SMOOTH",
"248 1035 OFFCURVE",
"321 1200 OFFCURVE",
"568 1200 CURVE SMOOTH",
"815 1200 OFFCURVE",
"888 1035 OFFCURVE",
"888 650 CURVE SMOOTH",
"888 269 OFFCURVE",
"818 101 OFFCURVE",
"568 101 CURVE SMOOTH"
);
}
);
width = 1140;
},
{
anchors = (
{
name = bottom;
position = "{583, 40}";
},
{
name = top;
position = "{583, 1254}";
}
);
layerId = "D42B5605-DB46-4B3B-8EA0-4CE7066523CE";
paths = (
{
closed = 1;
nodes = (
"940 -10 OFFCURVE",
"1122 162 OFFCURVE",
"1122 648 CURVE SMOOTH",
"1122 1135 OFFCURVE",
"928 1301 OFFCURVE",
"589 1301 CURVE SMOOTH",
"250 1301 OFFCURVE",
"56 1135 OFFCURVE",
"56 648 CURVE SMOOTH",
"56 162 OFFCURVE",
"238 -10 OFFCURVE",
"589 -10 CURVE SMOOTH"
);
},
{
closed = 1;
nodes = (
"1072 -7 LINE",
"698 538 LINE",
"500 393 LINE",
"881 -166 LINE"
);
},
{
closed = 1;
nodes = (
"439 275 OFFCURVE",
"384 364 OFFCURVE",
"384 645 CURVE SMOOTH",
"384 931 OFFCURVE",
"442 1016 OFFCURVE",
"589 1016 CURVE SMOOTH",
"736 1016 OFFCURVE",
"794 931 OFFCURVE",
"794 645 CURVE SMOOTH",
"794 364 OFFCURVE",
"739 275 OFFCURVE",
"589 275 CURVE SMOOTH"
);
}
);
width = 1178;
}
);
},
{
glyphname = R.001;
layers = (
{
anchors = (
{
name = bottom;
position = "{531, 0}";
},
{
name = top_case;
position = "{531, 1284}";
}
);
guideLines = (
{
position = "{817, -25}";
},
{
position = "{775, 43}";
},
{
angle = 270;
position = "{1016, 535}";
}
);
layerId = "1D628CB9-BBF5-410A-9D74-9E6094BFE839";
paths = (
{
closed = 1;
nodes = (
"1006 -25 LINE",
"652 631 LINE",
"639 584 LINE",
"827 617 OFFCURVE",
"921 709 OFFCURVE",
"921 922 CURVE SMOOTH",
"921 1238 OFFCURVE",
"747 1284 OFFCURVE",
"406 1284 CURVE SMOOTH",
"153 1284 LINE",
"153 0 LINE",
"281 0 LINE",
"281 612 LINE",
"236 567 LINE",
"391 567 LINE SMOOTH",
"458 567 OFFCURVE",
"527 570 OFFCURVE",
"579 575 CURVE",
"533 613 LINE",
"864 -25 LINE"
);
},
{
closed = 1;
nodes = (
"281 1229 LINE",
"236 1184 LINE",
"400 1184 LINE SMOOTH",
"660 1184 OFFCURVE",
"793 1166 OFFCURVE",
"793 920 CURVE SMOOTH",
"793 697 OFFCURVE",
"693 662 OFFCURVE",
"368 662 CURVE SMOOTH",
"236 662 LINE",
"281 617 LINE"
);
}
);
width = 1061;
},
{
anchors = (
{
name = bottom;
position = "{531, 0}";
},
{
name = top_case;
position = "{531, 1424}";
}
);
guideLines = (
{
angle = 121.1332;
position = "{1234, -182}";
},
{
angle = 270;
position = "{1174, 535}";
}
);
layerId = "D42B5605-DB46-4B3B-8EA0-4CE7066523CE";
paths = (
{
closed = 1;
nodes = (
"1119 0 LINE",
"832 546 LINE",
"762 485 LINE",
"934 544 OFFCURVE",
"1042 641 OFFCURVE",
"1042 870 CURVE SMOOTH",
"1042 1170 OFFCURVE",
"878 1284 OFFCURVE",
"618 1284 CURVE SMOOTH",
"92 1284 LINE",
"92 0 LINE",
"420 0 LINE",
"420 551 LINE",
"325 456 LINE",
"502 456 LINE",
"540 456 OFFCURVE",
"577 456 OFFCURVE",
"615 456 CURVE",
"515 479 LINE",
"732 0 LINE"
);
},
{
closed = 1;
nodes = (
"420 1094 LINE",
"325 999 LINE",
"566 999 LINE SMOOTH",
"648 999 OFFCURVE",
"714 969 OFFCURVE",
"714 876 CURVE SMOOTH",
"714 756 OFFCURVE",
"645 741 OFFCURVE",
"509 741 CURVE SMOOTH",
"325 741 LINE",
"420 646 LINE"
);
}
);
width = 1129;
}
);
},
{
glyphname = V.001;
layers = (
{
anchors = (
{
name = bottom;
position = "{508, 0}";
},
{
name = top;
position = "{508, 1284}";
}
);
guideLines = (
{
position = "{817, 1272}";
},
{
position = "{775, 1309}";
}
);
layerId = "1D628CB9-BBF5-410A-9D74-9E6094BFE839";
paths = (
{
closed = 1;
nodes = (
"587 0 LINE",
"956 1285 LINE",
"824 1285 LINE",
"501 109 LINE",
"515 109 LINE",
"192 1285 LINE",
"60 1285 LINE",
"429 0 LINE"
);
}
);
width = 1016;
},
{
anchors = (
{
name = bottom;
position = "{611, 0}";
},
{
name = top;
position = "{611, 1284}";
}
);
layerId = "D42B5605-DB46-4B3B-8EA0-4CE7066523CE";
paths = (
{
closed = 1;
nodes = (
"803 0 LINE",
"1199 1284 LINE",
"857 1284 LINE",
"531 115 LINE",
"688 115 LINE",
"357 1285 LINE",
"15 1284 LINE",
"415 0 LINE"
);
}
);
width = 1214;
}
);
},
{
glyphname = W.001;
layers = (
{
anchors = (
{
name = bottom;
position = "{673, 0}";
},
{
name = top_case;
position = "{673, 1284}";
}
);
guideLines = (
{
position = "{817, 1279}";
},
{
position = "{775, 1293}";
}
);
layerId = "1D628CB9-BBF5-410A-9D74-9E6094BFE839";
paths = (
{
closed = 1;
nodes = (
"431 0 LINE",
"700 744 LINE",
"669 744 LINE",
"947 0 LINE",
"1089 0 LINE",
"1209 1284 LINE",
"1091 1284 LINE",
"981 138 LINE",
"1000 141 LINE",
"742 846 LINE",
"627 846 LINE",
"379 143 LINE",
"399 140 LINE",
"279 1284 LINE",
"161 1284 LINE",
"290 0 LINE"
);
}
);
width = 1345;
},
{
anchors = (
{
name = bottom;
position = "{764, 0}";
},
{
name = top_case;
position = "{794, 1336}";
}
);
layerId = "D42B5605-DB46-4B3B-8EA0-4CE7066523CE";
paths = (
{
closed = 1;
nodes = (
"571 0 LINE",
"867 718 LINE",
"712 718 LINE",
"1007 0 LINE",
"1369 0 LINE",
"1498 1284 LINE",
"1175 1284 LINE",
"1091 138 LINE",
"1210 141 LINE",
"917 946 LINE",
"662 946 LINE",
"369 143 LINE",
"489 140 LINE",
"405 1284 LINE",
"82 1284 LINE",
"210 0 LINE"
);
}
);
width = 1580;
}
);
},
{
glyphname = X.001;
layers = (
{
anchors = (
{
name = bottom;
position = "{484, 0}";
},
{
name = top;
position = "{484, 1284}";
}
);
guideLines = (
{
angle = 270;
position = "{486, 837}";
},
{
position = "{397, 1239}";
},
{
position = "{397, 1297}";
}
);
layerId = "1D628CB9-BBF5-410A-9D74-9E6094BFE839";
paths = (
{
closed = 1;
nodes = (
"186 0 LINE",
"497 609 LINE",
"456 609 LINE",
"761 0 LINE",
"899 0 LINE",
"538 697 LINE",
"539 617 LINE",
"873 1284 LINE",
"735 1284 LINE",
"456 705 LINE",
"496 705 LINE",
"211 1284 LINE",
"73 1284 LINE",
"406 618 LINE",
"407 698 LINE",
"48 0 LINE"
);
}
);
width = 947;
},
{
anchors = (
{
name = bottom;
position = "{582, 0}";
},
{
name = top;
position = "{582, 1284}";
}
);
guideLines = (
{
angle = 243.332;
position = "{925, 951}";
},
{
angle = -62.1423;
position = "{238, 951}";
},
{
angle = -61.3377;
position = "{957, 349}";
},
{
angle = 242.1367;
position = "{221, 349}";
},
{
position = "{558, 1359}";
},
{
position = "{560, 1230}";
},
{
position = "{558, 44}";
},
{
position = "{560, -85}";
}
);
layerId = "D42B5605-DB46-4B3B-8EA0-4CE7066523CE";
paths = (
{
closed = 1;
nodes = (
"355 0 LINE",
"667 603 LINE",
"470 603 LINE",
"786 0 LINE",
"1126 0 LINE",
"745 691 LINE",
"736 611 LINE",
"1071 1284 LINE",
"731 1284 LINE",
"460 699 LINE",
"676 699 LINE",
"381 1284 LINE",
"41 1284 LINE",
"393 612 LINE",
"384 692 LINE",
"15 0 LINE"
);
}
);
width = 1151;
}
);
},
{
glyphname = Y.001;
layers = (
{
anchors = (
{
name = bottom;
position = "{457, 0}";
},
{
name = top;
position = "{455, 1284}";
},
{
name = top_case;
position = "{455, 1284}";
},
{
name = topleft;
position = "{14, 1284}";
}
);
guideLines = (
{
position = "{387, 1239}";
},
{
position = "{387, 1297}";
}
);
layerId = "1D628CB9-BBF5-410A-9D74-9E6094BFE839";
paths = (
{
closed = 1;
nodes = (
"521 0 LINE",
"521 588 LINE",
"895 1284 LINE",
"749 1284 LINE",
"437 664 LINE",
"477 664 LINE",
"161 1284 LINE",
"19 1284 LINE",
"393 586 LINE",
"393 0 LINE"
);
}
);
width = 914;
},
{
anchors = (
{
name = bottom;
position = "{564, -50}";
},
{
name = top;
position = "{562, 1356}";
},
{
name = top_case;
position = "{571, 1336}";
},
{
name = topleft;
position = "{20, 1284}";
}
);
guideLines = (
{
angle = 270;
position = "{563, 1096}";
},
{
position = "{557, 1359}";
},
{
position = "{559, 1245}";
},
{
position = "{560, 1230}";
}
);
layerId = "D42B5605-DB46-4B3B-8EA0-4CE7066523CE";
paths = (
{
closed = 1;
nodes = (
"717 0 LINE",
"717 511 LINE",
"1091 1284 LINE",
"765 1284 LINE",
"516 680 LINE",
"603 680 LINE",
"351 1284 LINE",
"15 1284 LINE",
"389 511 LINE",
"389 0 LINE"
);
}
);
width = 1106;
}
);
},
{
glyphname = a;
layers = (
{
anchors = (
{
name = bottom;
position = "{451, 0}";
},
{
name = ogonek;
position = "{734, 0}";
},
{
name = top;
position = "{448, 985}";
}
);
guideLines = (
{
position = "{230, 137}";
},
{
position = "{210, 50}";
}
);
layerId = "1D628CB9-BBF5-410A-9D74-9E6094BFE839";
paths = (
{
closed = 1;
nodes = (
"517 -10 OFFCURVE",
"642 45 OFFCURVE",
"681 77 CURVE",
"657 113 LINE",
"688 0 LINE",
"784 0 LINE",
"784 627 LINE SMOOTH",
"784 909 OFFCURVE",
"669 1000 OFFCURVE",
"455 1000 CURVE SMOOTH",
"358 1000 OFFCURVE",
"244 976 OFFCURVE",
"140 942 CURVE",
"165 843 LINE",
"263 875 OFFCURVE",
"367 895 OFFCURVE",
"449 895 CURVE SMOOTH",
"575 895 OFFCURVE",
"656 838 OFFCURVE",
"656 609 CURVE SMOOTH",
"656 508 LINE",
"708 540 LINE",
"608 572 OFFCURVE",
"510 578 OFFCURVE",
"453 577 CURVE SMOOTH",
"182 577 OFFCURVE",
"83 403 OFFCURVE",
"83 269 CURVE SMOOTH",
"83 83 OFFCURVE",
"215 -10 OFFCURVE",
"399 -10 CURVE SMOOTH"
);
},
{
closed = 1;
nodes = (
"287 92 OFFCURVE",
"211 145 OFFCURVE",
"211 278 CURVE SMOOTH",
"211 412 OFFCURVE",
"318 483 OFFCURVE",
"495 483 CURVE SMOOTH",
"548 483 OFFCURVE",
"613 476 OFFCURVE",
"692 444 CURVE",
"656 502 LINE",
"656 112 LINE",
"674 170 LINE",
"624 128 OFFCURVE",
"518 92 OFFCURVE",
"419 92 CURVE SMOOTH"
);
}
);
width = 916;
},
{
anchors = (
{
name = bottom;
position = "{506, -50}";
},
{
name = ogonek;
position = "{826, 5}";
},
{
name = top;
position = "{523, 1055}";
}
);
layerId = "D42B5605-DB46-4B3B-8EA0-4CE7066523CE";
paths = (
{
closed = 1;
nodes = (
"515 -18 OFFCURVE",
"618 38 OFFCURVE",
"699 109 CURVE",
"627 130 LINE",
"673 0 LINE",
"949 0 LINE",
"949 607 LINE SMOOTH",
"949 919 OFFCURVE",
"739 1030 OFFCURVE",
"540 1030 CURVE SMOOTH",
"443 1030 OFFCURVE",
"312 1026 OFFCURVE",
"108 968 CURVE",
"174 722 LINE",
"316 757 OFFCURVE",
"411 763 OFFCURVE",
"474 763 CURVE SMOOTH",
"596 763 OFFCURVE",
"631 717 OFFCURVE",
"631 611 CURVE SMOOTH",
"631 483 LINE",
"683 583 LINE",
"614 609 OFFCURVE",
"555 624 OFFCURVE",
"448 624 CURVE SMOOTH",
"162 624 OFFCURVE",
"43 449 OFFCURVE",
"43 298 CURVE SMOOTH",
"43 89 OFFCURVE",
"192 -18 OFFCURVE",
"403 -18 CURVE SMOOTH"
);
},
{
closed = 1;
nodes = (
"403 212 OFFCURVE",
"363 244 OFFCURVE",
"363 302 CURVE SMOOTH",
"363 346 OFFCURVE",
"397 399 OFFCURVE",
"489 399 CURVE SMOOTH",
"564 399 OFFCURVE",
"606 387 OFFCURVE",
"687 350 CURVE",
"631 477 LINE",
"631 162 LINE",
"679 299 LINE",
"630 255 OFFCURVE",
"552 212 OFFCURVE",
"467 212 CURVE SMOOTH"
);
}
);
width = 1023;
}
);
leftKerningGroup = a;
rightKerningGroup = StraightLOWER;
rightMetricsKey = "=n";
unicode = 0061;
},
{
glyphname = ae;
layers = (
{
anchors = (
{
name = bottom;
position = "{745, 0}";
},
{
name = ogonek;
position = "{734, 0}";
},
{
name = top;
position = "{745, 985}";
}
);
guideLines = (
{
position = "{510, 469}";
}
);
layerId = "1D628CB9-BBF5-410A-9D74-9E6094BFE839";
paths = (
{
closed = 1;
nodes = (
"582 -10 OFFCURVE",
"716 76 OFFCURVE",
"812 168 CURVE",
"745 234 LINE",
"667 159 OFFCURVE",
"550 92 OFFCURVE",
"424 92 CURVE SMOOTH",
"284 92 OFFCURVE",
"211 173 OFFCURVE",
"211 298 CURVE SMOOTH",
"211 431 OFFCURVE",
"338 491 OFFCURVE",
"495 491 CURVE SMOOTH",
"539 491 OFFCURVE",
"650 485 OFFCURVE",
"705 455 CURVE",
"730 455 OFFCURVE",
"743 469 OFFCURVE",
"768 469 CURVE",
"1405 469 LINE",
"1410 528 OFFCURVE",
"1413 574 OFFCURVE",
"1413 604 CURVE SMOOTH",
"1413 841 OFFCURVE",
"1280 1000 OFFCURVE",
"1058 1000 CURVE SMOOTH",
"890 1000 OFFCURVE",
"757 919 OFFCURVE",
"696 743 CURVE",
"766 771 LINE",
"721 939 OFFCURVE",
"598 1000 OFFCURVE",
"448 1000 CURVE SMOOTH",
"351 1000 OFFCURVE",
"244 976 OFFCURVE",
"140 942 CURVE",
"165 843 LINE",
"263 868 OFFCURVE",
"360 895 OFFCURVE",
"442 895 CURVE SMOOTH",
"568 895 OFFCURVE",
"659 831 OFFCURVE",
"659 599 CURVE SMOOTH",
"659 496 LINE SMOOTH",
"659 134 OFFCURVE",
"826 -10 OFFCURVE",
"1083 -10 CURVE SMOOTH",
"1178 -10 OFFCURVE",
"1299 16 OFFCURVE",
"1395 75 CURVE",
"1356 176 LINE",
"1263 117 OFFCURVE",
"1176 96 OFFCURVE",
"1076 96 CURVE SMOOTH",
"921 96 OFFCURVE",
"786 172 OFFCURVE",
"786 519 CURVE SMOOTH",
"786 750 OFFCURVE",
"876 895 OFFCURVE",
"1059 895 CURVE SMOOTH",
"1204 895 OFFCURVE",
"1294 783 OFFCURVE",
"1294 609 CURVE SMOOTH",
"1294 561 LINE",
"761 562 LINE",
"740 562 OFFCURVE",
"730 548 OFFCURVE",
"709 548 CURVE",
"653 578 OFFCURVE",
"498 585 OFFCURVE",
"453 585 CURVE SMOOTH",
"202 585 OFFCURVE",
"83 452 OFFCURVE",
"83 289 CURVE SMOOTH",
"83 103 OFFCURVE",
"220 -10 OFFCURVE",
"404 -10 CURVE SMOOTH"
);
}
);
width = 1509;
},
{
anchors = (
{
name = bottom;
position = "{771, 0}";
},
{
name = top;
position = "{771, 985}";
}
);
associatedMasterId = "1D628CB9-BBF5-410A-9D74-9E6094BFE839";
layerId = "5E165179-021E-4BCF-A508-2B1321AC368B";
name = "Regular Jul 6 16, 13:18";
paths = (
{
closed = 1;
nodes = (
"166 942 LINE",
"270 976 OFFCURVE",
"377 1000 OFFCURVE",
"474 1000 CURVE SMOOTH",
"599 1000 OFFCURVE",
"726 944 OFFCURVE",
"762 789 CURVE",
"829 941 OFFCURVE",
"950 1000 OFFCURVE",
"1087 1000 CURVE SMOOTH",
"1290 1000 OFFCURVE",
"1429 844 OFFCURVE",
"1429 707 CURVE SMOOTH",
"1429 581 OFFCURVE",
"1341 469 OFFCURVE",
"1128 469 CURVE SMOOTH",
"813 469 LINE",
"817 162 OFFCURVE",
"956 96 OFFCURVE",
"1102 96 CURVE SMOOTH",
"1202 96 OFFCURVE",
"1289 117 OFFCURVE",
"1382 176 CURVE",
"1421 75 LINE",
"1325 16 OFFCURVE",
"1204 -10 OFFCURVE",
"1109 -10 CURVE SMOOTH",
"960 -10 OFFCURVE",
"842 38 OFFCURVE",
"768 149 CURVE",
"710 64 OFFCURVE",
"625 -10 OFFCURVE",
"425 -10 CURVE SMOOTH",
"241 -10 OFFCURVE",
"109 85 OFFCURVE",
"109 284 CURVE SMOOTH",
"109 429 OFFCURVE",
"223 567 OFFCURVE",
"597 567 CURVE SMOOTH",
"685 567 LINE",
"685 599 LINE SMOOTH",
"684 831 OFFCURVE",
"594 895 OFFCURVE",
"468 895 CURVE SMOOTH",
"386 895 OFFCURVE",
"289 868 OFFCURVE",
"191 843 CURVE"
);
},
{
closed = 1;
nodes = (
"229 278 CURVE SMOOTH",
"229 153 OFFCURVE",
"305 92 OFFCURVE",
"445 92 CURVE SMOOTH",
"551 92 OFFCURVE",
"627 113 OFFCURVE",
"732 216 CURVE",
"703 284 OFFCURVE",
"687 369 OFFCURVE",
"685 472 CURVE",
"685 473 LINE",
"629 473 LINE SMOOTH",
"462 473 OFFCURVE",
"229 455 OFFCURVE"
);
},
{
closed = 1;
nodes = (
"813 559 CURVE",
"1126 559 LINE SMOOTH",
"1261 559 OFFCURVE",
"1321 630 OFFCURVE",
"1321 707 CURVE SMOOTH",
"1321 798 OFFCURVE",
"1238 896 OFFCURVE",
"1099 896 CURVE SMOOTH",
"917 896 OFFCURVE",
"829 767 OFFCURVE"
);
}
);
width = 1541;
},
{
anchors = (
{
name = bottom;
position = "{758, -100}";
},
{
name = ogonek;
position = "{747, -100}";
},
{
name = top;
position = "{808, 1085}";
}
);
guideLines = (
{
position = "{513, 382}";
}
);
layerId = "D42B5605-DB46-4B3B-8EA0-4CE7066523CE";
paths = (
{
closed = 1;
nodes = (
"550 -39 OFFCURVE",
"661 -1 OFFCURVE",
"782 111 CURVE",
"702 309 LINE",
"644 244 OFFCURVE",
"557 191 OFFCURVE",
"472 191 CURVE SMOOTH",
"401 191 OFFCURVE",
"363 234 OFFCURVE",
"363 297 CURVE SMOOTH",
"363 349 OFFCURVE",
"402 402 OFFCURVE",
"489 403 CURVE SMOOTH",
"567 404 OFFCURVE",
"606 396 OFFCURVE",
"690 365 CURVE SMOOTH",
"741 346 OFFCURVE",
"822 382 OFFCURVE",
"872 382 CURVE",
"1529 386 LINE",
"1538 446 OFFCURVE",
"1539 535 OFFCURVE",
"1539 570 CURVE SMOOTH",
"1539 879 OFFCURVE",
"1355 1030 OFFCURVE",
"1103 1030 CURVE SMOOTH",
"861 1030 OFFCURVE",
"740 909 OFFCURVE",
"669 743 CURVE",
"885 746 LINE",
"840 914 OFFCURVE",
"734 1030 OFFCURVE",
"535 1030 CURVE SMOOTH",
"438 1030 OFFCURVE",
"307 1026 OFFCURVE",
"103 968 CURVE",
"169 722 LINE",
"311 757 OFFCURVE",
"406 763 OFFCURVE",
"469 763 CURVE SMOOTH",
"595 763 OFFCURVE",
"622 649 OFFCURVE",
"622 599 CURVE SMOOTH",
"622 496 LINE SMOOTH",
"622 96 OFFCURVE",
"866 -40 OFFCURVE",
"1123 -40 CURVE SMOOTH",
"1293 -40 OFFCURVE",
"1437 3 OFFCURVE",
"1553 66 CURVE",
"1445 275 LINE",
"1312 217 OFFCURVE",
"1208 208 OFFCURVE",
"1158 208 CURVE SMOOTH",
"1054 208 OFFCURVE",
"918 243 OFFCURVE",
"947 507 CURVE",
"929 744 OFFCURVE",
"1004 785 OFFCURVE",
"1091 785 CURVE SMOOTH",
"1173 785 OFFCURVE",
"1223 728 OFFCURVE",
"1223 609 CURVE",
"1223 586 LINE",
"855 587 LINE",
"817 587 OFFCURVE",
"771 572 OFFCURVE",
"725 588 CURVE SMOOTH",
"631 621 OFFCURVE",
"525 628 OFFCURVE",
"448 628 CURVE SMOOTH",
"162 628 OFFCURVE",
"43 451 OFFCURVE",
"43 283 CURVE SMOOTH",
"43 79 OFFCURVE",
"197 -39 OFFCURVE",
"408 -39 CURVE SMOOTH"
);
}
);
width = 1605;
}
);
leftKerningGroup = a;
leftMetricsKey = "=a";
rightKerningGroup = RoundLOWER;
rightMetricsKey = "=e";
unicode = 00E6;
userData = {
com.typemytype.robofont.layerData = {
"Regular Jul 6 16, 13:18" = {
anchors = (
{
name = top;
x = 771;
y = 985;
},
{
name = bottom;
x = 771;
y = 0;
}
);
components = (
);
contours = (
{
points = (
{
segmentType = line;
smooth = 0;
x = 166;
y = 942;
},
{
smooth = 0;
x = 270;
y = 976;
},
{
smooth = 0;
x = 377;
y = 1000;
},
{
segmentType = curve;
smooth = 1;
x = 474;
y = 1000;
},
{
smooth = 0;
x = 599;
y = 1000;
},
{
smooth = 0;
x = 726;
y = 944;
},
{
segmentType = curve;
smooth = 0;
x = 762;
y = 789;
},
{
smooth = 0;
x = 829;
y = 941;
},
{
smooth = 0;
x = 950;
y = 1000;
},
{
segmentType = curve;
smooth = 1;
x = 1087;
y = 1000;
},
{
smooth = 0;
x = 1290;
y = 1000;
},
{
smooth = 0;
x = 1429;
y = 844;
},
{
segmentType = curve;
smooth = 1;
x = 1429;
y = 707;
},
{
smooth = 0;
x = 1429;
y = 581;
},
{
smooth = 0;
x = 1341;
y = 469;
},
{
segmentType = curve;
smooth = 1;
x = 1128;
y = 469;
},
{
segmentType = line;
smooth = 0;
x = 813;
y = 469;
},
{
smooth = 0;
x = 817;
y = 162;
},
{
smooth = 0;
x = 956;
y = 96;
},
{
segmentType = curve;
smooth = 1;
x = 1102;
y = 96;
},
{
smooth = 0;
x = 1202;
y = 96;
},
{
smooth = 0;
x = 1289;
y = 117;
},
{
segmentType = curve;
smooth = 0;
x = 1382;
y = 176;
},
{
segmentType = line;
smooth = 0;
x = 1421;
y = 75;
},
{
smooth = 0;
x = 1325;
y = 16;
},
{
smooth = 0;
x = 1204;
y = -10;
},
{
segmentType = curve;
smooth = 1;
x = 1109;
y = -10;
},
{
smooth = 0;
x = 960;
y = -10;
},
{
smooth = 0;
x = 842;
y = 38;
},
{
segmentType = curve;
smooth = 0;
x = 768;
y = 149;
},
{
smooth = 0;
x = 710;
y = 64;
},
{
smooth = 0;
x = 625;
y = -10;
},
{
segmentType = curve;
smooth = 1;
x = 425;
y = -10;
},
{
smooth = 0;
x = 241;
y = -10;
},
{
smooth = 0;
x = 109;
y = 85;
},
{
segmentType = curve;
smooth = 1;
x = 109;
y = 284;
},
{
smooth = 0;
x = 109;
y = 429;
},
{
smooth = 0;
x = 223;
y = 567;
},
{
segmentType = curve;
smooth = 1;
x = 597;
y = 567;
},
{
segmentType = line;
smooth = 0;
x = 685;
y = 567;
},
{
segmentType = line;
smooth = 1;
x = 685;
y = 599;
},
{
smooth = 0;
x = 684;
y = 831;
},
{
smooth = 0;
x = 594;
y = 895;
},
{
segmentType = curve;
smooth = 1;
x = 468;
y = 895;
},
{
smooth = 0;
x = 386;
y = 895;
},
{
smooth = 0;
x = 289;
y = 868;
},
{
segmentType = curve;
smooth = 0;
x = 191;
y = 843;
}
);
},
{
points = (
{
segmentType = curve;
smooth = 1;
x = 229;
y = 278;
},
{
smooth = 0;
x = 229;
y = 153;
},
{
smooth = 0;
x = 305;
y = 92;
},
{
segmentType = curve;
smooth = 1;
x = 445;
y = 92;
},
{
smooth = 0;
x = 551;
y = 92;
},
{
smooth = 0;
x = 627;
y = 113;
},
{
segmentType = curve;
smooth = 0;
x = 732;
y = 216;
},
{
smooth = 0;
x = 703;
y = 284;
},
{
smooth = 0;
x = 687;
y = 369;
},
{
segmentType = curve;
smooth = 0;
x = 685;
y = 472;
},
{
segmentType = line;
smooth = 0;
x = 685;
y = 473;
},
{
segmentType = line;
smooth = 1;
x = 629;
y = 473;
},
{
smooth = 0;
x = 462;
y = 473;
},
{
smooth = 0;
x = 229;
y = 455;
}
);
},
{
points = (
{
segmentType = curve;
smooth = 0;
x = 813;
y = 559;
},
{
segmentType = line;
smooth = 1;
x = 1126;
y = 559;
},
{
smooth = 0;
x = 1261;
y = 559;
},
{
smooth = 0;
x = 1321;
y = 630;
},
{
segmentType = curve;
smooth = 1;
x = 1321;
y = 707;
},
{
smooth = 0;
x = 1321;
y = 798;
},
{
smooth = 0;
x = 1238;
y = 896;
},
{
segmentType = curve;
smooth = 1;
x = 1099;
y = 896;
},
{
smooth = 0;
x = 917;
y = 896;
},
{
smooth = 0;
x = 829;
y = 767;
}
);
}
);
lib = {
};
name = ae;
unicodes = (
);
width = 1541;
};
};
};
},
{
glyphname = b;
layers = (
{
anchors = (
{
name = bottom;
position = "{496, 0}";
},
{
name = top_case;
position = "{208, 1358}";
}
);
guideLines = (
{
position = "{118, 144}";
},
{
position = "{240, 50}";
}
);
layerId = "1D628CB9-BBF5-410A-9D74-9E6094BFE839";
paths = (
{
closed = 1;
nodes = (
"751 -10 OFFCURVE",
"880 126 OFFCURVE",
"880 493 CURVE SMOOTH",
"880 852 OFFCURVE",
"744 1000 OFFCURVE",
"544 1000 CURVE SMOOTH",
"451 1000 OFFCURVE",
"356 978 OFFCURVE",
"239 897 CURVE",
"272 878 LINE",
"272 1358 LINE",
"144 1358 LINE",
"144 0 LINE",
"240 0 LINE",
"273 92 LINE",
"231 66 LINE",
"317 10 OFFCURVE",
"431 -10 OFFCURVE",
"514 -10 CURVE SMOOTH"
);
},
{
closed = 1;
nodes = (
"272 854 LINE",
"235 787 LINE",
"364 867 OFFCURVE",
"453 895 OFFCURVE",
"528 895 CURVE SMOOTH",
"685 895 OFFCURVE",
"752 767 OFFCURVE",
"752 491 CURVE SMOOTH",
"752 201 OFFCURVE",
"676 95 OFFCURVE",
"496 95 CURVE SMOOTH",
"389 95 OFFCURVE",
"334 112 OFFCURVE",
"241 160 CURVE",
"272 112 LINE"
);
}
);
width = 977;
},
{
anchors = (
{
name = bottom;
position = "{654, -10}";
},
{
name = top_case;
position = "{244, 1408}";
}
);
layerId = "D42B5605-DB46-4B3B-8EA0-4CE7066523CE";
paths = (
{
closed = 1;
nodes = (
"835 -10 OFFCURVE",
"1065 74 OFFCURVE",
"1065 503 CURVE SMOOTH",
"1065 947 OFFCURVE",
"858 1030 OFFCURVE",
"664 1030 CURVE SMOOTH",
"532 1030 OFFCURVE",
"459 996 OFFCURVE",
"389 967 CURVE",
"411 931 LINE",
"411 1358 LINE",
"83 1358 LINE",
"83 0 LINE",
"377 0 LINE",
"411 103 LINE",
"378 70 LINE",
"439 38 OFFCURVE",
"533 -10 OFFCURVE",
"660 -10 CURVE SMOOTH"
);
},
{
closed = 1;
nodes = (
"411 884 LINE",
"271 590 LINE",
"424 721 OFFCURVE",
"509 745 OFFCURVE",
"577 745 CURVE SMOOTH",
"677 745 OFFCURVE",
"737 700 OFFCURVE",
"737 506 CURVE SMOOTH",
"737 337 OFFCURVE",
"683 272 OFFCURVE",
"577 272 CURVE SMOOTH",
"503 272 OFFCURVE",
"421 290 OFFCURVE",
"272 394 CURVE",
"411 242 LINE"
);
}
);
width = 1117;
}
);
leftKerningGroup = h;
leftMetricsKey = "=h";
rightKerningGroup = RoundLOWER;
rightMetricsKey = "=o";
unicode = 0062;
userData = {
com.fontlab.hintData = {
hhints = (
{
position = -10;
width = 106;
},
{
position = 895;
width = 105;
},
{
position = 1338;
width = 20;
}
);
vhints = (
{
position = 140;
width = 128;
},
{
position = 140;
width = 104;
},
{
position = 748;
width = 128;
}
);
};
};
},
{
glyphname = c;
layers = (
{
anchors = (
{
name = bottom;
position = "{421, 0}";
},
{
name = cedilla;
position = "{462, 0}";
},
{
name = top;
position = "{485, 985}";
}
);
guideLines = (
{
angle = 270;
position = "{484, 516}";
},
{
angle = 270;
position = "{748, 512}";
}
);
layerId = "1D628CB9-BBF5-410A-9D74-9E6094BFE839";
paths = (
{
closed = 1;
nodes = (
"602 -10 OFFCURVE",
"694 20 OFFCURVE",
"787 70 CURVE",
"739 161 LINE",
"655 122 OFFCURVE",
"586 95 OFFCURVE",
"513 95 CURVE SMOOTH",
"312 95 OFFCURVE",
"225 215 OFFCURVE",
"225 493 CURVE SMOOTH",
"225 732 OFFCURVE",
"279 895 OFFCURVE",
"483 895 CURVE SMOOTH",
"550 895 OFFCURVE",
"615 887 OFFCURVE",
"673 857 CURVE",
"646 914 LINE",
"646 672 LINE",
"748 682 LINE",
"748 940 LINE",
"663 980 OFFCURVE",
"576 1000 OFFCURVE",
"485 1000 CURVE SMOOTH",
"224 1000 OFFCURVE",
"97 831 OFFCURVE",
"97 495 CURVE SMOOTH",
"97 140 OFFCURVE",
"246 -10 OFFCURVE",
"499 -10 CURVE SMOOTH"
);
}
);
width = 865;
},
{
anchors = (
{
name = bottom;
position = "{446, 0}";
},
{
name = cedilla;
position = "{512, -20}";
},
{
name = top;
position = "{510, 1035}";
}
);
guideLines = (
{
angle = 270;
position = "{530, 512}";
},
{
angle = 270;
position = "{923, 512}";
}
);
layerId = "D42B5605-DB46-4B3B-8EA0-4CE7066523CE";
paths = (
{
closed = 1;
nodes = (
"670 -40 OFFCURVE",
"839 6 OFFCURVE",
"964 75 CURVE",
"848 318 LINE",
"723 263 OFFCURVE",
"648 245 OFFCURVE",
"558 245 CURVE SMOOTH",
"440 245 OFFCURVE",
"380 302 OFFCURVE",
"380 493 CURVE SMOOTH",
"380 695 OFFCURVE",
"434 745 OFFCURVE",
"541 745 CURVE SMOOTH",
"608 745 OFFCURVE",
"700 705 OFFCURVE",
"758 677 CURVE",
"641 934 LINE",
"641 572 LINE",
"923 602 LINE",
"923 940 LINE",
"828 980 OFFCURVE",
"666 1030 OFFCURVE",
"541 1030 CURVE SMOOTH",
"202 1030 OFFCURVE",
"52 886 OFFCURVE",
"52 495 CURVE SMOOTH",
"52 112 OFFCURVE",
"204 -40 OFFCURVE",
"541 -40 CURVE SMOOTH"
);
}
);
width = 999;
}
);
leftKerningGroup = RoundLOWER;
leftMetricsKey = "=o";
rightKerningGroup = c;
unicode = 0063;
},
{
glyphname = d;
layers = (
{
anchors = (
{
name = bottom;
position = "{494, 0}";
},
{
name = center;
position = "{494, 493}";
},
{
name = top_case;
position = "{795, 1358}";
},
{
name = topright;
position = "{956, 1358}";
}
);
layerId = "1D628CB9-BBF5-410A-9D74-9E6094BFE839";
paths = (
{
closed = 1;
nodes = (
"859 0 LINE",
"859 1358 LINE",
"731 1358 LINE",
"731 878 LINE",
"766 900 LINE",
"645 983 OFFCURVE",
"566 1000 OFFCURVE",
"473 1000 CURVE SMOOTH",
"273 1000 OFFCURVE",
"97 852 OFFCURVE",
"97 493 CURVE SMOOTH",
"97 126 OFFCURVE",
"266 -10 OFFCURVE",
"503 -10 CURVE SMOOTH",
"587 -10 OFFCURVE",
"683 10 OFFCURVE",
"774 67 CURVE",
"738 86 LINE",
"755 0 LINE"
);
},
{
closed = 1;
nodes = (
"341 95 OFFCURVE",
"225 186 OFFCURVE",
"225 491 CURVE SMOOTH",
"225 767 OFFCURVE",
"343 895 OFFCURVE",
"489 895 CURVE SMOOTH",
"565 895 OFFCURVE",
"637 878 OFFCURVE",
"771 786 CURVE",
"731 854 LINE",
"731 102 LINE",
"765 161 LINE",
"667 112 OFFCURVE",
"621 95 OFFCURVE",
"521 95 CURVE SMOOTH"
);
}
);
width = 1003;
},
{
anchors = (
{
name = bottom;
position = "{589, -50}";
},
{
name = center;
position = "{559, 493}";
},
{
name = top_case;
position = "{870, 1408}";
},
{
name = topright;
position = "{1131, 1358}";
}
);
guideLines = (
{
angle = -72.5632;
position = "{461, 0}";
},
{
position = "{-26, 262}";
},
{
position = "{491, 669}";
},
{
position = "{-34, 51}";
}
);
layerId = "D42B5605-DB46-4B3B-8EA0-4CE7066523CE";
paths = (
{
closed = 1;
nodes = (
"1034 0 LINE",
"1034 1358 LINE",
"706 1358 LINE",
"706 931 LINE",
"728 967 LINE",
"658 996 OFFCURVE",
"585 1030 OFFCURVE",
"453 1030 CURVE SMOOTH",
"259 1030 OFFCURVE",
"52 947 OFFCURVE",
"52 503 CURVE SMOOTH",
"52 74 OFFCURVE",
"282 -10 OFFCURVE",
"457 -10 CURVE SMOOTH",
"584 -10 OFFCURVE",
"677 32 OFFCURVE",
"738 65 CURVE",
"703 97 LINE",
"740 0 LINE"
);
},
{
closed = 1;
nodes = (
"440 272 OFFCURVE",
"380 337 OFFCURVE",
"380 506 CURVE SMOOTH",
"380 699 OFFCURVE",
"438 745 OFFCURVE",
"538 745 CURVE SMOOTH",
"606 745 OFFCURVE",
"693 721 OFFCURVE",
"846 590 CURVE",
"706 884 LINE",
"706 142 LINE",
"845 394 LINE",
"696 290 OFFCURVE",
"612 272 OFFCURVE",
"538 272 CURVE SMOOTH"
);
}
);
width = 1117;
}
);
leftKerningGroup = RoundLOWER;
leftMetricsKey = "=o";
rightKerningGroup = d;
unicode = 0064;
},
{
glyphname = eth;
layers = (
{
guideLines = (
{
angle = 229.7501;
position = "{544, 1210}";
},
{
angle = 138.8785;
position = "{416, 994}";
}
);
layerId = "1D628CB9-BBF5-410A-9D74-9E6094BFE839";
paths = (
{
closed = 1;
nodes = (
"761 -10 OFFCURVE",
"883 183 OFFCURVE",
"883 544 CURVE SMOOTH",
"883 1043 OFFCURVE",
"746 1273 OFFCURVE",
"249 1351 CURVE",
"228 1245 LINE",
"600 1177 OFFCURVE",
"771 1024 OFFCURVE",
"765 647 CURVE",
"781 689 LINE",
"723 784 OFFCURVE",
"610 844 OFFCURVE",
"479 844 CURVE SMOOTH",
"276 844 OFFCURVE",
"92 711 OFFCURVE",
"92 414 CURVE SMOOTH",
"92 121 OFFCURVE",
"257 -10 OFFCURVE",
"489 -10 CURVE SMOOTH"
);
},
{
closed = 1;
nodes = (
"326 95 OFFCURVE",
"220 180 OFFCURVE",
"220 415 CURVE SMOOTH",
"220 641 OFFCURVE",
"330 739 OFFCURVE",
"473 739 CURVE SMOOTH",
"587 739 OFFCURVE",
"755 680 OFFCURVE",
"755 450 CURVE SMOOTH",
"755 203 OFFCURVE",
"659 95 OFFCURVE",
"494 95 CURVE SMOOTH"
);
},
{
closed = 1;
nodes = (
"768 1345 LINE",
"704 1399 LINE",
"384 1021 LINE",
"447 966 LINE"
);
}
);
width = 1001;
},
{
guideLines = (
{
angle = 229.7501;
position = "{544, 1210}";
}
);
layerId = "D42B5605-DB46-4B3B-8EA0-4CE7066523CE";
paths = (
{
closed = 1;
nodes = (
"828 -40 OFFCURVE",
"1007 143 OFFCURVE",
"1007 554 CURVE SMOOTH",
"1007 1083 OFFCURVE",
"772 1297 OFFCURVE",
"333 1381 CURVE",
"263 1118 LINE",
"490 1061 OFFCURVE",
"692 1002 OFFCURVE",
"724 703 CURVE",
"737 724 LINE",
"680 789 OFFCURVE",
"563 834 OFFCURVE",
"453 834 CURVE SMOOTH",
"250 834 OFFCURVE",
"56 711 OFFCURVE",
"56 394 CURVE SMOOTH",
"56 71 OFFCURVE",
"281 -40 OFFCURVE",
"523 -40 CURVE SMOOTH"
);
},
{
closed = 1;
nodes = (
"446 225 OFFCURVE",
"384 276 OFFCURVE",
"384 400 CURVE SMOOTH",
"384 514 OFFCURVE",
"439 569 OFFCURVE",
"522 569 CURVE SMOOTH",
"610 569 OFFCURVE",
"676 514 OFFCURVE",
"676 399 CURVE SMOOTH",
"676 261 OFFCURVE",
"612 225 OFFCURVE",
"524 225 CURVE SMOOTH"
);
},
{
closed = 1;
nodes = (
"850 1345 LINE",
"749 1427 LINE",
"354 961 LINE",
"453 874 LINE"
);
}
);
width = 1080;
}
);
leftKerningGroup = RoundLOWER;
unicode = 00F0;
},
{
glyphname = dcroat;
layers = (
{
layerId = "1D628CB9-BBF5-410A-9D74-9E6094BFE839";
paths = (
{
closed = 1;
nodes = (
"593 -10 OFFCURVE",
"678 6 OFFCURVE",
"760 50 CURVE",
"770 0 LINE",
"874 0 LINE",
"874 1107 LINE",
"1014 1107 LINE",
"1014 1195 LINE",
"874 1195 LINE",
"874 1358 LINE",
"746 1358 LINE",
"746 1195 LINE",
"534 1195 LINE",
"534 1107 LINE",
"746 1107 LINE",
"746 923 LINE",
"644 986 OFFCURVE",
"572 1000 OFFCURVE",
"488 1000 CURVE SMOOTH",
"288 1000 OFFCURVE",
"112 852 OFFCURVE",
"112 493 CURVE SMOOTH",
"112 126 OFFCURVE",
"281 -10 OFFCURVE",
"518 -10 CURVE SMOOTH"
);
},
{
closed = 1;
nodes = (
"356 96 OFFCURVE",
"240 206 OFFCURVE",
"240 491 CURVE SMOOTH",
"240 767 OFFCURVE",
"347 895 OFFCURVE",
"504 895 CURVE SMOOTH",
"572 895 OFFCURVE",
"637 872 OFFCURVE",
"746 809 CURVE",
"746 137 LINE",
"670 102 OFFCURVE",
"634 96 OFFCURVE",
"536 96 CURVE SMOOTH"
);
}
);
width = 1018;
},
{
layerId = "D42B5605-DB46-4B3B-8EA0-4CE7066523CE";
paths = (
{
closed = 1;
nodes = (
"575 -10 OFFCURVE",
"662 24 OFFCURVE",
"723 55 CURVE",
"744 0 LINE",
"1038 0 LINE",
"1038 1100 LINE",
"1158 1100 LINE",
"1158 1255 LINE",
"1038 1255 LINE",
"1038 1358 LINE",
"710 1358 LINE",
"710 1255 LINE",
"510 1255 LINE",
"510 1100 LINE",
"710 1100 LINE",
"710 976 LINE",
"646 1003 OFFCURVE",
"575 1030 OFFCURVE",
"457 1030 CURVE SMOOTH",
"263 1030 OFFCURVE",
"56 947 OFFCURVE",
"56 503 CURVE SMOOTH",
"56 74 OFFCURVE",
"286 -10 OFFCURVE",
"461 -10 CURVE SMOOTH"
);
},
{
closed = 1;
nodes = (
"444 272 OFFCURVE",
"384 337 OFFCURVE",
"384 506 CURVE SMOOTH",
"384 699 OFFCURVE",
"442 745 OFFCURVE",
"542 745 CURVE SMOOTH",
"586 745 OFFCURVE",
"638 735 OFFCURVE",
"710 693 CURVE",
"710 312 LINE",
"640 279 OFFCURVE",
"589 272 OFFCURVE",
"542 272 CURVE SMOOTH"
);
}
);
width = 1257;
}
);
leftKerningGroup = RoundLOWER;
rightKerningGroup = d;
unicode = 0111;
},
{
glyphname = e;
layers = (
{
anchors = (
{
name = bottom;
position = "{492, 0}";
},
{
name = cedilla;
position = "{480, 0}";
},
{
name = ogonek;
position = "{756, 60}";
},
{
name = top;
position = "{496, 985}";
}
);
guideLines = (
{
position = "{697, -113}";
}
);
layerId = "1D628CB9-BBF5-410A-9D74-9E6094BFE839";
paths = (
{
closed = 1;
nodes = (
"626 -10 OFFCURVE",
"747 23 OFFCURVE",
"843 80 CURVE",
"789 169 LINE",
"712 122 OFFCURVE",
"624 95 OFFCURVE",
"514 95 CURVE SMOOTH",
"357 95 OFFCURVE",
"214 169 OFFCURVE",
"226 523 CURVE",
"180 469 LINE",
"843 469 LINE",
"848 528 OFFCURVE",
"851 574 OFFCURVE",
"851 604 CURVE SMOOTH",
"851 841 OFFCURVE",
"718 1000 OFFCURVE",
"496 1000 CURVE SMOOTH",
"263 1000 OFFCURVE",
"97 843 OFFCURVE",
"97 496 CURVE SMOOTH",
"97 134 OFFCURVE",
"264 -10 OFFCURVE",
"521 -10 CURVE SMOOTH"
);
},
{
closed = 1;
nodes = (
"213 750 OFFCURVE",
"313 895 OFFCURVE",
"497 895 CURVE SMOOTH",
"657 895 OFFCURVE",
"742 767 OFFCURVE",
"731 570 CURVE",
"731 514 LINE",
"777 559 LINE",
"180 559 LINE",
"226 520 LINE"
);
}
);
width = 947;
},
{
anchors = (
{
name = bottom;
position = "{527, -50}";
},
{
name = cedilla;
position = "{526, -21}";
},
{
name = ogonek;
position = "{865, 71}";
},
{
name = top;
position = "{526, 1055}";
}
);
guideLines = (
{
angle = -58.7439;
position = "{586, 28}";
},
{
position = "{882, -148}";
}
);
layerId = "D42B5605-DB46-4B3B-8EA0-4CE7066523CE";
paths = (
{
closed = 1;
nodes = (
"726 -40 OFFCURVE",
"870 3 OFFCURVE",
"986 66 CURVE",
"878 275 LINE",
"745 217 OFFCURVE",
"641 208 OFFCURVE",
"591 208 CURVE SMOOTH",
"487 208 OFFCURVE",
"359 250 OFFCURVE",
"380 460 CURVE",
"265 386 LINE",
"962 386 LINE",
"971 446 OFFCURVE",
"972 535 OFFCURVE",
"972 570 CURVE SMOOTH",
"972 879 OFFCURVE",
"788 1030 OFFCURVE",
"536 1030 CURVE SMOOTH",
"284 1030 OFFCURVE",
"52 907 OFFCURVE",
"52 496 CURVE SMOOTH",
"52 96 OFFCURVE",
"296 -40 OFFCURVE",
"556 -40 CURVE SMOOTH"
);
},
{
closed = 1;
nodes = (
"362 744 OFFCURVE",
"437 785 OFFCURVE",
"524 785 CURVE SMOOTH",
"606 785 OFFCURVE",
"668 730 OFFCURVE",
"653 555 CURVE",
"654 431 LINE",
"742 586 LINE",
"265 586 LINE",
"380 507 LINE"
);
}
);
width = 1038;
}
);
leftKerningGroup = RoundLOWER;
leftMetricsKey = "=o";
rightKerningGroup = RoundLOWER;
unicode = 0065;
userData = {
com.fontlab.hintData = {
hhints = (
{
position = -10;
width = 106;
},
{
position = 469;
width = 90;
},
{
position = 895;
width = 105;
}
);
vhints = (
{
position = 108;
width = 128;
},
{
position = 743;
width = 119;
}
);
};
};
},
{
glyphname = f;
layers = (
{
anchors = (
{
name = bottom;
position = "{313, 0}";
},
{
name = top_case;
position = "{453, 1358}";
}
);
layerId = "1D628CB9-BBF5-410A-9D74-9E6094BFE839";
paths = (
{
closed = 1;
nodes = (
"352 0 LINE",
"352 932 LINE",
"307 885 LINE",
"586 885 LINE",
"586 985 LINE",
"307 985 LINE",
"353 921 LINE",
"346 1224 OFFCURVE",
"386 1269 OFFCURVE",
"511 1269 CURVE SMOOTH",
"549 1269 OFFCURVE",
"630 1254 OFFCURVE",
"652 1248 CURVE",
"668 1348 LINE",
"601 1368 OFFCURVE",
"539 1374 OFFCURVE",
"483 1374 CURVE SMOOTH",
"273 1374 OFFCURVE",
"220 1238 OFFCURVE",
"224 937 CURVE",
"269 985 LINE",
"57 985 LINE",
"57 885 LINE",
"269 885 LINE",
"224 932 LINE",
"224 0 LINE"
);
}
);
width = 648;
},
{
anchors = (
{
name = bottom;
position = "{359, 0}";
},
{
name = top_case;
position = "{532, 1408}";
}
);
guideLines = (
{
position = "{834, 715}";
}
);
layerId = "D42B5605-DB46-4B3B-8EA0-4CE7066523CE";
paths = (
{
closed = 1;
nodes = (
"528 0 LINE",
"528 817 LINE",
"383 690 LINE",
"782 690 LINE",
"782 985 LINE",
"383 985 LINE",
"529 928 LINE",
"509 1125 OFFCURVE",
"572 1133 OFFCURVE",
"660 1133 CURVE SMOOTH",
"704 1133 OFFCURVE",
"790 1118 OFFCURVE",
"845 1107 CURVE",
"883 1374 LINE",
"815 1390 OFFCURVE",
"685 1411 OFFCURVE",
"619 1411 CURVE SMOOTH",
"330 1411 OFFCURVE",
"200 1303 OFFCURVE",
"200 918 CURVE",
"345 985 LINE",
"25 985 LINE",
"25 690 LINE",
"345 690 LINE",
"200 832 LINE",
"200 0 LINE"
);
}
);
width = 828;
}
);
leftKerningGroup = f;
rightKerningGroup = f;
unicode = 0066;
},
{
glyphname = g;
layers = (
{
anchors = (
{
name = bottom;
position = "{528, 0}";
},
{
name = top;
position = "{521, 985}";
}
);
guideLines = (
{
position = "{456, 1476}";
}
);
layerId = "1D628CB9-BBF5-410A-9D74-9E6094BFE839";
paths = (
{
closed = 1;
nodes = (
"851 -320 OFFCURVE",
"937 -148 OFFCURVE",
"937 -21 CURVE SMOOTH",
"937 117 OFFCURVE",
"872 185 OFFCURVE",
"654 185 CURVE SMOOTH",
"330 185 LINE SMOOTH",
"282 185 OFFCURVE",
"254 235 OFFCURVE",
"254 289 CURVE SMOOTH",
"254 345 OFFCURVE",
"303 408 OFFCURVE",
"339 436 CURVE",
"290 425 LINE",
"337 402 OFFCURVE",
"405 381 OFFCURVE",
"510 381 CURVE SMOOTH",
"725 381 OFFCURVE",
"881 472 OFFCURVE",
"881 693 CURVE SMOOTH",
"881 777 OFFCURVE",
"859 846 OFFCURVE",
"813 898 CURVE",
"758 881 LINE",
"1011 881 LINE",
"1011 982 LINE",
"724 982 LINE SMOOTH",
"645 982 OFFCURVE",
"628 1005 OFFCURVE",
"510 1005 CURVE SMOOTH",
"296 1005 OFFCURVE",
"138 914 OFFCURVE",
"138 693 CURVE SMOOTH",
"138 565 OFFCURVE",
"186 493 OFFCURVE",
"260 442 CURVE",
"271 502 LINE",
"185 416 OFFCURVE",
"140 355 OFFCURVE",
"140 289 CURVE SMOOTH",
"140 240 OFFCURVE",
"148 177 OFFCURVE",
"211 121 CURVE",
"171 98 OFFCURVE",
"100 10 OFFCURVE",
"100 -73 CURVE SMOOTH",
"100 -174 OFFCURVE",
"164 -320 OFFCURVE",
"497 -320 CURVE SMOOTH"
);
},
{
closed = 1;
nodes = (
"240 -219 OFFCURVE",
"228 -125 OFFCURVE",
"228 -59 CURVE SMOOTH",
"228 13 OFFCURVE",
"275 63 OFFCURVE",
"323 103 CURVE",
"256 84 LINE",
"660 84 LINE SMOOTH",
"787 84 OFFCURVE",
"809 38 OFFCURVE",
"809 -29 CURVE SMOOTH",
"809 -119 OFFCURVE",
"735 -219 OFFCURVE",
"503 -219 CURVE SMOOTH"
);
},
{
closed = 1;
nodes = (
"371 482 OFFCURVE",
"266 544 OFFCURVE",
"266 693 CURVE SMOOTH",
"266 842 OFFCURVE",
"371 904 OFFCURVE",
"510 904 CURVE SMOOTH",
"649 904 OFFCURVE",
"753 842 OFFCURVE",
"753 693 CURVE SMOOTH",
"753 544 OFFCURVE",
"649 482 OFFCURVE",
"510 482 CURVE SMOOTH"
);
}
);
width = 1041;
},
{
anchors = (
{
name = bottom;
position = "{583, 0}";
},
{
name = top;
position = "{576, 1035}";
}
);
guideLines = (
{
angle = 270;
position = "{73, 1035}";
},
{
angle = 270;
position = "{1084, 501}";
}
);
layerId = "D42B5605-DB46-4B3B-8EA0-4CE7066523CE";
paths = (
{
closed = 1;
nodes = (
"911 -412 OFFCURVE",
"1092 -238 OFFCURVE",
"1092 -46 CURVE SMOOTH",
"1092 134 OFFCURVE",
"969 217 OFFCURVE",
"755 217 CURVE SMOOTH",
"463 217 LINE SMOOTH",
"422 217 OFFCURVE",
"382 236 OFFCURVE",
"382 281 CURVE SMOOTH",
"382 334 OFFCURVE",
"410 351 OFFCURVE",
"503 446 CURVE",
"279 392 LINE",
"344 365 OFFCURVE",
"409 323 OFFCURVE",
"549 323 CURVE SMOOTH",
"841 323 OFFCURVE",
"987 451 OFFCURVE",
"987 687 CURVE SMOOTH",
"987 791 OFFCURVE",
"943 912 OFFCURVE",
"863 979 CURVE",
"783 748 LINE",
"1156 728 LINE",
"1156 988 LINE",
"860 988 LINE SMOOTH",
"805 988 OFFCURVE",
"744 1030 OFFCURVE",
"549 1030 CURVE SMOOTH",
"296 1030 OFFCURVE",
"100 933 OFFCURVE",
"100 687 CURVE SMOOTH",
"100 508 OFFCURVE",
"217 453 OFFCURVE",
"266 409 CURVE",
"351 578 LINE",
"198 479 OFFCURVE",
"99 393 OFFCURVE",
"99 274 CURVE SMOOTH",
"99 226 OFFCURVE",
"115 179 OFFCURVE",
"176 122 CURVE",
"108 70 OFFCURVE",
"60 -5 OFFCURVE",
"60 -106 CURVE SMOOTH",
"60 -286 OFFCURVE",
"204 -412 OFFCURVE",
"562 -412 CURVE SMOOTH"
);
},
{
closed = 1;
nodes = (
"415 -180 OFFCURVE",
"350 -152 OFFCURVE",
"350 -78 CURVE SMOOTH",
"350 -54 OFFCURVE",
"353 3 OFFCURVE",
"458 119 CURVE",
"206 -15 LINE",
"663 -15 LINE SMOOTH",
"763 -15 OFFCURVE",
"786 -36 OFFCURVE",
"786 -75 CURVE SMOOTH",
"786 -128 OFFCURVE",
"739 -178 OFFCURVE",
"557 -179 CURVE SMOOTH"
);
},
{
closed = 1;
nodes = (
"445 554 OFFCURVE",
"395 599 OFFCURVE",
"395 677 CURVE SMOOTH",
"395 751 OFFCURVE",
"445 800 OFFCURVE",
"549 800 CURVE SMOOTH",
"653 800 OFFCURVE",
"702 751 OFFCURVE",
"702 677 CURVE SMOOTH",
"702 599 OFFCURVE",
"653 552 OFFCURVE",
"549 553 CURVE SMOOTH"
);
}
);
width = 1166;
}
);
leftKerningGroup = g;
rightKerningGroup = g;
unicode = 0067;
userData = {
com.fontlab.hintData = {
hhints = (
{
position = -309;
width = 105;
},
{
position = 96;
width = 100;
},
{
position = 363;
width = 98;
},
{
position = 883;
width = 94;
},
{
position = 905;
width = 95;
}
);
vhints = (
{
position = 118;
width = 128;
},
{
position = 158;
width = 114;
},
{
position = 797;
width = 117;
},
{
position = 837;
width = 128;
}
);
};
};
},
{
glyphname = h;
layers = (
{
anchors = (
{
name = bottom;
position = "{510, 0}";
},
{
name = center;
position = "{490, 493}";
},
{
name = top_case;
position = "{208, 1358}";
}
);
layerId = "1D628CB9-BBF5-410A-9D74-9E6094BFE839";
paths = (
{
closed = 1;
nodes = (
"272 0 LINE",
"272 864 LINE",
"235 800 LINE",
"373 887 OFFCURVE",
"477 895 OFFCURVE",
"557 895 CURVE SMOOTH",
"686 895 OFFCURVE",
"733 825 OFFCURVE",
"733 669 CURVE SMOOTH",
"733 0 LINE",
"861 0 LINE",
"861 663 LINE SMOOTH",
"861 891 OFFCURVE",
"767 1000 OFFCURVE",
"564 1000 CURVE SMOOTH",
"467 1000 OFFCURVE",
"386 985 OFFCURVE",
"232 912 CURVE",
"272 870 LINE",
"272 1358 LINE",
"144 1358 LINE",
"144 0 LINE"
);
}
);
width = 993;
},
{
anchors = (
{
name = bottom;
position = "{552, -50}";
},
{
name = center;
position = "{539, 493}";
},
{
name = top_case;
position = "{247, 1359}";
}
);
guideLines = (
{
angle = 119.9358;
position = "{1587, 649}";
}
);
layerId = "D42B5605-DB46-4B3B-8EA0-4CE7066523CE";
paths = (
{
closed = 1;
nodes = (
"411 0 LINE",
"411 865 LINE",
"274 605 LINE",
"425 721 OFFCURVE",
"499 745 OFFCURVE",
"572 745 CURVE SMOOTH",
"657 745 OFFCURVE",
"692 713 OFFCURVE",
"692 563 CURVE SMOOTH",
"692 0 LINE",
"1020 0 LINE",
"1020 693 LINE SMOOTH",
"1020 926 OFFCURVE",
"863 1030 OFFCURVE",
"709 1030 CURVE SMOOTH",
"593 1030 OFFCURVE",
"456 999 OFFCURVE",
"280 877 CURVE",
"411 896 LINE",
"411 1358 LINE",
"83 1358 LINE",
"83 0 LINE"
);
}
);
width = 1094;
}
);
leftKerningGroup = h;
rightKerningGroup = StraightLOWER;
rightMetricsKey = "=n";
unicode = 0068;
},
{
glyphname = hbar;
layers = (
{
layerId = "1D628CB9-BBF5-410A-9D74-9E6094BFE839";
paths = (
{
closed = 1;
nodes = (
"291 0 LINE",
"291 800 LINE",
"421 870 OFFCURVE",
"511 895 OFFCURVE",
"582 895 CURVE SMOOTH",
"701 895 OFFCURVE",
"739 826 OFFCURVE",
"739 669 CURVE SMOOTH",
"739 0 LINE",
"867 0 LINE",
"867 663 LINE SMOOTH",
"867 900 OFFCURVE",
"776 1000 OFFCURVE",
"590 1000 CURVE SMOOTH",
"495 1000 OFFCURVE",
"398 970 OFFCURVE",
"291 911 CURVE",
"291 1100 LINE",
"503 1100 LINE",
"503 1195 LINE",
"291 1195 LINE",
"291 1358 LINE",
"163 1358 LINE",
"163 1195 LINE",
"-27 1195 LINE",
"-27 1100 LINE",
"163 1100 LINE",
"163 0 LINE"
);
}
);
width = 999;
},
{
guideLines = (
{
position = "{428, 1265}";
}
);
layerId = "D42B5605-DB46-4B3B-8EA0-4CE7066523CE";
paths = (
{
closed = 1;
nodes = (
"581 0 LINE",
"581 698 LINE",
"648 735 OFFCURVE",
"695 745 OFFCURVE",
"742 745 CURVE SMOOTH",
"827 745 OFFCURVE",
"862 713 OFFCURVE",
"862 563 CURVE SMOOTH",
"862 0 LINE",
"1190 0 LINE",
"1190 693 LINE SMOOTH",
"1190 926 OFFCURVE",
"1033 1030 OFFCURVE",
"879 1030 CURVE SMOOTH",
"793 1030 OFFCURVE",
"697 1013 OFFCURVE",
"581 955 CURVE",
"581 1100 LINE",
"721 1100 LINE",
"721 1255 LINE",
"581 1255 LINE",
"581 1358 LINE",
"253 1358 LINE",
"253 1255 LINE",
"113 1255 LINE",
"113 1100 LINE",
"253 1100 LINE",
"253 0 LINE"
);
}
);
width = 1264;
}
);
leftKerningGroup = h;
rightKerningGroup = StraightLOWER;
unicode = 0127;
},
{
glyphname = i;
layers = (
{
anchors = (
{
name = bottom;
position = "{326, 0}";
},
{
name = ogonek;
position = "{337, 0}";
}
);
guideLines = (
{
angle = 270;
position = "{70, 641}";
},
{
position = "{428, 1356}";
},
{
position = "{446, 1176}";
},
{
angle = 270;
position = "{416, 1176}";
},
{
angle = 270;
position = "{235, 1186}";
}
);
layerId = "1D628CB9-BBF5-410A-9D74-9E6094BFE839";
paths = (
{
closed = 1;
nodes = (
"582 0 LINE",
"582 90 LINE",
"345 90 LINE",
"390 45 LINE",
"390 985 LINE",
"82 985 LINE",
"82 895 LINE",
"307 895 LINE",
"262 940 LINE",
"262 45 LINE",
"307 90 LINE",
"70 90 LINE",
"70 0 LINE"
);
},
{
closed = 1;
nodes = (
"376 1176 OFFCURVE",
"415 1215 OFFCURVE",
"415 1266 CURVE SMOOTH",
"415 1317 OFFCURVE",
"376 1356 OFFCURVE",
"325 1356 CURVE SMOOTH",
"274 1356 OFFCURVE",
"235 1317 OFFCURVE",
"235 1266 CURVE SMOOTH",
"235 1215 OFFCURVE",
"274 1176 OFFCURVE",
"325 1176 CURVE SMOOTH"
);
}
);
width = 635;
},
{
anchors = (
{
name = bottom;
position = "{450, -50}";
},
{
name = ogonek;
position = "{471, 10}";
}
);
guideLines = (
{
angle = 270;
position = "{76, 514}";
},
{
position = "{296, 1106}";
},
{
position = "{108, 1487}";
},
{
angle = 270;
position = "{256, 1062}";
},
{
angle = 270;
position = "{637, 1012}";
}
);
layerId = "D42B5605-DB46-4B3B-8EA0-4CE7066523CE";
paths = (
{
closed = 1;
nodes = (
"828 0 LINE",
"828 270 LINE",
"471 270 LINE",
"616 45 LINE",
"616 985 LINE",
"88 985 LINE",
"88 715 LINE",
"433 715 LINE",
"288 940 LINE",
"288 45 LINE",
"433 270 LINE",
"76 270 LINE",
"76 0 LINE"
);
},
{
closed = 1;
nodes = (
"551 1106 OFFCURVE",
"637 1192 OFFCURVE",
"637 1298 CURVE SMOOTH",
"637 1401 OFFCURVE",
"551 1487 OFFCURVE",
"446 1487 CURVE SMOOTH",
"341 1487 OFFCURVE",
"256 1401 OFFCURVE",
"256 1298 CURVE SMOOTH",
"256 1192 OFFCURVE",
"341 1106 OFFCURVE",
"446 1106 CURVE SMOOTH"
);
}
);
width = 838;
}
);
leftKerningGroup = i;
rightKerningGroup = i;
unicode = 0069;
},
{
glyphname = idotless;
layers = (
{
anchors = (
{
name = bottom;
position = "{341, 0}";
},
{
name = ogonek;
position = "{610, 10}";
},
{
name = top;
position = "{334, 1034}";
}
);
layerId = "1D628CB9-BBF5-410A-9D74-9E6094BFE839";
paths = (
{
closed = 1;
nodes = (
"627 0 LINE",
"627 90 LINE",
"435 90 LINE",
"435 985 LINE",
"115 985 LINE",
"115 895 LINE",
"307 895 LINE",
"307 90 LINE",
"115 90 LINE",
"115 0 LINE"
);
}
);
width = 681;
},
{
anchors = (
{
name = bottom;
position = "{454, 0}";
},
{
name = ogonek;
position = "{753, 10}";
},
{
name = top;
position = "{437, 1054}";
}
);
guideLines = (
{
angle = 270;
position = "{427, 1060}";
}
);
layerId = "D42B5605-DB46-4B3B-8EA0-4CE7066523CE";
paths = (
{
closed = 1;
nodes = (
"823 0 LINE",
"823 290 LINE",
"631 290 LINE",
"631 985 LINE",
"111 985 LINE",
"111 695 LINE",
"303 695 LINE",
"303 290 LINE",
"111 290 LINE",
"111 0 LINE"
);
}
);
width = 873;
}
);
leftKerningGroup = i;
rightKerningGroup = i;
unicode = 0131;
},
{
glyphname = j;
layers = (
{
layerId = "1D628CB9-BBF5-410A-9D74-9E6094BFE839";
paths = (
{
closed = 1;
nodes = (
"342 -295 OFFCURVE",
"431 -203 OFFCURVE",
"431 18 CURVE SMOOTH",
"431 985 LINE",
"79 985 LINE",
"79 895 LINE",
"348 895 LINE",
"303 940 LINE",
"303 28 LINE SMOOTH",
"303 -123 OFFCURVE",
"279 -190 OFFCURVE",
"166 -190 CURVE SMOOTH",
"103 -190 OFFCURVE",
"63 -185 OFFCURVE",
"18 -174 CURVE",
"2 -275 LINE",
"57 -291 OFFCURVE",
"113 -295 OFFCURVE",
"170 -295 CURVE SMOOTH"
);
},
{
closed = 1;
nodes = (
"411 1176 OFFCURVE",
"450 1215 OFFCURVE",
"450 1266 CURVE SMOOTH",
"450 1317 OFFCURVE",
"411 1356 OFFCURVE",
"360 1356 CURVE SMOOTH",
"309 1356 OFFCURVE",
"270 1317 OFFCURVE",
"270 1266 CURVE SMOOTH",
"270 1215 OFFCURVE",
"309 1176 OFFCURVE",
"360 1176 CURVE SMOOTH"
);
}
);
width = 594;
},
{
guideLines = (
{
angle = 261.6663;
position = "{44, 61}";
},
{
position = "{749, 1556}";
},
{
angle = 270;
position = "{74, 552}";
}
);
layerId = "D42B5605-DB46-4B3B-8EA0-4CE7066523CE";
paths = (
{
closed = 1;
nodes = (
"409 -325 OFFCURVE",
"643 -223 OFFCURVE",
"643 98 CURVE SMOOTH",
"643 985 LINE",
"71 985 LINE",
"71 715 LINE",
"360 715 LINE",
"315 940 LINE",
"315 125 LINE SMOOTH",
"315 25 OFFCURVE",
"286 -40 OFFCURVE",
"178 -40 CURVE SMOOTH",
"147 -40 OFFCURVE",
"74 -36 OFFCURVE",
"23 -24 CURVE",
"-18 -299 LINE",
"73 -319 OFFCURVE",
"165 -325 OFFCURVE",
"232 -325 CURVE SMOOTH"
);
},
{
closed = 1;
nodes = (
"583 1108 OFFCURVE",
"669 1194 OFFCURVE",
"669 1300 CURVE SMOOTH",
"669 1403 OFFCURVE",
"583 1489 OFFCURVE",
"478 1489 CURVE SMOOTH",
"373 1489 OFFCURVE",
"288 1403 OFFCURVE",
"288 1300 CURVE SMOOTH",
"288 1194 OFFCURVE",
"373 1108 OFFCURVE",
"478 1108 CURVE SMOOTH"
);
}
);
width = 789;
}
);
leftKerningGroup = j;
rightKerningGroup = StraightLOWER;
unicode = 006A;
},
{
glyphname = jdotless;
layers = (
{
anchors = (
{
name = bottom;
position = "{273, -295}";
},
{
name = top;
position = "{314, 985}";
}
);
layerId = "1D628CB9-BBF5-410A-9D74-9E6094BFE839";
paths = (
{
closed = 1;
nodes = (
"382 -295 OFFCURVE",
"471 -203 OFFCURVE",
"471 18 CURVE SMOOTH",
"471 985 LINE",
"119 985 LINE",
"119 895 LINE",
"388 895 LINE",
"343 940 LINE",
"343 28 LINE SMOOTH",
"343 -123 OFFCURVE",
"319 -182 OFFCURVE",
"206 -182 CURVE SMOOTH",
"143 -182 OFFCURVE",
"103 -177 OFFCURVE",
"58 -166 CURVE",
"42 -275 LINE",
"97 -291 OFFCURVE",
"153 -295 OFFCURVE",
"210 -295 CURVE SMOOTH"
);
}
);
width = 628;
},
{
anchors = (
{
name = bottom;
position = "{269, -371}";
},
{
name = top;
position = "{310, 1036}";
}
);
guideLines = (
{
position = "{1015, -62}";
}
);
layerId = "D42B5605-DB46-4B3B-8EA0-4CE7066523CE";
paths = (
{
closed = 1;
nodes = (
"423 -391 OFFCURVE",
"567 -188 OFFCURVE",
"567 33 CURVE SMOOTH",
"567 985 LINE",
"15 985 LINE",
"15 695 LINE",
"384 695 LINE",
"239 940 LINE",
"239 132 LINE SMOOTH",
"239 -19 OFFCURVE",
"215 -78 OFFCURVE",
"102 -78 CURVE SMOOTH",
"39 -78 OFFCURVE",
"-1 -73 OFFCURVE",
"-46 -62 CURVE",
"-62 -371 LINE",
"-7 -387 OFFCURVE",
"73 -391 OFFCURVE",
"130 -391 CURVE SMOOTH"
);
}
);
width = 600;
}
);
leftKerningGroup = j;
rightKerningGroup = StraightLOWER;
unicode = 0237;
},
{
glyphname = k;
layers = (
{
anchors = (
{
name = bottom;
position = "{503, 0}";
},
{
name = top;
position = "{473, 985}";
}
);
guideLines = (
{
angle = 270;
position = "{855, 543}";
},
{
angle = 170.3948;
position = "{668, 1004}";
},
{
position = "{334, 971}";
},
{
position = "{334, 991}";
},
{
angle = 189.6052;
position = "{693, -19}";
},
{
position = "{334, 14}";
},
{
position = "{334, -6}";
}
);
layerId = "1D628CB9-BBF5-410A-9D74-9E6094BFE839";
paths = (
{
closed = 1;
nodes = (
"272 0 LINE",
"272 422 LINE",
"238 347 LINE",
"397 488 LINE",
"345 480 LINE",
"473 321 OFFCURVE",
"615 154 OFFCURVE",
"771 -6 CURVE",
"904 17 LINE",
"732 197 OFFCURVE",
"592 359 OFFCURVE",
"439 548 CURVE",
"430 489 LINE",
"864 971 LINE",
"728 991 LINE",
"382 599 LINE",
"259 480 LINE",
"272 449 LINE",
"272 1358 LINE",
"144 1358 LINE",
"144 0 LINE"
);
}
);
width = 931;
},
{
anchors = (
{
name = bottom;
position = "{572, -50}";
},
{
name = top;
position = "{542, 985}";
}
);
guideLines = (
{
angle = 230.6224;
position = "{515, 824}";
},
{
angle = 270;
position = "{1110, 573}";
}
);
layerId = "D42B5605-DB46-4B3B-8EA0-4CE7066523CE";
paths = (
{
closed = 1;
nodes = (
"411 0 LINE",
"411 427 LINE",
"277 217 LINE",
"546 388 LINE",
"448 403 LINE",
"566 244 OFFCURVE",
"651 132 OFFCURVE",
"792 -39 CURVE",
"1110 98 LINE",
"944 287 OFFCURVE",
"795 473 OFFCURVE",
"672 636 CURVE",
"660 431 LINE",
"1081 922 LINE",
"765 1027 LINE",
"493 676 LINE",
"308 530 LINE",
"411 544 LINE",
"411 1358 LINE",
"83 1358 LINE",
"83 0 LINE"
);
}
);
width = 1115;
}
);
leftKerningGroup = h;
leftMetricsKey = "=h";
rightKerningGroup = k;
unicode = 006B;
userData = {
com.fontlab.hintData = {
hhints = (
{
position = 0;
width = 21;
},
{
position = 965;
width = 20;
},
{
position = 1338;
width = 20;
}
);
vhints = (
{
position = 140;
width = 128;
}
);
};
};
},
{
glyphname = kgreenlandic;
layers = (
{
guideLines = (
{
angle = 170.3948;
position = "{658, 1004}";
},
{
position = "{334, 971}";
},
{
position = "{334, 991}";
},
{
angle = 189.6052;
position = "{693, -19}";
},
{
position = "{334, 14}";
},
{
position = "{334, -6}";
}
);
layerId = "1D628CB9-BBF5-410A-9D74-9E6094BFE839";
paths = (
{
closed = 1;
nodes = (
"909 18 LINE",
"473 609 LINE",
"473 542 LINE",
"858 970 LINE",
"733 991 LINE",
"392 612 LINE",
"240 469 LINE",
"272 456 LINE",
"272 985 LINE",
"144 985 LINE",
"144 0 LINE",
"272 0 LINE",
"272 419 LINE",
"238 344 LINE",
"447 535 LINE",
"383 538 LINE",
"771 -6 LINE"
);
}
);
width = 1000;
},
{
layerId = "D42B5605-DB46-4B3B-8EA0-4CE7066523CE";
paths = (
{
closed = 1;
nodes = (
"1093 82 LINE",
"734 559 LINE",
"735 491 LINE",
"1041 900 LINE",
"714 1007 LINE",
"472 681 LINE",
"379 589 LINE",
"411 576 LINE",
"411 985 LINE",
"83 985 LINE",
"83 0 LINE",
"411 0 LINE",
"411 348 LINE",
"374 268 LINE",
"537 364 LINE",
"471 374 LINE",
"734 -25 LINE"
);
}
);
width = 1098;
}
);
leftKerningGroup = StraightLOWER;
rightKerningGroup = k;
unicode = 0138;
},
{
glyphname = l;
layers = (
{
anchors = (
{
name = bottom;
position = "{335, 0}";
},
{
name = center;
position = "{746, 714}";
},
{
name = top_case;
position = "{335, 1358}";
},
{
name = topright;
position = "{518, 1358}";
}
);
guideLines = (
{
angle = 270;
position = "{48, 514}";
}
);
layerId = "1D628CB9-BBF5-410A-9D74-9E6094BFE839";
paths = (
{
closed = 1;
nodes = (
"610 0 LINE",
"610 90 LINE",
"354 90 LINE",
"399 45 LINE",
"399 1358 LINE",
"60 1358 LINE",
"60 1267 LINE",
"316 1267 LINE",
"271 1312 LINE",
"271 45 LINE",
"316 90 LINE",
"48 90 LINE",
"48 0 LINE"
);
}
);
width = 640;
},
{
anchors = (
{
name = bottom;
position = "{462, -50}";
},
{
name = center;
position = "{728, 714}";
},
{
name = top_case;
position = "{462, 1358}";
},
{
name = topright;
position = "{725, 1358}";
}
);
layerId = "D42B5605-DB46-4B3B-8EA0-4CE7066523CE";
paths = (
{
closed = 1;
nodes = (
"847 0 LINE",
"847 270 LINE",
"481 270 LINE",
"626 45 LINE",
"626 1358 LINE",
"98 1358 LINE",
"98 1088 LINE",
"443 1088 LINE",
"298 1312 LINE",
"298 45 LINE",
"443 270 LINE",
"65 270 LINE",
"65 0 LINE"
);
}
);
width = 882;
}
);
leftKerningGroup = l;
rightKerningGroup = l;
unicode = 006C;
},
{
glyphname = lslash;
layers = (
{
layerId = "1D628CB9-BBF5-410A-9D74-9E6094BFE839";
paths = (
{
closed = 1;
nodes = (
"620 0 LINE",
"620 90 LINE",
"409 90 LINE",
"409 1358 LINE",
"60 1358 LINE",
"60 1267 LINE",
"281 1267 LINE",
"281 90 LINE",
"58 90 LINE",
"58 0 LINE"
);
},
{
closed = 1;
nodes = (
"688 923 LINE",
"630 1000 LINE",
"-15 498 LINE",
"43 420 LINE"
);
}
);
width = 660;
},
{
layerId = "D42B5605-DB46-4B3B-8EA0-4CE7066523CE";
paths = (
{
closed = 1;
nodes = (
"906 0 LINE",
"906 290 LINE",
"695 290 LINE",
"695 1358 LINE",
"146 1358 LINE",
"146 1067 LINE",
"367 1067 LINE",
"367 290 LINE",
"144 290 LINE",
"144 0 LINE"
);
},
{
closed = 1;
nodes = (
"980 1014 LINE",
"880 1141 LINE",
"128 547 LINE",
"228 419 LINE"
);
}
);
width = 1037;
}
);
leftKerningGroup = l;
rightKerningGroup = l;
unicode = 0142;
},
{
glyphname = m;
layers = (
{
anchors = (
{
name = bottom;
position = "{775, 0}";
},
{
name = top;
position = "{765, 985}";
}
);
layerId = "1D628CB9-BBF5-410A-9D74-9E6094BFE839";
paths = (
{
closed = 1;
nodes = (
"272 0 LINE",
"272 868 LINE",
"248 809 LINE",
"329 861 OFFCURVE",
"452 895 OFFCURVE",
"547 895 CURVE SMOOTH",
"672 895 OFFCURVE",
"705 826 OFFCURVE",
"705 668 CURVE SMOOTH",
"705 0 LINE",
"833 0 LINE",
"833 664 LINE SMOOTH",
"833 740 OFFCURVE",
"814 894 OFFCURVE",
"816 867 CURVE",
"791 808 LINE",
"891 890 OFFCURVE",
"1034 895 OFFCURVE",
"1088 895 CURVE SMOOTH",
"1196 895 OFFCURVE",
"1249 827 OFFCURVE",
"1249 672 CURVE SMOOTH",
"1249 0 LINE",
"1377 0 LINE",
"1377 671 LINE SMOOTH",
"1377 894 OFFCURVE",
"1276 1000 OFFCURVE",
"1084 1000 CURVE SMOOTH",
"1003 1000 OFFCURVE",
"893 982 OFFCURVE",
"774 918 CURVE",
"734 978 OFFCURVE",
"651 1000 OFFCURVE",
"564 1000 CURVE SMOOTH",
"478 1000 OFFCURVE",
"359 977 OFFCURVE",
"258 921 CURVE",
"240 985 LINE",
"144 985 LINE",
"144 0 LINE"
);
}
);
width = 1509;
},
{
anchors = (
{
name = bottom;
position = "{844, 0}";
},
{
name = top;
position = "{867, 1035}";
}
);
guideLines = (
{
position = "{1067, 715}";
},
{
position = "{807, 550}";
}
);
layerId = "D42B5605-DB46-4B3B-8EA0-4CE7066523CE";
paths = (
{
closed = 1;
nodes = (
"411 0 LINE",
"411 898 LINE",
"287 594 LINE",
"378 666 OFFCURVE",
"437 745 OFFCURVE",
"569 745 CURVE SMOOTH",
"653 745 OFFCURVE",
"678 693 OFFCURVE",
"678 550 CURVE SMOOTH",
"677 0 LINE",
"1005 0 LINE",
"1005 598 LINE SMOOTH",
"1005 761 OFFCURVE",
"976 829 OFFCURVE",
"947 878 CURVE",
"863 593 LINE",
"966 677 OFFCURVE",
"1039 745 OFFCURVE",
"1143 745 CURVE SMOOTH",
"1237 745 OFFCURVE",
"1262 691 OFFCURVE",
"1262 550 CURVE SMOOTH",
"1261 0 LINE",
"1589 0 LINE",
"1589 671 LINE SMOOTH",
"1589 914 OFFCURVE",
"1439 1030 OFFCURVE",
"1236 1030 CURVE SMOOTH",
"1155 1030 OFFCURVE",
"1027 1010 OFFCURVE",
"902 943 CURVE",
"833 1004 OFFCURVE",
"774 1030 OFFCURVE",
"667 1030 CURVE SMOOTH",
"581 1030 OFFCURVE",
"487 1000 OFFCURVE",
"407 936 CURVE",
"379 985 LINE",
"83 985 LINE",
"83 0 LINE"
);
}
);
width = 1663;
}
);
leftKerningGroup = StraightLOWER;
leftMetricsKey = "=n";
rightKerningGroup = StraightLOWER;
rightMetricsKey = "=n";
unicode = 006D;
},
{
glyphname = n;
layers = (
{
anchors = (
{
name = bottom;
position = "{503, 0}";
},
{
name = top;
position = "{497, 985}";
}
);
layerId = "1D628CB9-BBF5-410A-9D74-9E6094BFE839";
paths = (
{
closed = 1;
nodes = (
"272 0 LINE",
"272 867 LINE",
"235 800 LINE",
"373 887 OFFCURVE",
"476 895 OFFCURVE",
"557 895 CURVE SMOOTH",
"686 895 OFFCURVE",
"733 827 OFFCURVE",
"733 668 CURVE SMOOTH",
"733 0 LINE",
"861 0 LINE",
"861 663 LINE SMOOTH",
"861 891 OFFCURVE",
"767 1000 OFFCURVE",
"564 1000 CURVE SMOOTH",
"467 1000 OFFCURVE",
"393 985 OFFCURVE",
"258 921 CURVE",
"240 985 LINE",
"144 985 LINE",
"144 0 LINE"
);
}
);
width = 993;
},
{
anchors = (
{
name = bottom;
position = "{551, -50}";
},
{
name = top;
position = "{560, 1035}";
}
);
guideLines = (
{
angle = 270;
position = "{411, 958}";
}
);
layerId = "D42B5605-DB46-4B3B-8EA0-4CE7066523CE";
paths = (
{
closed = 1;
nodes = (
"411 0 LINE",
"411 865 LINE",
"274 605 LINE",
"425 721 OFFCURVE",
"499 745 OFFCURVE",
"573 745 CURVE SMOOTH",
"662 745 OFFCURVE",
"692 713 OFFCURVE",
"692 563 CURVE SMOOTH",
"692 0 LINE",
"1020 0 LINE",
"1020 693 LINE SMOOTH",
"1020 926 OFFCURVE",
"863 1030 OFFCURVE",
"689 1030 CURVE SMOOTH",
"582 1030 OFFCURVE",
"508 1005 OFFCURVE",
"397 941 CURVE",
"369 985 LINE",
"83 985 LINE",
"83 0 LINE"
);
}
);
width = 1094;
}
);
leftKerningGroup = StraightLOWER;
rightKerningGroup = StraightLOWER;
unicode = 006E;
userData = {
com.fontlab.hintData = {
hhints = (
{
position = 0;
width = 21;
},
{
position = 895;
width = 105;
},
{
position = 965;
width = 20;
}
);
vhints = (
{
position = 140;
width = 128;
},
{
position = 140;
width = 105;
},
{
position = 729;
width = 128;
}
);
};
};
},
{
glyphname = eng;
layers = (
{
anchors = (
{
name = bottom;
position = "{481, -50}";
},
{
name = top;
position = "{510, 1035}";
}
);
guideLines = (
{
position = "{547, -298}";
}
);
layerId = "1D628CB9-BBF5-410A-9D74-9E6094BFE839";
paths = (
{
closed = 1;
nodes = (
"460 1000 OFFCURVE",
"386 985 OFFCURVE",
"251 921 CURVE",
"233 985 LINE",
"137 985 LINE",
"137 0 LINE",
"265 0 LINE",
"265 822 LINE",
"385 888 OFFCURVE",
"476 895 OFFCURVE",
"550 895 CURVE SMOOTH",
"679 895 OFFCURVE",
"726 827 OFFCURVE",
"726 668 CURVE SMOOTH",
"726 -12 LINE SMOOTH",
"726 -113 OFFCURVE",
"684 -193 OFFCURVE",
"561 -193 CURVE SMOOTH",
"498 -193 OFFCURVE",
"468 -188 OFFCURVE",
"423 -177 CURVE",
"407 -278 LINE",
"462 -294 OFFCURVE",
"508 -298 OFFCURVE",
"565 -298 CURVE SMOOTH",
"747 -298 OFFCURVE",
"854 -192 OFFCURVE",
"854 38 CURVE SMOOTH",
"854 663 LINE SMOOTH",
"854 891 OFFCURVE",
"760 1000 OFFCURVE",
"557 1000 CURVE SMOOTH"
);
}
);
width = 986;
},
{
anchors = (
{
name = bottom;
position = "{551, -50}";
},
{
name = top;
position = "{580, 1035}";
}
);
layerId = "D42B5605-DB46-4B3B-8EA0-4CE7066523CE";
paths = (
{
closed = 1;
nodes = (
"602 1030 OFFCURVE",
"518 1015 OFFCURVE",
"397 951 CURVE",
"369 1015 LINE",
"83 1015 LINE",
"83 0 LINE",
"411 0 LINE",
"411 698 LINE",
"478 735 OFFCURVE",
"526 745 OFFCURVE",
"573 745 CURVE SMOOTH",
"662 745 OFFCURVE",
"692 713 OFFCURVE",
"692 563 CURVE SMOOTH",
"692 52 LINE SMOOTH",
"692 -47 OFFCURVE",
"683 -125 OFFCURVE",
"565 -125 CURVE SMOOTH",
"534 -125 OFFCURVE",
"471 -121 OFFCURVE",
"420 -111 CURVE",
"379 -386 LINE",
"470 -404 OFFCURVE",
"532 -410 OFFCURVE",
"599 -410 CURVE SMOOTH",
"816 -410 OFFCURVE",
"1020 -276 OFFCURVE",
"1020 22 CURVE SMOOTH",
"1020 693 LINE SMOOTH",
"1020 926 OFFCURVE",
"863 1030 OFFCURVE",
"709 1030 CURVE SMOOTH"
);
}
);
width = 1094;
}
);
leftKerningGroup = StraightLOWER;
rightKerningGroup = StraightLOWER;
unicode = 014B;
},
{
glyphname = o;
layers = (
{
anchors = (
{
name = bottom;
position = "{481, 0}";
},
{
name = center;
position = "{481, 493}";
},
{
name = ogonek;
position = "{614, 30}";
},
{
name = top;
position = "{480, 985}";
},
{
name = topright;
position = "{775, 664}";
}
);
layerId = "1D628CB9-BBF5-410A-9D74-9E6094BFE839";
paths = (
{
closed = 1;
nodes = (
"750 -10 OFFCURVE",
"865 164 OFFCURVE",
"865 495 CURVE SMOOTH",
"865 826 OFFCURVE",
"750 1000 OFFCURVE",
"481 1000 CURVE SMOOTH",
"212 1000 OFFCURVE",
"97 826 OFFCURVE",
"97 495 CURVE SMOOTH",
"97 164 OFFCURVE",
"212 -10 OFFCURVE",
"481 -10 CURVE SMOOTH"
);
},
{
closed = 1;
nodes = (
"284 95 OFFCURVE",
"225 247 OFFCURVE",
"225 495 CURVE SMOOTH",
"225 743 OFFCURVE",
"284 895 OFFCURVE",
"481 895 CURVE SMOOTH",
"678 895 OFFCURVE",
"737 743 OFFCURVE",
"737 495 CURVE SMOOTH",
"737 247 OFFCURVE",
"678 95 OFFCURVE",
"481 95 CURVE SMOOTH"
);
}
);
width = 962;
},
{
anchors = (
{
name = bottom;
position = "{531, -50}";
},
{
name = center;
position = "{531, 493}";
},
{
name = ogonek;
position = "{684, 30}";
},
{
name = top;
position = "{531, 1055}";
},
{
name = topright;
position = "{1015, 574}";
}
);
guideLines = (
{
angle = 270;
position = "{531, 558}";
}
);
layerId = "D42B5605-DB46-4B3B-8EA0-4CE7066523CE";
paths = (
{
closed = 1;
nodes = (
"840 -40 OFFCURVE",
"1010 104 OFFCURVE",
"1010 495 CURVE SMOOTH",
"1010 886 OFFCURVE",
"840 1030 OFFCURVE",
"531 1030 CURVE SMOOTH",
"222 1030 OFFCURVE",
"52 886 OFFCURVE",
"52 495 CURVE SMOOTH",
"52 104 OFFCURVE",
"222 -40 OFFCURVE",
"531 -40 CURVE SMOOTH"
);
},
{
closed = 1;
nodes = (
"431 230 OFFCURVE",
"380 282 OFFCURVE",
"380 495 CURVE SMOOTH",
"380 708 OFFCURVE",
"434 760 OFFCURVE",
"531 760 CURVE SMOOTH",
"628 760 OFFCURVE",
"682 708 OFFCURVE",
"682 495 CURVE SMOOTH",
"682 282 OFFCURVE",
"631 230 OFFCURVE",
"531 230 CURVE SMOOTH"
);
}
);
width = 1062;
}
);
leftKerningGroup = RoundLOWER;
rightKerningGroup = RoundLOWER;
unicode = 006F;
userData = {
com.fontlab.hintData = {
hhints = (
{
position = -10;
width = 106;
},
{
position = 895;
width = 105;
}
);
vhints = (
{
position = 108;
width = 128;
},
{
position = 748;
width = 128;
}
);
};
};
},
{
glyphname = ohorn;
layers = (
{
anchors = (
{
name = _topright;
position = "{790, 664}";
},
{
name = bottom;
position = "{506, 0}";
},
{
name = center;
position = "{506, 493}";
},
{
name = ogonek;
position = "{639, 30}";
},
{
name = top;
position = "{506, 985}";
},
{
name = topright;
position = "{790, 664}";
}
);
components = (
{
name = o;
},
{
name = horncomb;
transform = "{1, 0, 0, 1, 740, -321}";
}
);
layerId = "1D628CB9-BBF5-410A-9D74-9E6094BFE839";
width = 962;
},
{
anchors = (
{
name = _topright;
position = "{786, 664}";
},
{
name = bottom;
position = "{492, 0}";
},
{
name = center;
position = "{492, 493}";
},
{
name = ogonek;
position = "{625, 30}";
},
{
name = top;
position = "{492, 985}";
},
{
name = topright;
position = "{786, 664}";
}
);
associatedMasterId = "1D628CB9-BBF5-410A-9D74-9E6094BFE839";
layerId = "507808C2-100D-496F-AF8E-12FACB515944";
name = "Regular Jul 25 16, 11:48";
paths = (
{
closed = 1;
nodes = (
"759 -10 OFFCURVE",
"876 182 OFFCURVE",
"876 495 CURVE SMOOTH",
"876 826 OFFCURVE",
"761 1000 OFFCURVE",
"492 1000 CURVE SMOOTH",
"223 1000 OFFCURVE",
"108 826 OFFCURVE",
"108 495 CURVE SMOOTH",
"108 182 OFFCURVE",
"225 -10 OFFCURVE",
"492 -10 CURVE SMOOTH"
);
},
{
closed = 1;
nodes = (
"292 96 OFFCURVE",
"236 257 OFFCURVE",
"236 495 CURVE SMOOTH",
"236 730 OFFCURVE",
"295 895 OFFCURVE",
"492 895 CURVE SMOOTH",
"689 895 OFFCURVE",
"748 730 OFFCURVE",
"748 495 CURVE SMOOTH",
"748 257 OFFCURVE",
"692 96 OFFCURVE",
"492 96 CURVE SMOOTH"
);
},
{
closed = 1;
nodes = (
"796 756 LINE SMOOTH",
"918 797 OFFCURVE",
"1024 856 OFFCURVE",
"1024 981 CURVE SMOOTH",
"1024 1021 OFFCURVE",
"1017 1053 OFFCURVE",
"1007 1079 CURVE",
"875 1079 LINE",
"888 1051 OFFCURVE",
"896 1020 OFFCURVE",
"896 989 CURVE SMOOTH",
"896 913 OFFCURVE",
"857 870 OFFCURVE",
"786 839 CURVE SMOOTH",
"751 824 LINE",
"751 741 LINE"
);
}
);
width = 984;
},
{
anchors = (
{
name = _topright;
position = "{790, 664}";
},
{
name = bottom;
position = "{536, -50}";
},
{
name = center;
position = "{496, 493}";
},
{
name = ogonek;
position = "{629, 30}";
},
{
name = top;
position = "{535, 1064}";
},
{
name = topright;
position = "{790, 664}";
}
);
components = (
{
name = o;
},
{
name = horncomb;
transform = "{1, 0, 0, 1, 855, -411}";
}
);
guideLines = (
{
angle = 270;
position = "{535, 558}";
}
);
layerId = "D42B5605-DB46-4B3B-8EA0-4CE7066523CE";
width = 1062;
}
);
leftKerningGroup = RoundLOWER;
rightKerningGroup = hornLOWER;
unicode = 01A1;
userData = {
com.schriftgestaltung.Glyphs.ColorIndex = 7;
};
},
{
glyphname = oe;
layers = (
{
anchors = (
{
name = bottom;
position = "{791, 0}";
},
{
name = top;
position = "{791, 985}";
}
);
layerId = "1D628CB9-BBF5-410A-9D74-9E6094BFE839";
paths = (
{
closed = 1;
nodes = (
"651 -10 OFFCURVE",
"759 86 OFFCURVE",
"817 219 CURVE",
"790 222 LINE",
"860 61 OFFCURVE",
"979 -10 OFFCURVE",
"1161 -10 CURVE SMOOTH",
"1256 -10 OFFCURVE",
"1377 16 OFFCURVE",
"1473 75 CURVE",
"1434 176 LINE",
"1341 117 OFFCURVE",
"1254 96 OFFCURVE",
"1154 96 CURVE SMOOTH",
"1008 96 OFFCURVE",
"869 162 OFFCURVE",
"865 469 CURVE",
"1483 469 LINE",
"1488 528 OFFCURVE",
"1491 574 OFFCURVE",
"1491 604 CURVE SMOOTH",
"1491 841 OFFCURVE",
"1358 1000 OFFCURVE",
"1136 1000 CURVE SMOOTH",
"973 1000 OFFCURVE",
"850 919 OFFCURVE",
"795 777 CURVE",
"819 778 LINE",
"764 916 OFFCURVE",
"654 1000 OFFCURVE",
"481 1000 CURVE SMOOTH",
"212 1000 OFFCURVE",
"97 826 OFFCURVE",
"97 495 CURVE SMOOTH",
"97 182 OFFCURVE",
"214 -10 OFFCURVE",
"481 -10 CURVE SMOOTH"
);
},
{
closed = 1;
nodes = (
"281 96 OFFCURVE",
"225 257 OFFCURVE",
"225 495 CURVE SMOOTH",
"225 730 OFFCURVE",
"284 895 OFFCURVE",
"481 895 CURVE SMOOTH",
"678 895 OFFCURVE",
"737 730 OFFCURVE",
"737 495 CURVE SMOOTH",
"737 257 OFFCURVE",
"681 96 OFFCURVE",
"481 96 CURVE SMOOTH"
);
},
{
closed = 1;
nodes = (
"880 766 OFFCURVE",
"964 895 OFFCURVE",
"1137 895 CURVE SMOOTH",
"1282 895 OFFCURVE",
"1372 783 OFFCURVE",
"1372 609 CURVE SMOOTH",
"1372 559 LINE",
"865 559 LINE"
);
}
);
width = 1587;
},
{
anchors = (
{
name = bottom;
position = "{812, -70}";
},
{
name = top;
position = "{812, 1025}";
}
);
layerId = "D42B5605-DB46-4B3B-8EA0-4CE7066523CE";
paths = (
{
closed = 1;
nodes = (
"674 -40 OFFCURVE",
"828 23 OFFCURVE",
"866 101 CURVE",
"804 102 LINE",
"886 2 OFFCURVE",
"1040 -40 OFFCURVE",
"1166 -40 CURVE SMOOTH",
"1336 -40 OFFCURVE",
"1480 3 OFFCURVE",
"1596 66 CURVE",
"1488 275 LINE",
"1355 217 OFFCURVE",
"1251 208 OFFCURVE",
"1201 208 CURVE SMOOTH",
"1102 208 OFFCURVE",
"1000 240 OFFCURVE",
"989 386 CURVE",
"1572 386 LINE",
"1581 446 OFFCURVE",
"1582 535 OFFCURVE",
"1582 570 CURVE SMOOTH",
"1582 879 OFFCURVE",
"1403 1030 OFFCURVE",
"1146 1030 CURVE SMOOTH",
"956 1030 OFFCURVE",
"844 961 OFFCURVE",
"796 895 CURVE",
"859 896 LINE",
"822 969 OFFCURVE",
"669 1030 OFFCURVE",
"521 1030 CURVE SMOOTH",
"202 1030 OFFCURVE",
"52 886 OFFCURVE",
"52 495 CURVE SMOOTH",
"52 104 OFFCURVE",
"202 -40 OFFCURVE",
"521 -40 CURVE SMOOTH"
);
},
{
closed = 1;
nodes = (
"421 230 OFFCURVE",
"380 282 OFFCURVE",
"380 495 CURVE SMOOTH",
"380 708 OFFCURVE",
"424 760 OFFCURVE",
"521 760 CURVE SMOOTH",
"618 760 OFFCURVE",
"662 708 OFFCURVE",
"662 495 CURVE SMOOTH",
"662 282 OFFCURVE",
"621 230 OFFCURVE",
"521 230 CURVE SMOOTH"
);
},
{
closed = 1;
nodes = (
"991 753 OFFCURVE",
"1058 785 OFFCURVE",
"1134 785 CURVE SMOOTH",
"1233 785 OFFCURVE",
"1261 711 OFFCURVE",
"1265 610 CURVE",
"1265 586 LINE",
"987 586 LINE"
);
}
);
width = 1648;
}
);
leftKerningGroup = RoundLOWER;
leftMetricsKey = "=o";
rightKerningGroup = RoundLOWER;
rightMetricsKey = "=e";
unicode = 0153;
},
{
glyphname = p;
layers = (
{
anchors = (
{
name = bottom;
position = "{495, 0}";
},
{
name = top;
position = "{495, 985}";
}
);
layerId = "1D628CB9-BBF5-410A-9D74-9E6094BFE839";
paths = (
{
closed = 1;
nodes = (
"272 -389 LINE",
"272 43 LINE",
"351 4 OFFCURVE",
"441 -10 OFFCURVE",
"512 -10 CURVE SMOOTH",
"749 -10 OFFCURVE",
"880 116 OFFCURVE",
"880 493 CURVE SMOOTH",
"880 852 OFFCURVE",
"744 1000 OFFCURVE",
"544 1000 CURVE SMOOTH",
"461 1000 OFFCURVE",
"367 978 OFFCURVE",
"261 911 CURVE",
"240 985 LINE",
"144 985 LINE",
"144 -389 LINE"
);
},
{
closed = 1;
nodes = (
"388 95 OFFCURVE",
"333 108 OFFCURVE",
"242 156 CURVE",
"272 92 LINE",
"272 854 LINE",
"235 787 LINE",
"364 867 OFFCURVE",
"453 895 OFFCURVE",
"528 895 CURVE SMOOTH",
"685 895 OFFCURVE",
"752 767 OFFCURVE",
"752 491 CURVE SMOOTH",
"752 191 OFFCURVE",
"674 95 OFFCURVE",
"494 95 CURVE SMOOTH"
);
}
);
width = 977;
},
{
anchors = (
{
name = bottom;
position = "{474, 0}";
},
{
name = top;
position = "{574, 1035}";
}
);
guideLines = (
{
position = "{433, 923}";
}
);
layerId = "D42B5605-DB46-4B3B-8EA0-4CE7066523CE";
paths = (
{
closed = 1;
nodes = (
"411 -389 LINE",
"411 29 LINE",
"475 2 OFFCURVE",
"530 -25 OFFCURVE",
"642 -25 CURVE SMOOTH",
"846 -25 OFFCURVE",
"1065 58 OFFCURVE",
"1065 497 CURVE SMOOTH",
"1065 951 OFFCURVE",
"843 1030 OFFCURVE",
"658 1030 CURVE SMOOTH",
"544 1030 OFFCURVE",
"458 977 OFFCURVE",
"397 946 CURVE",
"377 985 LINE",
"83 985 LINE",
"83 -389 LINE"
);
},
{
closed = 1;
nodes = (
"503 262 OFFCURVE",
"421 280 OFFCURVE",
"271 386 CURVE",
"411 121 LINE",
"411 868 LINE",
"272 606 LINE",
"421 705 OFFCURVE",
"503 748 OFFCURVE",
"577 748 CURVE SMOOTH",
"683 748 OFFCURVE",
"737 685 OFFCURVE",
"737 494 CURVE SMOOTH",
"737 317 OFFCURVE",
"683 262 OFFCURVE",
"577 262 CURVE SMOOTH"
);
}
);
width = 1117;
}
);
leftKerningGroup = StraightLOWER;
leftMetricsKey = "=n";
rightKerningGroup = RoundLOWER;
unicode = 0070;
},
{
glyphname = thorn;
layers = (
{
layerId = "1D628CB9-BBF5-410A-9D74-9E6094BFE839";
paths = (
{
closed = 1;
nodes = (
"272 -389 LINE",
"272 43 LINE",
"351 4 OFFCURVE",
"443 -10 OFFCURVE",
"514 -10 CURVE SMOOTH",
"751 -10 OFFCURVE",
"880 126 OFFCURVE",
"880 493 CURVE SMOOTH",
"880 852 OFFCURVE",
"744 1000 OFFCURVE",
"544 1000 CURVE SMOOTH",
"464 1000 OFFCURVE",
"374 985 OFFCURVE",
"272 916 CURVE",
"272 1358 LINE",
"144 1358 LINE",
"144 -389 LINE"
);
},
{
closed = 1;
nodes = (
"409 96 OFFCURVE",
"327 105 OFFCURVE",
"234 156 CURVE",
"272 92 LINE",
"272 854 LINE",
"235 787 LINE",
"364 867 OFFCURVE",
"453 895 OFFCURVE",
"528 895 CURVE SMOOTH",
"685 895 OFFCURVE",
"752 767 OFFCURVE",
"752 491 CURVE SMOOTH",
"752 206 OFFCURVE",
"676 96 OFFCURVE",
"496 96 CURVE SMOOTH"
);
}
);
width = 990;
},
{
layerId = "D42B5605-DB46-4B3B-8EA0-4CE7066523CE";
paths = (
{
closed = 1;
nodes = (
"411 -389 LINE",
"411 29 LINE",
"475 2 OFFCURVE",
"530 -25 OFFCURVE",
"642 -25 CURVE SMOOTH",
"846 -25 OFFCURVE",
"1065 58 OFFCURVE",
"1065 492 CURVE SMOOTH",
"1065 946 OFFCURVE",
"843 1020 OFFCURVE",
"658 1020 CURVE SMOOTH",
"544 1020 OFFCURVE",
"458 977 OFFCURVE",
"397 946 CURVE",
"397 1358 LINE",
"83 1358 LINE",
"83 -389 LINE"
);
},
{
closed = 1;
nodes = (
"503 262 OFFCURVE",
"421 280 OFFCURVE",
"271 386 CURVE",
"411 121 LINE",
"411 868 LINE",
"272 606 LINE",
"421 705 OFFCURVE",
"503 738 OFFCURVE",
"577 738 CURVE SMOOTH",
"683 738 OFFCURVE",
"737 680 OFFCURVE",
"737 489 CURVE SMOOTH",
"737 317 OFFCURVE",
"683 262 OFFCURVE",
"577 262 CURVE SMOOTH"
);
}
);
width = 1121;
}
);
leftKerningGroup = h;
rightKerningGroup = RoundLOWER;
unicode = 00FE;
},
{
glyphname = q;
layers = (
{
anchors = (
{
name = bottom;
position = "{481, 0}";
},
{
name = top;
position = "{481, 985}";
}
);
layerId = "1D628CB9-BBF5-410A-9D74-9E6094BFE839";
paths = (
{
closed = 1;
nodes = (
"833 -389 LINE",
"833 985 LINE",
"737 985 LINE",
"706 923 LINE",
"605 985 OFFCURVE",
"535 1000 OFFCURVE",
"451 1000 CURVE SMOOTH",
"246 1000 OFFCURVE",
"97 866 OFFCURVE",
"97 493 CURVE SMOOTH",
"97 126 OFFCURVE",
"235 -10 OFFCURVE",
"472 -10 CURVE SMOOTH",
"521 -10 OFFCURVE",
"606 -8 OFFCURVE",
"705 41 CURVE",
"705 -389 LINE"
);
},
{
closed = 1;
nodes = (
"296 95 OFFCURVE",
"225 206 OFFCURVE",
"225 491 CURVE SMOOTH",
"225 767 OFFCURVE",
"306 895 OFFCURVE",
"463 895 CURVE SMOOTH",
"539 895 OFFCURVE",
"611 881 OFFCURVE",
"745 797 CURVE",
"705 866 LINE",
"705 92 LINE",
"739 158 LINE",
"648 110 OFFCURVE",
"589 95 OFFCURVE",
"476 95 CURVE SMOOTH"
);
}
);
width = 977;
},
{
anchors = (
{
name = bottom;
position = "{437, 0}";
},
{
name = top;
position = "{437, 985}";
}
);
layerId = "D42B5605-DB46-4B3B-8EA0-4CE7066523CE";
paths = (
{
closed = 1;
nodes = (
"1034 -389 LINE",
"1034 985 LINE",
"740 985 LINE",
"720 946 LINE",
"659 977 OFFCURVE",
"573 1030 OFFCURVE",
"459 1030 CURVE SMOOTH",
"274 1030 OFFCURVE",
"52 946 OFFCURVE",
"52 492 CURVE SMOOTH",
"52 58 OFFCURVE",
"271 -25 OFFCURVE",
"475 -25 CURVE SMOOTH",
"587 -25 OFFCURVE",
"642 2 OFFCURVE",
"706 29 CURVE",
"706 -389 LINE"
);
},
{
closed = 1;
nodes = (
"434 262 OFFCURVE",
"380 317 OFFCURVE",
"380 489 CURVE SMOOTH",
"380 680 OFFCURVE",
"434 743 OFFCURVE",
"540 743 CURVE SMOOTH",
"614 743 OFFCURVE",
"696 700 OFFCURVE",
"845 601 CURVE",
"706 868 LINE",
"706 121 LINE",
"846 386 LINE",
"696 280 OFFCURVE",
"614 262 OFFCURVE",
"540 262 CURVE SMOOTH"
);
}
);
width = 1117;
}
);
leftKerningGroup = RoundLOWER;
leftMetricsKey = "=o";
rightKerningGroup = StraightLOWER;
rightMetricsKey = u;
unicode = 0071;
},
{
glyphname = r;
layers = (
{
anchors = (
{
name = bottom;
position = "{208, 0}";
},
{
name = top;
position = "{361, 985}";
}
);
layerId = "1D628CB9-BBF5-410A-9D74-9E6094BFE839";
paths = (
{
closed = 1;
nodes = (
"272 0 LINE",
"272 834 LINE",
"257 777 LINE",
"310 826 OFFCURVE",
"454 878 OFFCURVE",
"592 878 CURVE",
"592 1000 LINE",
"485 996 OFFCURVE",
"340 934 OFFCURVE",
"262 881 CURVE",
"240 985 LINE",
"144 985 LINE",
"144 0 LINE"
);
}
);
width = 653;
},
{
anchors = (
{
name = bottom;
position = "{233, -50}";
},
{
name = top;
position = "{429, 1035}";
}
);
layerId = "D42B5605-DB46-4B3B-8EA0-4CE7066523CE";
paths = (
{
closed = 1;
nodes = (
"411 0 LINE",
"411 749 LINE",
"346 597 LINE",
"433 690 OFFCURVE",
"664 708 OFFCURVE",
"741 708 CURVE",
"741 1030 LINE",
"639 1026 OFFCURVE",
"484 962 OFFCURVE",
"401 899 CURVE",
"369 985 LINE",
"83 985 LINE",
"83 0 LINE"
);
}
);
width = 778;
}
);
leftKerningGroup = StraightLOWER;
leftMetricsKey = "=n";
rightKerningGroup = r;
unicode = 0072;
},
{
glyphname = s;
layers = (
{
anchors = (
{
name = bottom;
position = "{399, 0}";
},
{
name = cedilla;
position = "{378, 0}";
},
{
name = top;
position = "{399, 985}";
}
);
guideLines = (
{
angle = 68.2748;
position = "{695, 889}";
},
{
angle = 68.2748;
position = "{292, 520}";
}
);
layerId = "1D628CB9-BBF5-410A-9D74-9E6094BFE839";
paths = (
{
closed = 1;
nodes = (
"589 -10 OFFCURVE",
"742 63 OFFCURVE",
"742 271 CURVE SMOOTH",
"742 432 OFFCURVE",
"659 496 OFFCURVE",
"521 540 CURVE SMOOTH",
"374 587 LINE SMOOTH",
"272 620 OFFCURVE",
"231 637 OFFCURVE",
"231 730 CURVE SMOOTH",
"231 852 OFFCURVE",
"304 895 OFFCURVE",
"434 895 CURVE SMOOTH",
"506 895 OFFCURVE",
"594 870 OFFCURVE",
"655 844 CURVE",
"693 942 LINE",
"615 978 OFFCURVE",
"519 1000 OFFCURVE",
"427 1000 CURVE SMOOTH",
"257 1000 OFFCURVE",
"103 926 OFFCURVE",
"103 735 CURVE SMOOTH",
"103 568 OFFCURVE",
"191 518 OFFCURVE",
"336 472 CURVE SMOOTH",
"486 425 LINE SMOOTH",
"586 394 OFFCURVE",
"614 364 OFFCURVE",
"614 265 CURVE SMOOTH",
"614 137 OFFCURVE",
"541 96 OFFCURVE",
"412 96 CURVE SMOOTH",
"312 96 OFFCURVE",
"194 137 OFFCURVE",
"129 168 CURVE",
"89 69 LINE",
"182 21 OFFCURVE",
"307 -10 OFFCURVE",
"418 -10 CURVE SMOOTH"
);
}
);
width = 837;
},
{
anchors = (
{
name = bottom;
position = "{465, -50}";
},
{
name = cedilla;
position = "{428, -30}";
},
{
name = top;
position = "{455, 1035}";
}
);
guideLines = (
{
angle = 68.2748;
position = "{4323, 1169}";
},
{
angle = 68.2748;
position = "{3757, 570}";
},
{
angle = 163.6996;
position = "{3820, 646}";
},
{
angle = 163.6996;
position = "{3652, 469}";
}
);
layerId = "D42B5605-DB46-4B3B-8EA0-4CE7066523CE";
paths = (
{
closed = 1;
nodes = (
"742 -40 OFFCURVE",
"878 96 OFFCURVE",
"878 294 CURVE SMOOTH",
"878 494 OFFCURVE",
"760 565 OFFCURVE",
"615 600 CURVE SMOOTH",
"485 631 LINE SMOOTH",
"374 657 OFFCURVE",
"351 669 OFFCURVE",
"351 713 CURVE SMOOTH",
"351 742 OFFCURVE",
"375 762 OFFCURVE",
"444 762 CURVE SMOOTH",
"529 762 OFFCURVE",
"641 751 OFFCURVE",
"753 715 CURVE",
"846 965 LINE",
"733 1012 OFFCURVE",
"585 1030 OFFCURVE",
"463 1030 CURVE SMOOTH",
"179 1030 OFFCURVE",
"54 906 OFFCURVE",
"54 705 CURVE SMOOTH",
"54 531 OFFCURVE",
"163 441 OFFCURVE",
"289 410 CURVE SMOOTH",
"474 364 LINE SMOOTH",
"557 343 OFFCURVE",
"581 324 OFFCURVE",
"581 283 CURVE SMOOTH",
"581 244 OFFCURVE",
"544 231 OFFCURVE",
"501 231 CURVE SMOOTH",
"416 231 OFFCURVE",
"250 250 OFFCURVE",
"120 317 CURVE",
"31 60 LINE",
"183 -20 OFFCURVE",
"333 -40 OFFCURVE",
"464 -40 CURVE SMOOTH"
);
}
);
width = 903;
}
);
leftKerningGroup = s;
rightKerningGroup = s;
unicode = 0073;
},
{
glyphname = germandbls;
layers = (
{
layerId = "1D628CB9-BBF5-410A-9D74-9E6094BFE839";
paths = (
{
closed = 1;
nodes = (
"799 -10 OFFCURVE",
"939 67 OFFCURVE",
"939 250 CURVE SMOOTH",
"939 405 OFFCURVE",
"859 466 OFFCURVE",
"719 528 CURVE SMOOTH",
"586 587 OFFCURVE",
"550 621 OFFCURVE",
"550 674 CURVE SMOOTH",
"550 783 OFFCURVE",
"655 822 OFFCURVE",
"841 855 CURVE",
"841 1151 OFFCURVE",
"773 1301 OFFCURVE",
"492 1301 CURVE SMOOTH",
"256 1301 OFFCURVE",
"144 1172 OFFCURVE",
"144 912 CURVE SMOOTH",
"144 0 LINE",
"272 0 LINE",
"272 901 LINE SMOOTH",
"272 1100 OFFCURVE",
"333 1195 OFFCURVE",
"488 1195 CURVE SMOOTH",
"660 1195 OFFCURVE",
"713 1122 OFFCURVE",
"713 922 CURVE",
"564 890 OFFCURVE",
"422 834 OFFCURVE",
"422 674 CURVE SMOOTH",
"422 557 OFFCURVE",
"496 501 OFFCURVE",
"655 432 CURVE SMOOTH",
"792 373 OFFCURVE",
"811 325 OFFCURVE",
"811 249 CURVE SMOOTH",
"811 140 OFFCURVE",
"727 95 OFFCURVE",
"622 95 CURVE SMOOTH",
"560 95 OFFCURVE",
"491 117 OFFCURVE",
"429 146 CURVE",
"391 56 LINE",
"466 16 OFFCURVE",
"552 -10 OFFCURVE",
"633 -10 CURVE SMOOTH"
);
}
);
width = 1011;
},
{
guideLines = (
{
angle = 270;
position = "{144, 201}";
}
);
layerId = "D42B5605-DB46-4B3B-8EA0-4CE7066523CE";
paths = (
{
closed = 1;
nodes = (
"1093 -40 OFFCURVE",
"1238 116 OFFCURVE",
"1238 299 CURVE SMOOTH",
"1238 451 OFFCURVE",
"1175 521 OFFCURVE",
"1036 598 CURVE SMOOTH",
"916 664 OFFCURVE",
"892 677 OFFCURVE",
"892 718 CURVE SMOOTH",
"892 759 OFFCURVE",
"995 793 OFFCURVE",
"1145 822 CURVE",
"1145 1118 OFFCURVE",
"1017 1331 OFFCURVE",
"596 1331 CURVE SMOOTH",
"205 1331 OFFCURVE",
"83 1092 OFFCURVE",
"83 832 CURVE SMOOTH",
"83 0 LINE",
"411 0 LINE",
"411 811 LINE SMOOTH",
"411 965 OFFCURVE",
"476 1046 OFFCURVE",
"636 1046 CURVE SMOOTH",
"693 1046 OFFCURVE",
"798 1020 OFFCURVE",
"798 942 CURVE",
"699 916 OFFCURVE",
"546 854 OFFCURVE",
"546 704 CURVE SMOOTH",
"546 570 OFFCURVE",
"630 519 OFFCURVE",
"717 475 CURVE SMOOTH",
"824 421 OFFCURVE",
"910 402 OFFCURVE",
"910 329 CURVE SMOOTH",
"910 270 OFFCURVE",
"871 245 OFFCURVE",
"766 245 CURVE SMOOTH",
"704 245 OFFCURVE",
"627 261 OFFCURVE",
"565 290 CURVE",
"485 26 LINE",
"560 -9 OFFCURVE",
"686 -40 OFFCURVE",
"827 -40 CURVE SMOOTH"
);
}
);
width = 1267;
}
);
unicode = 00DF;
},
{
glyphname = t;
layers = (
{
anchors = (
{
name = bottom;
position = "{451, 0}";
},
{
name = cedilla;
position = "{438, 0}";
},
{
name = top;
position = "{293, 1267}";
},
{
name = topright;
position = "{474, 1428}";
}
);
guideLines = (
{
angle = 270;
position = "{646, 680}";
},
{
position = "{156, 1267}";
}
);
layerId = "1D628CB9-BBF5-410A-9D74-9E6094BFE839";
paths = (
{
closed = 1;
nodes = (
"534 -10 OFFCURVE",
"598 -8 OFFCURVE",
"662 0 CURVE",
"647 100 LINE",
"620 98 OFFCURVE",
"569 95 OFFCURVE",
"507 95 CURVE SMOOTH",
"401 95 OFFCURVE",
"338 123 OFFCURVE",
"338 346 CURVE SMOOTH",
"338 934 LINE",
"293 885 LINE",
"646 885 LINE",
"646 985 LINE",
"293 985 LINE",
"338 940 LINE",
"338 1267 LINE",
"239 1267 LINE",
"210 940 LINE",
"259 985 LINE",
"57 985 LINE",
"57 885 LINE",
"255 885 LINE",
"210 934 LINE",
"210 348 LINE SMOOTH",
"210 119 OFFCURVE",
"259 -4 OFFCURVE",
"473 -10 CURVE"
);
}
);
width = 732;
},
{
anchors = (
{
name = bottom;
position = "{509, -50}";
},
{
name = cedilla;
position = "{552, 0}";
},
{
name = top;
position = "{407, 1331}";
},
{
name = topright;
position = "{594, 1709}";
}
);
guideLines = (
{
angle = 270;
position = "{855, 541}";
}
);
layerId = "D42B5605-DB46-4B3B-8EA0-4CE7066523CE";
paths = (
{
closed = 1;
nodes = (
"693 -10 OFFCURVE",
"801 7 OFFCURVE",
"877 24 CURVE",
"843 293 LINE",
"796 286 OFFCURVE",
"706 275 OFFCURVE",
"676 275 CURVE SMOOTH",
"584 275 OFFCURVE",
"546 296 OFFCURVE",
"546 406 CURVE SMOOTH",
"546 834 LINE",
"401 690 LINE",
"845 690 LINE",
"845 985 LINE",
"401 985 LINE",
"546 840 LINE",
"546 1282 LINE",
"267 1282 LINE",
"218 840 LINE",
"367 985 LINE",
"35 985 LINE",
"35 690 LINE",
"363 690 LINE",
"218 834 LINE",
"218 406 LINE SMOOTH",
"218 213 OFFCURVE",
"268 -10 OFFCURVE",
"602 -10 CURVE SMOOTH"
);
}
);
width = 927;
}
);
leftKerningGroup = t;
rightKerningGroup = t;
unicode = 0074;
},
{
color = 4;
glyphname = tbar;
layers = (
{
background = {
paths = (
{
closed = 1;
nodes = (
"537 -10 OFFCURVE",
"601 -8 OFFCURVE",
"665 0 CURVE",
"660 103 LINE",
"633 99 OFFCURVE",
"572 96 OFFCURVE",
"510 96 CURVE SMOOTH",
"404 96 OFFCURVE",
"341 123 OFFCURVE",
"341 386 CURVE SMOOTH",
"341 940 LINE",
"296 895 LINE",
"649 895 LINE",
"649 985 LINE",
"296 985 LINE",
"341 940 LINE",
"341 1267 LINE",
"242 1267 LINE",
"213 940 LINE",
"262 985 LINE",
"60 985 LINE",
"60 895 LINE",
"258 895 LINE",
"213 940 LINE",
"213 388 LINE SMOOTH",
"213 119 OFFCURVE",
"262 -4 OFFCURVE",
"476 -10 CURVE SMOOTH"
);
},
{
closed = 1;
nodes = (
"564 551 LINE",
"564 641 LINE",
"76 641 LINE",
"76 551 LINE"
);
}
);
};
layerId = "1D628CB9-BBF5-410A-9D74-9E6094BFE839";
paths = (
{
closed = 1;
nodes = (
"643 529 LINE",
"643 625 LINE",
"60 625 LINE",
"60 529 LINE"
);
},
{
closed = 1;
nodes = (
"534 -10 OFFCURVE",
"598 -8 OFFCURVE",
"662 0 CURVE",
"647 100 LINE",
"620 98 OFFCURVE",
"569 95 OFFCURVE",
"507 95 CURVE SMOOTH",
"401 95 OFFCURVE",
"338 123 OFFCURVE",
"338 346 CURVE SMOOTH",
"338 934 LINE",
"293 889 LINE",
"646 889 LINE",
"646 985 LINE",
"293 985 LINE",
"338 940 LINE",
"338 1267 LINE",
"239 1267 LINE",
"210 940 LINE",
"259 985 LINE",
"57 985 LINE",
"57 889 LINE",
"255 889 LINE",
"210 934 LINE",
"210 348 LINE SMOOTH",
"210 119 OFFCURVE",
"259 -4 OFFCURVE",
"473 -10 CURVE"
);
}
);
width = 732;
},
{
background = {
paths = (
{
closed = 1;
nodes = (
"688 -10 OFFCURVE",
"810 -6 OFFCURVE",
"886 2 CURVE",
"861 280 LINE",
"834 278 OFFCURVE",
"771 275 OFFCURVE",
"731 275 CURVE SMOOTH",
"599 275 OFFCURVE",
"561 296 OFFCURVE",
"561 406 CURVE SMOOTH",
"561 884 LINE",
"416 739 LINE",
"870 739 LINE",
"870 1035 LINE",
"416 1035 LINE",
"561 890 LINE",
"561 1282 LINE",
"282 1282 LINE",
"233 890 LINE",
"382 1035 LINE",
"40 1035 LINE",
"40 739 LINE",
"378 739 LINE",
"233 884 LINE",
"233 406 LINE SMOOTH",
"233 213 OFFCURVE",
"283 -10 OFFCURVE",
"617 -10 CURVE SMOOTH"
);
},
{
closed = 1;
nodes = (
"834 460 LINE",
"834 625 LINE",
"83 625 LINE",
"83 460 LINE"
);
}
);
};
layerId = "D42B5605-DB46-4B3B-8EA0-4CE7066523CE";
paths = (
{
closed = 1;
nodes = (
"840 387 LINE",
"840 623 LINE",
"40 623 LINE",
"40 387 LINE"
);
},
{
closed = 1;
nodes = (
"693 -10 OFFCURVE",
"801 7 OFFCURVE",
"877 24 CURVE",
"843 293 LINE",
"796 286 OFFCURVE",
"706 275 OFFCURVE",
"676 275 CURVE SMOOTH",
"584 275 OFFCURVE",
"546 296 OFFCURVE",
"546 406 CURVE SMOOTH",
"546 834 LINE",
"401 719 LINE",
"845 719 LINE",
"845 985 LINE",
"401 985 LINE",
"546 840 LINE",
"546 1282 LINE",
"267 1282 LINE",
"218 840 LINE",
"367 985 LINE",
"35 985 LINE",
"35 719 LINE",
"363 719 LINE",
"218 834 LINE",
"218 406 LINE SMOOTH",
"218 213 OFFCURVE",
"268 -10 OFFCURVE",
"602 -10 CURVE SMOOTH"
);
}
);
width = 927;
}
);
leftKerningGroup = t;
leftMetricsKey = "=t";
rightKerningGroup = t;
rightMetricsKey = "=t";
unicode = 0167;
},
{
glyphname = u;
layers = (
{
anchors = (
{
name = bottom;
position = "{497, 0}";
},
{
name = ogonek;
position = "{799, 0}";
},
{
name = top;
position = "{497, 985}";
},
{
name = topright;
position = "{854, 664}";
}
);
layerId = "1D628CB9-BBF5-410A-9D74-9E6094BFE839";
paths = (
{
closed = 1;
nodes = (
"523 -10 OFFCURVE",
"600 0 OFFCURVE",
"735 64 CURVE",
"753 0 LINE",
"849 0 LINE",
"849 985 LINE",
"721 985 LINE",
"721 118 LINE",
"759 185 LINE",
"619 97 OFFCURVE",
"521 95 OFFCURVE",
"439 95 CURVE SMOOTH",
"303 95 OFFCURVE",
"260 159 OFFCURVE",
"260 316 CURVE SMOOTH",
"260 985 LINE",
"132 985 LINE",
"132 321 LINE SMOOTH",
"132 93 OFFCURVE",
"223 -10 OFFCURVE",
"426 -10 CURVE SMOOTH"
);
}
);
width = 993;
},
{
anchors = (
{
name = bottom;
position = "{543, -50}";
},
{
name = ogonek;
position = "{890, 0}";
},
{
name = top;
position = "{552, 1055}";
},
{
name = topright;
position = "{1096, 574}";
}
);
layerId = "D42B5605-DB46-4B3B-8EA0-4CE7066523CE";
paths = (
{
closed = 1;
nodes = (
"492 -40 OFFCURVE",
"586 -20 OFFCURVE",
"697 44 CURVE",
"725 0 LINE",
"1011 0 LINE",
"1011 985 LINE",
"683 985 LINE",
"683 120 LINE",
"820 380 LINE",
"669 264 OFFCURVE",
"595 245 OFFCURVE",
"521 245 CURVE SMOOTH",
"437 245 OFFCURVE",
"402 277 OFFCURVE",
"402 427 CURVE SMOOTH",
"402 985 LINE",
"74 985 LINE",
"74 297 LINE SMOOTH",
"74 64 OFFCURVE",
"221 -40 OFFCURVE",
"395 -40 CURVE SMOOTH"
);
}
);
width = 1094;
}
);
leftKerningGroup = u;
rightKerningGroup = StraightLOWER;
unicode = 0075;
},
{
glyphname = uhorn;
layers = (
{
anchors = (
{
name = _topright;
position = "{854, 664}";
},
{
name = bottom;
position = "{497, 0}";
},
{
name = ogonek;
position = "{799, 0}";
},
{
name = top;
position = "{497, 985}";
},
{
name = topright;
position = "{854, 664}";
}
);
components = (
{
name = u;
},
{
name = horncomb;
transform = "{1, 0, 0, 1, 819, -321}";
}
);
layerId = "1D628CB9-BBF5-410A-9D74-9E6094BFE839";
width = 993;
},
{
anchors = (
{
name = _topright;
position = "{850, 664}";
},
{
name = bottom;
position = "{493, 0}";
},
{
name = ogonek;
position = "{795, 0}";
},
{
name = top;
position = "{493, 985}";
},
{
name = topright;
position = "{850, 664}";
}
);
associatedMasterId = "1D628CB9-BBF5-410A-9D74-9E6094BFE839";
layerId = "20967BB6-E54A-4AF0-99B3-39F9609A1E13";
name = "Regular Jul 25 16, 11:48";
paths = (
{
closed = 1;
nodes = (
"519 -10 OFFCURVE",
"596 0 OFFCURVE",
"731 64 CURVE",
"740 0 LINE",
"845 0 LINE",
"845 985 LINE",
"717 985 LINE",
"717 163 LINE",
"597 97 OFFCURVE",
"509 96 OFFCURVE",
"435 96 CURVE SMOOTH",
"299 96 OFFCURVE",
"256 159 OFFCURVE",
"256 316 CURVE SMOOTH",
"256 985 LINE",
"128 985 LINE",
"128 321 LINE SMOOTH",
"128 93 OFFCURVE",
"219 -10 OFFCURVE",
"422 -10 CURVE SMOOTH"
);
},
{
closed = 1;
nodes = (
"860 756 LINE SMOOTH",
"982 797 OFFCURVE",
"1088 856 OFFCURVE",
"1088 981 CURVE SMOOTH",
"1088 1021 OFFCURVE",
"1081 1053 OFFCURVE",
"1071 1079 CURVE",
"939 1079 LINE",
"952 1051 OFFCURVE",
"960 1020 OFFCURVE",
"960 989 CURVE SMOOTH",
"960 913 OFFCURVE",
"921 870 OFFCURVE",
"850 839 CURVE SMOOTH",
"815 824 LINE",
"815 741 LINE"
);
}
);
width = 986;
},
{
anchors = (
{
name = _topright;
position = "{1054, 664}";
},
{
name = bottom;
position = "{537, -46}";
},
{
name = ogonek;
position = "{899, 0}";
},
{
name = top;
position = "{557, 1075}";
},
{
name = topright;
position = "{1054, 664}";
}
);
components = (
{
name = u;
},
{
name = horncomb;
transform = "{1, 0, 0, 1, 936, -411}";
}
);
layerId = "D42B5605-DB46-4B3B-8EA0-4CE7066523CE";
width = 1094;
}
);
leftKerningGroup = u;
rightKerningGroup = hornLOWER;
unicode = 01B0;
userData = {
com.schriftgestaltung.Glyphs.ColorIndex = 7;
};
},
{
glyphname = v;
layers = (
{
anchors = (
{
name = bottom;
position = "{446, 0}";
},
{
name = top;
position = "{446, 985}";
}
);
guideLines = (
{
angle = 9.6052;
position = "{265, 1004}";
},
{
position = "{334, 971}";
},
{
position = "{334, 991}";
}
);
layerId = "1D628CB9-BBF5-410A-9D74-9E6094BFE839";
paths = (
{
closed = 1;
nodes = (
"521 0 LINE",
"832 971 LINE",
"708 991 LINE",
"440 94 LINE",
"467 94 LINE",
"183 991 LINE",
"60 971 LINE",
"384 0 LINE"
);
}
);
width = 882;
},
{
anchors = (
{
name = bottom;
position = "{524, 0}";
},
{
name = top;
position = "{524, 985}";
}
);
guideLines = (
{
angle = 188.9224;
position = "{157, 973}";
},
{
angle = 171.0776;
position = "{857, 977}";
},
{
position = "{409, 999}";
}
);
layerId = "D42B5605-DB46-4B3B-8EA0-4CE7066523CE";
paths = (
{
closed = 1;
nodes = (
"693 0 LINE",
"1026 950 LINE",
"717 999 LINE",
"495 225 LINE",
"565 225 LINE",
"324 999 LINE",
"10 950 LINE",
"356 0 LINE"
);
}
);
width = 1036;
}
);
unicode = 0076;
},
{
glyphname = w;
layers = (
{
anchors = (
{
name = bottom;
position = "{653, 0}";
},
{
name = top;
position = "{653, 985}";
}
);
guideLines = (
{
angle = 9.6052;
position = "{265, 1004}";
},
{
position = "{334, 971}";
},
{
position = "{334, 991}";
},
{
angle = 170.3948;
position = "{1038, 1004}";
}
);
layerId = "1D628CB9-BBF5-410A-9D74-9E6094BFE839";
paths = (
{
closed = 1;
nodes = (
"450 0 LINE",
"675 670 LINE",
"647 670 LINE",
"873 0 LINE",
"1013 0 LINE",
"1234 971 LINE",
"1113 991 LINE",
"925 69 LINE",
"948 70 LINE",
"720 763 LINE",
"602 763 LINE",
"371 70 LINE",
"395 69 LINE",
"192 992 LINE",
"72 971 LINE",
"308 0 LINE"
);
}
);
width = 1306;
},
{
anchors = (
{
name = bottom;
position = "{698, 0}";
},
{
name = top;
position = "{698, 1005}";
}
);
guideLines = (
{
position = "{1379, 353}";
},
{
angle = 270;
position = "{688, 51}";
}
);
layerId = "D42B5605-DB46-4B3B-8EA0-4CE7066523CE";
paths = (
{
closed = 1;
nodes = (
"495 0 LINE",
"725 598 LINE",
"651 598 LINE",
"881 0 LINE",
"1133 0 LINE",
"1363 948 LINE",
"1062 995 LINE",
"916 269 LINE",
"1033 270 LINE",
"817 873 LINE",
"559 873 LINE",
"356 270 LINE",
"460 269 LINE",
"315 995 LINE",
"15 948 LINE",
"243 0 LINE"
);
}
);
width = 1378;
}
);
leftKerningGroup = w;
rightKerningGroup = w;
unicode = 0077;
},
{
glyphname = x;
layers = (
{
anchors = (
{
name = bottom;
position = "{420, 0}";
},
{
name = top;
position = "{420, 985}";
}
);
guideLines = (
{
angle = 9.6052;
position = "{259, 1004}";
},
{
position = "{328, 971}";
},
{
position = "{328, 991}";
},
{
angle = -9.6052;
position = "{255, -19}";
},
{
position = "{324, 14}";
},
{
position = "{324, -6}";
}
);
layerId = "1D628CB9-BBF5-410A-9D74-9E6094BFE839";
paths = (
{
closed = 1;
nodes = (
"182 -6 LINE",
"448 462 LINE",
"404 462 LINE",
"666 -6 LINE",
"783 14 LINE",
"484 542 LINE",
"484 464 LINE",
"764 971 LINE",
"641 991 LINE",
"404 539 LINE",
"447 540 LINE",
"189 992 LINE",
"69 971 LINE",
"369 465 LINE",
"369 543 LINE",
"58 14 LINE"
);
}
);
width = 841;
},
{
anchors = (
{
name = bottom;
position = "{593, 0}";
},
{
name = top;
position = "{593, 985}";
}
);
guideLines = (
{
angle = 188.9224;
position = "{162, 973}";
},
{
angle = -8.9224;
position = "{843, 973}";
},
{
angle = 171.0776;
position = "{162, 20}";
},
{
angle = 8.9224;
position = "{843, 20}";
}
);
layerId = "D42B5605-DB46-4B3B-8EA0-4CE7066523CE";
paths = (
{
closed = 1;
nodes = (
"325 -26 LINE",
"553 353 LINE",
"475 353 LINE",
"700 -26 LINE",
"1011 25 LINE",
"695 533 LINE",
"695 453 LINE",
"996 959 LINE",
"682 1008 LINE",
"475 628 LINE",
"552 629 LINE",
"324 1008 LINE",
"14 960 LINE",
"334 454 LINE",
"334 534 LINE",
"5 25 LINE"
);
}
);
width = 1016;
}
);
unicode = 0078;
},
{
glyphname = y;
layers = (
{
anchors = (
{
name = bottom;
position = "{696, 0}";
},
{
name = top;
position = "{466, 985}";
}
);
guideLines = (
{
angle = 9.6052;
position = "{275, 1004}";
},
{
position = "{344, 971}";
},
{
position = "{344, 991}";
}
);
layerId = "1D628CB9-BBF5-410A-9D74-9E6094BFE839";
paths = (
{
closed = 1;
nodes = (
"416 -390 OFFCURVE",
"470 -254 OFFCURVE",
"552 -16 CURVE SMOOTH",
"893 971 LINE",
"764 991 LINE",
"483 123 LINE",
"514 126 LINE",
"171 991 LINE",
"42 971 LINE",
"441 26 LINE",
"414 -55 LINE SMOOTH",
"376 -169 OFFCURVE",
"351 -279 OFFCURVE",
"260 -279 CURVE SMOOTH",
"230 -279 OFFCURVE",
"185 -270 OFFCURVE",
"125 -252 CURVE",
"104 -355 LINE",
"164 -378 OFFCURVE",
"218 -390 OFFCURVE",
"269 -390 CURVE SMOOTH"
);
}
);
width = 948;
},
{
anchors = (
{
name = bottom;
position = "{903, 50}";
},
{
name = top;
position = "{513, 1055}";
}
);
guideLines = (
{
angle = 253.4527;
position = "{612, 657}";
},
{
position = "{-2427, 1053}";
},
{
angle = 188.9224;
position = "{164, 973}";
},
{
angle = -8.9224;
position = "{845, 973}";
},
{
position = "{524, 995}";
}
);
layerId = "D42B5605-DB46-4B3B-8EA0-4CE7066523CE";
paths = (
{
closed = 1;
nodes = (
"531 -430 OFFCURVE",
"592 -289 OFFCURVE",
"689 -16 CURVE SMOOTH",
"1032 946 LINE",
"712 995 LINE",
"477 202 LINE",
"594 202 LINE",
"306 995 LINE",
"-10 946 LINE",
"377 24 LINE",
"360 -28 LINE SMOOTH",
"334 -108 OFFCURVE",
"308 -145 OFFCURVE",
"237 -145 CURVE SMOOTH",
"207 -145 OFFCURVE",
"122 -136 OFFCURVE",
"62 -121 CURVE",
"41 -389 LINE",
"101 -409 OFFCURVE",
"211 -430 OFFCURVE",
"262 -430 CURVE SMOOTH"
);
}
);
width = 1040;
}
);
leftKerningGroup = y;
rightKerningGroup = y;
unicode = 0079;
},
{
glyphname = z;
layers = (
{
anchors = (
{
name = bottom;
position = "{392, 0}";
},
{
name = top;
position = "{406, 985}";
}
);
guideLines = (
{
angle = 90;
position = "{112, 940}";
},
{
angle = 270;
position = "{697, 45}";
},
{
angle = 98.2971;
position = "{56, 339}";
}
);
layerId = "1D628CB9-BBF5-410A-9D74-9E6094BFE839";
paths = (
{
closed = 1;
nodes = (
"697 0 LINE",
"697 100 LINE",
"187 100 LINE",
"206 51 LINE",
"682 900 LINE",
"672 985 LINE",
"112 985 LINE",
"112 885 LINE",
"588 885 LINE",
"569 934 LINE",
"91 96 LINE",
"105 0 LINE"
);
}
);
width = 772;
},
{
anchors = (
{
name = bottom;
position = "{472, -50}";
},
{
name = top;
position = "{479, 1035}";
}
);
guideLines = (
{
angle = -85.8095;
position = "{822, 890}";
},
{
angle = 180;
position = "{348, 700}";
},
{
position = "{560, 285}";
},
{
angle = 270;
position = "{875, 143}";
},
{
angle = 90;
position = "{65, 843}";
},
{
angle = -83.9217;
position = "{820, 1057}";
},
{
angle = -83.9217;
position = "{18, 470}";
}
);
layerId = "D42B5605-DB46-4B3B-8EA0-4CE7066523CE";
paths = (
{
closed = 1;
nodes = (
"875 0 LINE",
"875 285 LINE",
"260 285 LINE",
"338 147 LINE",
"851 740 LINE",
"828 985 LINE",
"65 985 LINE",
"65 700 LINE",
"631 700 LINE",
"569 855 LINE",
"45 245 LINE",
"68 0 LINE"
);
}
);
width = 915;
}
);
leftKerningGroup = z;
rightKerningGroup = z;
unicode = 007A;
},
{
glyphname = k.001;
layers = (
{
anchors = (
{
name = bottom;
position = "{503, 0}";
},
{
name = top;
position = "{473, 985}";
}
);
layerId = "1D628CB9-BBF5-410A-9D74-9E6094BFE839";
paths = (
{
closed = 1;
nodes = (
"272 0 LINE",
"272 422 LINE",
"238 347 LINE",
"397 488 LINE",
"333 492 LINE",
"764 0 LINE",
"912 0 LINE",
"431 556 LINE",
"430 489 LINE",
"876 985 LINE",
"723 985 LINE",
"366 589 LINE",
"240 462 LINE",
"272 449 LINE",
"272 1358 LINE",
"144 1358 LINE",
"144 0 LINE"
);
}
);
width = 945;
},
{
anchors = (
{
name = bottom;
position = "{603, 0}";
},
{
name = top;
position = "{573, 985}";
}
);
layerId = "D42B5605-DB46-4B3B-8EA0-4CE7066523CE";
paths = (
{
closed = 1;
nodes = (
"411 0 LINE",
"411 427 LINE",
"277 217 LINE",
"546 388 LINE",
"439 403 LINE",
"751 0 LINE",
"1185 0 LINE",
"672 636 LINE",
"641 446 LINE",
"1112 985 LINE",
"705 985 LINE",
"463 697 LINE",
"308 550 LINE",
"411 564 LINE",
"411 1358 LINE",
"83 1358 LINE",
"83 0 LINE"
);
}
);
width = 1265;
}
);
userData = {
com.fontlab.hintData = {
hhints = (
{
position = 0;
width = 21;
},
{
position = 965;
width = 20;
},
{
position = 1338;
width = 20;
}
);
vhints = (
{
position = 140;
width = 128;
}
);
};
};
},
{
glyphname = kgreenlandic.001;
layers = (
{
layerId = "1D628CB9-BBF5-410A-9D74-9E6094BFE839";
paths = (
{
closed = 1;
nodes = (
"272 0 LINE",
"272 364 LINE",
"363 445 LINE",
"764 0 LINE",
"925 0 LINE",
"461 504 LINE",
"889 985 LINE",
"723 985 LINE",
"272 481 LINE",
"272 985 LINE",
"144 985 LINE",
"144 0 LINE"
);
}
);
width = 961;
},
{
layerId = "D42B5605-DB46-4B3B-8EA0-4CE7066523CE";
paths = (
{
closed = 1;
nodes = (
"411 0 LINE",
"411 303 LINE",
"450 329 LINE",
"738 0 LINE",
"1149 0 LINE",
"694 515 LINE",
"1088 985 LINE",
"702 985 LINE",
"411 621 LINE",
"411 985 LINE",
"83 985 LINE",
"83 0 LINE"
);
}
);
width = 1169;
}
);
},
{
glyphname = v.001;
layers = (
{
anchors = (
{
name = bottom;
position = "{460, 0}";
},
{
name = top;
position = "{460, 985}";
}
);
layerId = "1D628CB9-BBF5-410A-9D74-9E6094BFE839";
paths = (
{
closed = 1;
nodes = (
"535 0 LINE",
"851 985 LINE",
"720 985 LINE",
"454 94 LINE",
"481 94 LINE",
"199 985 LINE",
"69 985 LINE",
"398 0 LINE"
);
}
);
width = 920;
},
{
anchors = (
{
name = bottom;
position = "{542, 0}";
},
{
name = top;
position = "{542, 985}";
}
);
layerId = "D42B5605-DB46-4B3B-8EA0-4CE7066523CE";
paths = (
{
closed = 1;
nodes = (
"711 0 LINE",
"1057 985 LINE",
"733 985 LINE",
"513 225 LINE",
"583 225 LINE",
"347 985 LINE",
"15 985 LINE",
"374 0 LINE"
);
}
);
width = 1062;
}
);
},
{
glyphname = w.001;
layers = (
{
anchors = (
{
name = bottom;
position = "{653, 0}";
},
{
name = top;
position = "{653, 985}";
}
);
layerId = "1D628CB9-BBF5-410A-9D74-9E6094BFE839";
paths = (
{
closed = 1;
nodes = (
"450 0 LINE",
"675 670 LINE",
"647 670 LINE",
"873 0 LINE",
"1013 0 LINE",
"1237 985 LINE",
"1112 985 LINE",
"925 69 LINE",
"948 70 LINE",
"720 763 LINE",
"602 763 LINE",
"371 70 LINE",
"395 69 LINE",
"194 985 LINE",
"69 985 LINE",
"308 0 LINE"
);
}
);
width = 1306;
},
{
anchors = (
{
name = bottom;
position = "{709, 0}";
},
{
name = top;
position = "{709, 1005}";
}
);
guideLines = (
{
position = "{1390, 353}";
},
{
angle = -76.3628;
position = "{-23, 1143}";
},
{
angle = -76.3628;
position = "{272, 1132}";
},
{
angle = 256.3628;
position = "{1410, 1096}";
},
{
angle = 256.3628;
position = "{1115, 1085}";
},
{
angle = 270;
position = "{699, 51}";
}
);
layerId = "D42B5605-DB46-4B3B-8EA0-4CE7066523CE";
paths = (
{
closed = 1;
nodes = (
"506 0 LINE",
"736 588 LINE",
"662 588 LINE",
"892 0 LINE",
"1144 0 LINE",
"1383 985 LINE",
"1071 985 LINE",
"917 269 LINE",
"1044 270 LINE",
"828 873 LINE",
"570 873 LINE",
"367 270 LINE",
"481 269 LINE",
"328 985 LINE",
"15 985 LINE",
"254 0 LINE"
);
}
);
width = 1398;
}
);
},
{
glyphname = x.001;
layers = (
{
anchors = (
{
name = bottom;
position = "{426, 0}";
},
{
name = top;
position = "{426, 985}";
}
);
layerId = "1D628CB9-BBF5-410A-9D74-9E6094BFE839";
paths = (
{
closed = 1;
nodes = (
"192 0 LINE",
"454 462 LINE",
"410 462 LINE",
"668 0 LINE",
"797 0 LINE",
"490 542 LINE",
"490 464 LINE",
"778 985 LINE",
"643 985 LINE",
"410 539 LINE",
"453 540 LINE",
"200 985 LINE",
"67 985 LINE",
"375 465 LINE",
"375 543 LINE",
"55 0 LINE"
);
}
);
width = 852;
},
{
anchors = (
{
name = bottom;
position = "{628, 0}";
},
{
name = top;
position = "{628, 985}";
}
);
layerId = "D42B5605-DB46-4B3B-8EA0-4CE7066523CE";
paths = (
{
closed = 1;
nodes = (
"359 0 LINE",
"571 372 LINE",
"527 372 LINE",
"735 0 LINE",
"1071 0 LINE",
"737 552 LINE",
"737 474 LINE",
"1052 985 LINE",
"710 985 LINE",
"527 649 LINE",
"570 650 LINE",
"367 985 LINE",
"27 985 LINE",
"362 475 LINE",
"362 553 LINE",
"15 0 LINE"
);
}
);
width = 1086;
}
);
},
{
glyphname = y.001;
layers = (
{
anchors = (
{
name = bottom;
position = "{716, 0}";
},
{
name = top;
position = "{486, 985}";
}
);
layerId = "1D628CB9-BBF5-410A-9D74-9E6094BFE839";
paths = (
{
closed = 1;
nodes = (
"436 -390 OFFCURVE",
"490 -254 OFFCURVE",
"572 -16 CURVE SMOOTH",
"918 985 LINE",
"782 985 LINE",
"503 123 LINE",
"534 126 LINE",
"193 985 LINE",
"56 985 LINE",
"461 26 LINE",
"434 -55 LINE SMOOTH",
"396 -169 OFFCURVE",
"371 -279 OFFCURVE",
"280 -279 CURVE SMOOTH",
"250 -279 OFFCURVE",
"205 -270 OFFCURVE",
"145 -252 CURVE",
"124 -355 LINE",
"184 -378 OFFCURVE",
"238 -390 OFFCURVE",
"289 -390 CURVE SMOOTH"
);
}
);
width = 971;
},
{
anchors = (
{
name = bottom;
position = "{940, 50}";
},
{
name = top;
position = "{550, 1055}";
}
);
guideLines = (
{
angle = 253.4527;
position = "{649, 657}";
}
);
layerId = "D42B5605-DB46-4B3B-8EA0-4CE7066523CE";
paths = (
{
closed = 1;
nodes = (
"568 -430 OFFCURVE",
"629 -289 OFFCURVE",
"726 -16 CURVE SMOOTH",
"1082 985 LINE",
"746 985 LINE",
"514 202 LINE",
"631 202 LINE",
"346 985 LINE",
"10 985 LINE",
"414 24 LINE",
"397 -28 LINE SMOOTH",
"371 -108 OFFCURVE",
"345 -145 OFFCURVE",
"274 -145 CURVE SMOOTH",
"244 -145 OFFCURVE",
"159 -136 OFFCURVE",
"99 -121 CURVE",
"78 -389 LINE",
"138 -409 OFFCURVE",
"248 -430 OFFCURVE",
"299 -430 CURVE SMOOTH"
);
}
);
width = 1107;
}
);
},
{
glyphname = f_f;
layers = (
{
layerId = "1D628CB9-BBF5-410A-9D74-9E6094BFE839";
paths = (
{
closed = 1;
nodes = (
"386 0 LINE",
"386 932 LINE",
"341 887 LINE",
"889 887 LINE",
"844 932 LINE",
"844 0 LINE",
"972 0 LINE",
"972 932 LINE",
"927 887 LINE",
"1206 887 LINE",
"1206 985 LINE",
"927 985 LINE",
"973 921 LINE",
"966 1244 OFFCURVE",
"1006 1289 OFFCURVE",
"1131 1289 CURVE SMOOTH",
"1169 1289 OFFCURVE",
"1250 1274 OFFCURVE",
"1272 1268 CURVE",
"1288 1368 LINE",
"1221 1391 OFFCURVE",
"1159 1394 OFFCURVE",
"1103 1394 CURVE",
"879 1387 OFFCURVE",
"840 1258 OFFCURVE",
"844 937 CURVE",
"889 985 LINE",
"341 985 LINE",
"387 921 LINE",
"380 1244 OFFCURVE",
"420 1289 OFFCURVE",
"545 1289 CURVE SMOOTH",
"583 1289 OFFCURVE",
"664 1274 OFFCURVE",
"686 1268 CURVE",
"702 1368 LINE",
"635 1391 OFFCURVE",
"573 1394 OFFCURVE",
"517 1394 CURVE",
"293 1387 OFFCURVE",
"254 1258 OFFCURVE",
"258 937 CURVE",
"303 985 LINE",
"91 985 LINE",
"91 887 LINE",
"303 887 LINE",
"258 932 LINE",
"258 0 LINE"
);
}
);
width = 1280;
},
{
layerId = "D42B5605-DB46-4B3B-8EA0-4CE7066523CE";
paths = (
{
closed = 1;
nodes = (
"528 0 LINE",
"528 752 LINE",
"463 715 LINE",
"1084 715 LINE",
"1019 752 LINE",
"1019 0 LINE",
"1347 0 LINE",
"1347 752 LINE",
"1282 715 LINE",
"1601 715 LINE",
"1601 985 LINE",
"1278 985 LINE",
"1347 930 LINE",
"1328 1125 OFFCURVE",
"1391 1133 OFFCURVE",
"1479 1133 CURVE SMOOTH",
"1523 1133 OFFCURVE",
"1609 1118 OFFCURVE",
"1664 1107 CURVE",
"1702 1374 LINE",
"1634 1390 OFFCURVE",
"1504 1411 OFFCURVE",
"1438 1411 CURVE SMOOTH",
"1149 1411 OFFCURVE",
"1019 1303 OFFCURVE",
"1019 942 CURVE",
"1085 985 LINE",
"459 985 LINE",
"528 930 LINE",
"509 1125 OFFCURVE",
"572 1133 OFFCURVE",
"660 1133 CURVE SMOOTH",
"709 1133 OFFCURVE",
"798 1118 OFFCURVE",
"845 1107 CURVE",
"883 1374 LINE",
"824 1392 OFFCURVE",
"685 1411 OFFCURVE",
"619 1411 CURVE SMOOTH",
"330 1411 OFFCURVE",
"200 1303 OFFCURVE",
"200 942 CURVE",
"266 985 LINE",
"25 985 LINE",
"25 715 LINE",
"265 715 LINE",
"200 752 LINE",
"200 0 LINE"
);
}
);
width = 1702;
}
);
leftKerningGroup = f;
rightKerningGroup = f;
unicode = FB00;
},
{
glyphname = f_f_i;
layers = (
{
layerId = "1D628CB9-BBF5-410A-9D74-9E6094BFE839";
paths = (
{
closed = 1;
nodes = (
"386 0 LINE",
"386 887 LINE",
"901 889 LINE",
"901 0 LINE",
"1029 0 LINE",
"1029 889 LINE",
"1578 889 LINE",
"1578 90 LINE",
"1386 90 LINE",
"1386 0 LINE",
"1898 0 LINE",
"1898 90 LINE",
"1706 90 LINE",
"1706 985 LINE",
"1029 985 LINE",
"1029 1250 OFFCURVE",
"1072 1289 OFFCURVE",
"1188 1289 CURVE SMOOTH",
"1226 1289 OFFCURVE",
"1307 1274 OFFCURVE",
"1329 1268 CURVE",
"1345 1368 LINE",
"1278 1391 OFFCURVE",
"1216 1394 OFFCURVE",
"1160 1394 CURVE",
"947 1387 OFFCURVE",
"901 1271 OFFCURVE",
"901 985 CURVE",
"386 985 LINE",
"386 1250 OFFCURVE",
"428 1289 OFFCURVE",
"544 1289 CURVE SMOOTH",
"582 1289 OFFCURVE",
"664 1274 OFFCURVE",
"686 1268 CURVE",
"702 1368 LINE",
"635 1391 OFFCURVE",
"572 1394 OFFCURVE",
"516 1394 CURVE",
"303 1387 OFFCURVE",
"258 1271 OFFCURVE",
"258 985 CURVE",
"91 985 LINE",
"91 887 LINE",
"258 887 LINE",
"258 0 LINE"
);
},
{
closed = 1;
nodes = (
"1695 1176 OFFCURVE",
"1732 1206 OFFCURVE",
"1732 1266 CURVE SMOOTH",
"1732 1326 OFFCURVE",
"1695 1356 OFFCURVE",
"1642 1356 CURVE SMOOTH",
"1591 1356 OFFCURVE",
"1551 1321 OFFCURVE",
"1551 1264 CURVE SMOOTH",
"1551 1208 OFFCURVE",
"1591 1176 OFFCURVE",
"1642 1176 CURVE SMOOTH"
);
}
);
width = 1952;
},
{
layerId = "D42B5605-DB46-4B3B-8EA0-4CE7066523CE";
paths = (
{
closed = 1;
nodes = (
"528 0 LINE",
"528 715 LINE",
"1019 715 LINE",
"1019 0 LINE",
"1347 0 LINE",
"1347 715 LINE",
"1893 715 LINE",
"1893 270 LINE",
"1681 270 LINE",
"1681 0 LINE",
"2433 0 LINE",
"2433 270 LINE",
"2221 270 LINE",
"2221 985 LINE",
"1343 985 LINE",
"1344 1120 OFFCURVE",
"1391 1133 OFFCURVE",
"1479 1133 CURVE SMOOTH",
"1523 1133 OFFCURVE",
"1609 1118 OFFCURVE",
"1664 1107 CURVE",
"1702 1374 LINE",
"1634 1390 OFFCURVE",
"1504 1411 OFFCURVE",
"1438 1411 CURVE SMOOTH",
"1149 1411 OFFCURVE",
"1036 1299 OFFCURVE",
"1020 985 CURVE",
"524 985 LINE",
"526 1122 OFFCURVE",
"572 1133 OFFCURVE",
"660 1133 CURVE SMOOTH",
"704 1133 OFFCURVE",
"790 1118 OFFCURVE",
"845 1107 CURVE",
"883 1374 LINE",
"815 1390 OFFCURVE",
"685 1411 OFFCURVE",
"619 1411 CURVE SMOOTH",
"330 1411 OFFCURVE",
"218 1300 OFFCURVE",
"201 985 CURVE",
"25 985 LINE",
"25 715 LINE",
"200 715 LINE",
"200 0 LINE"
);
},
{
closed = 1;
nodes = (
"2156 1106 OFFCURVE",
"2242 1192 OFFCURVE",
"2242 1298 CURVE SMOOTH",
"2242 1401 OFFCURVE",
"2156 1487 OFFCURVE",
"2051 1487 CURVE SMOOTH",
"1946 1487 OFFCURVE",
"1861 1401 OFFCURVE",
"1861 1298 CURVE SMOOTH",
"1861 1192 OFFCURVE",
"1946 1106 OFFCURVE",
"2051 1106 CURVE SMOOTH"
);
}
);
width = 2468;
}
);
leftKerningGroup = f;
rightKerningGroup = i;
unicode = FB03;
},
{
glyphname = f_f_ij;
layers = (
{
layerId = "1D628CB9-BBF5-410A-9D74-9E6094BFE839";
paths = (
{
closed = 1;
nodes = (
"386 0 LINE",
"386 887 LINE",
"901 889 LINE",
"901 0 LINE",
"1029 0 LINE",
"1029 889 LINE",
"1578 889 LINE",
"1578 90 LINE",
"1386 90 LINE",
"1386 0 LINE",
"1898 0 LINE",
"1898 90 LINE",
"1706 90 LINE",
"1706 985 LINE",
"1029 985 LINE",
"1029 1250 OFFCURVE",
"1072 1289 OFFCURVE",
"1188 1289 CURVE SMOOTH",
"1226 1289 OFFCURVE",
"1307 1274 OFFCURVE",
"1329 1268 CURVE",
"1345 1368 LINE",
"1278 1391 OFFCURVE",
"1216 1394 OFFCURVE",
"1160 1394 CURVE",
"947 1387 OFFCURVE",
"901 1271 OFFCURVE",
"901 985 CURVE",
"386 985 LINE",
"386 1250 OFFCURVE",
"428 1289 OFFCURVE",
"544 1289 CURVE SMOOTH",
"582 1289 OFFCURVE",
"664 1274 OFFCURVE",
"686 1268 CURVE",
"702 1368 LINE",
"635 1391 OFFCURVE",
"572 1394 OFFCURVE",
"516 1394 CURVE",
"303 1387 OFFCURVE",
"258 1271 OFFCURVE",
"258 985 CURVE",
"91 985 LINE",
"91 887 LINE",
"258 887 LINE",
"258 0 LINE"
);
},
{
closed = 1;
nodes = (
"2324 -295 OFFCURVE",
"2413 -203 OFFCURVE",
"2413 18 CURVE SMOOTH",
"2413 985 LINE",
"2061 985 LINE",
"2061 895 LINE",
"2330 895 LINE",
"2285 940 LINE",
"2285 28 LINE SMOOTH",
"2285 -123 OFFCURVE",
"2261 -182 OFFCURVE",
"2148 -182 CURVE SMOOTH",
"2085 -182 OFFCURVE",
"2045 -177 OFFCURVE",
"2000 -166 CURVE",
"1984 -275 LINE",
"2039 -291 OFFCURVE",
"2095 -295 OFFCURVE",
"2152 -295 CURVE SMOOTH"
);
},
{
closed = 1;
nodes = (
"1695 1176 OFFCURVE",
"1732 1206 OFFCURVE",
"1732 1266 CURVE SMOOTH",
"1732 1326 OFFCURVE",
"1695 1356 OFFCURVE",
"1642 1356 CURVE SMOOTH",
"1591 1356 OFFCURVE",
"1551 1321 OFFCURVE",
"1551 1264 CURVE SMOOTH",
"1551 1208 OFFCURVE",
"1591 1176 OFFCURVE",
"1642 1176 CURVE SMOOTH"
);
},
{
closed = 1;
nodes = (
"2395 1176 OFFCURVE",
"2432 1206 OFFCURVE",
"2432 1266 CURVE SMOOTH",
"2432 1326 OFFCURVE",
"2395 1356 OFFCURVE",
"2342 1356 CURVE SMOOTH",
"2291 1356 OFFCURVE",
"2251 1321 OFFCURVE",
"2251 1264 CURVE SMOOTH",
"2251 1208 OFFCURVE",
"2291 1176 OFFCURVE",
"2342 1176 CURVE SMOOTH"
);
}
);
width = 2576;
},
{
layerId = "D42B5605-DB46-4B3B-8EA0-4CE7066523CE";
paths = (
{
closed = 1;
nodes = (
"528 0 LINE",
"528 715 LINE",
"1019 715 LINE",
"1019 0 LINE",
"1347 0 LINE",
"1347 715 LINE",
"1893 715 LINE",
"1893 270 LINE",
"1681 270 LINE",
"1681 0 LINE",
"2433 0 LINE",
"2433 270 LINE",
"2221 270 LINE",
"2221 985 LINE",
"1343 985 LINE",
"1344 1120 OFFCURVE",
"1391 1133 OFFCURVE",
"1479 1133 CURVE SMOOTH",
"1523 1133 OFFCURVE",
"1609 1118 OFFCURVE",
"1664 1107 CURVE",
"1702 1374 LINE",
"1634 1390 OFFCURVE",
"1504 1411 OFFCURVE",
"1438 1411 CURVE SMOOTH",
"1149 1411 OFFCURVE",
"1036 1299 OFFCURVE",
"1020 985 CURVE",
"524 985 LINE",
"526 1122 OFFCURVE",
"572 1133 OFFCURVE",
"660 1133 CURVE SMOOTH",
"704 1133 OFFCURVE",
"790 1118 OFFCURVE",
"845 1107 CURVE",
"883 1374 LINE",
"815 1390 OFFCURVE",
"685 1411 OFFCURVE",
"619 1411 CURVE SMOOTH",
"330 1411 OFFCURVE",
"218 1300 OFFCURVE",
"201 985 CURVE",
"25 985 LINE",
"25 715 LINE",
"200 715 LINE",
"200 0 LINE"
);
},
{
closed = 1;
nodes = (
"2869 -325 OFFCURVE",
"3103 -233 OFFCURVE",
"3103 88 CURVE SMOOTH",
"3103 985 LINE",
"2531 985 LINE",
"2531 715 LINE",
"2820 715 LINE",
"2775 940 LINE",
"2775 115 LINE SMOOTH",
"2775 15 OFFCURVE",
"2746 -40 OFFCURVE",
"2638 -40 CURVE SMOOTH",
"2607 -40 OFFCURVE",
"2534 -36 OFFCURVE",
"2483 -24 CURVE",
"2442 -299 LINE",
"2533 -319 OFFCURVE",
"2625 -325 OFFCURVE",
"2692 -325 CURVE SMOOTH"
);
},
{
closed = 1;
nodes = (
"2156 1106 OFFCURVE",
"2242 1192 OFFCURVE",
"2242 1298 CURVE SMOOTH",
"2242 1401 OFFCURVE",
"2156 1487 OFFCURVE",
"2051 1487 CURVE SMOOTH",
"1946 1487 OFFCURVE",
"1861 1401 OFFCURVE",
"1861 1298 CURVE SMOOTH",
"1861 1192 OFFCURVE",
"1946 1106 OFFCURVE",
"2051 1106 CURVE SMOOTH"
);
},
{
closed = 1;
nodes = (
"3043 1108 OFFCURVE",
"3129 1194 OFFCURVE",
"3129 1300 CURVE SMOOTH",
"3129 1403 OFFCURVE",
"3043 1489 OFFCURVE",
"2938 1489 CURVE SMOOTH",
"2833 1489 OFFCURVE",
"2748 1403 OFFCURVE",
"2748 1300 CURVE SMOOTH",
"2748 1194 OFFCURVE",
"2833 1108 OFFCURVE",
"2938 1108 CURVE SMOOTH"
);
}
);
width = 3210;
}
);
leftKerningGroup = f;
rightKerningGroup = StraightLOWER;
userData = {
com.schriftgestaltung.Glyphs.leftMetricsKey = f;
com.schriftgestaltung.Glyphs.rightMetricsKey = "=j";
};
},
{
glyphname = f_f_l;
layers = (
{
layerId = "1D628CB9-BBF5-410A-9D74-9E6094BFE839";
paths = (
{
closed = 1;
nodes = (
"386 0 LINE",
"386 887 LINE",
"846 887 LINE",
"846 0 LINE",
"974 0 LINE",
"974 887 LINE",
"1208 887 LINE",
"1208 985 LINE",
"974 985 LINE",
"974 1280 OFFCURVE",
"1037 1299 OFFCURVE",
"1223 1299 CURVE SMOOTH",
"1311 1299 OFFCURVE",
"1447 1273 OFFCURVE",
"1556 1224 CURVE",
"1556 90 LINE",
"1333 90 LINE",
"1333 0 LINE",
"1895 0 LINE",
"1895 90 LINE",
"1684 90 LINE",
"1684 1288 LINE",
"1545 1359 OFFCURVE",
"1349 1404 OFFCURVE",
"1195 1404 CURVE SMOOTH",
"926 1404 OFFCURVE",
"846 1301 OFFCURVE",
"846 985 CURVE",
"386 985 LINE",
"386 1250 OFFCURVE",
"429 1289 OFFCURVE",
"545 1289 CURVE SMOOTH",
"583 1289 OFFCURVE",
"664 1274 OFFCURVE",
"686 1268 CURVE",
"702 1368 LINE",
"635 1391 OFFCURVE",
"573 1394 OFFCURVE",
"517 1394 CURVE",
"304 1387 OFFCURVE",
"258 1271 OFFCURVE",
"258 985 CURVE",
"91 985 LINE",
"91 887 LINE",
"258 887 LINE",
"258 0 LINE"
);
}
);
width = 1929;
},
{
layerId = "D42B5605-DB46-4B3B-8EA0-4CE7066523CE";
paths = (
{
closed = 1;
nodes = (
"528 0 LINE",
"528 715 LINE",
"1019 715 LINE",
"1019 0 LINE",
"1347 0 LINE",
"1347 715 LINE",
"1611 715 LINE",
"1611 985 LINE",
"1343 985 LINE",
"1342 1122 OFFCURVE",
"1404 1188 OFFCURVE",
"1549 1188 CURVE SMOOTH",
"1656 1188 OFFCURVE",
"1778 1177 OFFCURVE",
"1899 1130 CURVE",
"1899 270 LINE",
"1656 270 LINE",
"1656 0 LINE",
"2458 0 LINE",
"2458 270 LINE",
"2227 270 LINE",
"2227 1318 LINE",
"1987 1403 OFFCURVE",
"1778 1458 OFFCURVE",
"1508 1458 CURVE SMOOTH",
"1169 1458 OFFCURVE",
"1035 1312 OFFCURVE",
"1020 985 CURVE",
"524 985 LINE",
"525 1119 OFFCURVE",
"572 1133 OFFCURVE",
"660 1133 CURVE SMOOTH",
"704 1133 OFFCURVE",
"790 1118 OFFCURVE",
"845 1107 CURVE",
"883 1374 LINE",
"815 1390 OFFCURVE",
"685 1411 OFFCURVE",
"619 1411 CURVE SMOOTH",
"330 1411 OFFCURVE",
"217 1298 OFFCURVE",
"201 985 CURVE",
"25 985 LINE",
"25 715 LINE",
"200 715 LINE",
"200 0 LINE"
);
}
);
width = 2503;
}
);
leftKerningGroup = f;
rightKerningGroup = l;
unicode = FB04;
},
{
glyphname = f_ij;
layers = (
{
layerId = "1D628CB9-BBF5-410A-9D74-9E6094BFE839";
paths = (
{
closed = 1;
nodes = (
"386 0 LINE",
"386 887 LINE",
"951 887 LINE",
"951 90 LINE",
"759 90 LINE",
"759 0 LINE",
"1271 0 LINE",
"1271 90 LINE",
"1079 90 LINE",
"1079 985 LINE",
"386 985 LINE",
"386 1250 OFFCURVE",
"429 1289 OFFCURVE",
"545 1289 CURVE SMOOTH",
"583 1289 OFFCURVE",
"664 1274 OFFCURVE",
"686 1268 CURVE",
"702 1368 LINE",
"635 1391 OFFCURVE",
"573 1394 OFFCURVE",
"517 1394 CURVE",
"304 1387 OFFCURVE",
"258 1271 OFFCURVE",
"258 985 CURVE",
"91 985 LINE",
"91 887 LINE",
"258 887 LINE",
"258 0 LINE"
);
},
{
closed = 1;
nodes = (
"1697 -295 OFFCURVE",
"1786 -203 OFFCURVE",
"1786 18 CURVE SMOOTH",
"1786 985 LINE",
"1434 985 LINE",
"1434 895 LINE",
"1703 895 LINE",
"1658 940 LINE",
"1658 28 LINE SMOOTH",
"1658 -123 OFFCURVE",
"1634 -182 OFFCURVE",
"1521 -182 CURVE SMOOTH",
"1458 -182 OFFCURVE",
"1418 -177 OFFCURVE",
"1373 -166 CURVE",
"1357 -275 LINE",
"1412 -291 OFFCURVE",
"1468 -295 OFFCURVE",
"1525 -295 CURVE SMOOTH"
);
},
{
closed = 1;
nodes = (
"1068 1176 OFFCURVE",
"1105 1206 OFFCURVE",
"1105 1266 CURVE SMOOTH",
"1105 1326 OFFCURVE",
"1068 1356 OFFCURVE",
"1015 1356 CURVE SMOOTH",
"964 1356 OFFCURVE",
"924 1321 OFFCURVE",
"924 1264 CURVE SMOOTH",
"924 1208 OFFCURVE",
"964 1176 OFFCURVE",
"1015 1176 CURVE SMOOTH"
);
},
{
closed = 1;
nodes = (
"1768 1176 OFFCURVE",
"1805 1206 OFFCURVE",
"1805 1266 CURVE SMOOTH",
"1805 1326 OFFCURVE",
"1768 1356 OFFCURVE",
"1715 1356 CURVE SMOOTH",
"1664 1356 OFFCURVE",
"1624 1321 OFFCURVE",
"1624 1264 CURVE SMOOTH",
"1624 1208 OFFCURVE",
"1664 1176 OFFCURVE",
"1715 1176 CURVE SMOOTH"
);
}
);
width = 1949;
},
{
layerId = "D42B5605-DB46-4B3B-8EA0-4CE7066523CE";
paths = (
{
closed = 1;
nodes = (
"528 0 LINE",
"528 715 LINE",
"1074 715 LINE",
"1074 270 LINE",
"862 270 LINE",
"862 0 LINE",
"1614 0 LINE",
"1614 270 LINE",
"1402 270 LINE",
"1402 985 LINE",
"524 985 LINE",
"526 1119 OFFCURVE",
"572 1133 OFFCURVE",
"660 1133 CURVE SMOOTH",
"704 1133 OFFCURVE",
"790 1118 OFFCURVE",
"845 1107 CURVE",
"883 1374 LINE",
"815 1390 OFFCURVE",
"685 1411 OFFCURVE",
"619 1411 CURVE SMOOTH",
"330 1411 OFFCURVE",
"217 1298 OFFCURVE",
"201 985 CURVE",
"25 985 LINE",
"25 715 LINE",
"200 715 LINE",
"200 0 LINE"
);
},
{
closed = 1;
nodes = (
"2064 -325 OFFCURVE",
"2298 -233 OFFCURVE",
"2298 88 CURVE SMOOTH",
"2298 1005 LINE",
"1726 1005 LINE",
"1726 735 LINE",
"2015 735 LINE",
"1970 960 LINE",
"1970 115 LINE SMOOTH",
"1970 15 OFFCURVE",
"1941 -40 OFFCURVE",
"1833 -40 CURVE SMOOTH",
"1802 -40 OFFCURVE",
"1729 -36 OFFCURVE",
"1678 -24 CURVE",
"1637 -299 LINE",
"1728 -319 OFFCURVE",
"1820 -325 OFFCURVE",
"1887 -325 CURVE SMOOTH"
);
},
{
closed = 1;
nodes = (
"1337 1106 OFFCURVE",
"1423 1192 OFFCURVE",
"1423 1298 CURVE SMOOTH",
"1423 1401 OFFCURVE",
"1337 1487 OFFCURVE",
"1232 1487 CURVE SMOOTH",
"1127 1487 OFFCURVE",
"1042 1401 OFFCURVE",
"1042 1298 CURVE SMOOTH",
"1042 1192 OFFCURVE",
"1127 1106 OFFCURVE",
"1232 1106 CURVE SMOOTH"
);
},
{
closed = 1;
nodes = (
"2238 1108 OFFCURVE",
"2324 1194 OFFCURVE",
"2324 1300 CURVE SMOOTH",
"2324 1403 OFFCURVE",
"2238 1489 OFFCURVE",
"2133 1489 CURVE SMOOTH",
"2028 1489 OFFCURVE",
"1943 1403 OFFCURVE",
"1943 1300 CURVE SMOOTH",
"1943 1194 OFFCURVE",
"2028 1108 OFFCURVE",
"2133 1108 CURVE SMOOTH"
);
}
);
width = 2407;
}
);
leftKerningGroup = f;
rightKerningGroup = StraightLOWER;
userData = {
com.schriftgestaltung.Glyphs.leftMetricsKey = f;
com.schriftgestaltung.Glyphs.rightMetricsKey = "=j";
};
},
{
glyphname = fi;
layers = (
{
layerId = "1D628CB9-BBF5-410A-9D74-9E6094BFE839";
paths = (
{
closed = 1;
nodes = (
"386 0 LINE",
"386 887 LINE",
"951 887 LINE",
"951 90 LINE",
"759 90 LINE",
"759 0 LINE",
"1271 0 LINE",
"1271 90 LINE",
"1079 90 LINE",
"1079 985 LINE",
"386 985 LINE",
"386 1250 OFFCURVE",
"429 1289 OFFCURVE",
"545 1289 CURVE SMOOTH",
"583 1289 OFFCURVE",
"664 1274 OFFCURVE",
"686 1268 CURVE",
"702 1368 LINE",
"635 1391 OFFCURVE",
"573 1394 OFFCURVE",
"517 1394 CURVE",
"304 1387 OFFCURVE",
"258 1271 OFFCURVE",
"258 985 CURVE",
"91 985 LINE",
"91 887 LINE",
"258 887 LINE",
"258 0 LINE"
);
},
{
closed = 1;
nodes = (
"1068 1176 OFFCURVE",
"1105 1206 OFFCURVE",
"1105 1266 CURVE SMOOTH",
"1105 1326 OFFCURVE",
"1068 1356 OFFCURVE",
"1015 1356 CURVE SMOOTH",
"964 1356 OFFCURVE",
"924 1321 OFFCURVE",
"924 1264 CURVE SMOOTH",
"924 1208 OFFCURVE",
"964 1176 OFFCURVE",
"1015 1176 CURVE SMOOTH"
);
}
);
width = 1325;
},
{
layerId = "D42B5605-DB46-4B3B-8EA0-4CE7066523CE";
paths = (
{
closed = 1;
nodes = (
"528 0 LINE",
"528 715 LINE",
"1064 715 LINE",
"1064 270 LINE",
"852 270 LINE",
"852 0 LINE",
"1604 0 LINE",
"1604 270 LINE",
"1392 270 LINE",
"1392 985 LINE",
"524 985 LINE",
"526 1119 OFFCURVE",
"572 1133 OFFCURVE",
"660 1133 CURVE SMOOTH",
"704 1133 OFFCURVE",
"790 1118 OFFCURVE",
"845 1107 CURVE",
"883 1374 LINE",
"815 1390 OFFCURVE",
"685 1411 OFFCURVE",
"619 1411 CURVE SMOOTH",
"330 1411 OFFCURVE",
"217 1298 OFFCURVE",
"201 985 CURVE",
"25 985 LINE",
"25 715 LINE",
"200 715 LINE",
"200 0 LINE"
);
},
{
closed = 1;
nodes = (
"1327 1106 OFFCURVE",
"1413 1192 OFFCURVE",
"1413 1298 CURVE SMOOTH",
"1413 1401 OFFCURVE",
"1327 1487 OFFCURVE",
"1222 1487 CURVE SMOOTH",
"1117 1487 OFFCURVE",
"1032 1401 OFFCURVE",
"1032 1298 CURVE SMOOTH",
"1032 1192 OFFCURVE",
"1117 1106 OFFCURVE",
"1222 1106 CURVE SMOOTH"
);
}
);
width = 1639;
}
);
leftKerningGroup = f;
rightKerningGroup = i;
unicode = FB01;
},
{
glyphname = fl;
layers = (
{
layerId = "1D628CB9-BBF5-410A-9D74-9E6094BFE839";
paths = (
{
closed = 1;
nodes = (
"386 0 LINE",
"386 887 LINE",
"620 887 LINE",
"620 985 LINE",
"386 985 LINE",
"386 1280 OFFCURVE",
"449 1299 OFFCURVE",
"635 1299 CURVE",
"723 1299 OFFCURVE",
"859 1273 OFFCURVE",
"968 1224 CURVE",
"968 90 LINE",
"745 90 LINE",
"745 0 LINE",
"1307 0 LINE",
"1307 90 LINE",
"1096 90 LINE",
"1096 1288 LINE",
"957 1359 OFFCURVE",
"761 1404 OFFCURVE",
"607 1404 CURVE",
"338 1404 OFFCURVE",
"258 1301 OFFCURVE",
"258 985 CURVE",
"91 985 LINE",
"91 887 LINE",
"258 887 LINE",
"258 0 LINE"
);
}
);
width = 1361;
},
{
layerId = "D42B5605-DB46-4B3B-8EA0-4CE7066523CE";
paths = (
{
closed = 1;
nodes = (
"528 0 LINE",
"528 715 LINE",
"792 715 LINE",
"792 985 LINE",
"524 985 LINE",
"523 1122 OFFCURVE",
"585 1188 OFFCURVE",
"730 1188 CURVE SMOOTH",
"837 1188 OFFCURVE",
"933 1180 OFFCURVE",
"1080 1130 CURVE",
"1080 270 LINE",
"837 270 LINE",
"837 0 LINE",
"1639 0 LINE",
"1639 270 LINE",
"1408 270 LINE",
"1408 1318 LINE",
"1168 1413 OFFCURVE",
"959 1458 OFFCURVE",
"689 1458 CURVE SMOOTH",
"350 1458 OFFCURVE",
"216 1312 OFFCURVE",
"201 985 CURVE",
"25 985 LINE",
"25 715 LINE",
"200 715 LINE",
"200 0 LINE"
);
}
);
width = 1684;
}
);
leftKerningGroup = f;
rightKerningGroup = l;
unicode = FB02;
},
{
glyphname = ordfeminine;
layers = (
{
layerId = "1D628CB9-BBF5-410A-9D74-9E6094BFE839";
paths = (
{
closed = 1;
nodes = (
"426 641 OFFCURVE",
"503 683 OFFCURVE",
"523 709 CURVE",
"500 741 LINE",
"524 647 LINE",
"599 647 LINE",
"599 1065 LINE SMOOTH",
"599 1252 OFFCURVE",
"505 1313 OFFCURVE",
"380 1313 CURVE SMOOTH",
"315 1313 OFFCURVE",
"239 1298 OFFCURVE",
"170 1274 CURVE",
"187 1195 LINE",
"252 1216 OFFCURVE",
"321 1230 OFFCURVE",
"376 1230 CURVE SMOOTH",
"460 1230 OFFCURVE",
"503 1205 OFFCURVE",
"503 1053 CURVE SMOOTH",
"503 991 LINE",
"565 1003 LINE",
"438 1027 OFFCURVE",
"419 1032 OFFCURVE",
"378 1032 CURVE SMOOTH",
"198 1032 OFFCURVE",
"132 915 OFFCURVE",
"132 826 CURVE SMOOTH",
"132 703 OFFCURVE",
"220 641 OFFCURVE",
"342 641 CURVE SMOOTH"
);
},
{
closed = 1;
nodes = (
"271 721 OFFCURVE",
"228 761 OFFCURVE",
"228 832 CURVE SMOOTH",
"228 920 OFFCURVE",
"303 957 OFFCURVE",
"397 957 CURVE SMOOTH",
"434 957 OFFCURVE",
"481 952 OFFCURVE",
"540 926 CURVE",
"503 975 LINE",
"503 749 LINE",
"523 778 LINE",
"485 748 OFFCURVE",
"426 721 OFFCURVE",
"356 721 CURVE SMOOTH"
);
}
);
width = 738;
},
{
guideLines = (
{
position = "{653, 652}";
}
);
layerId = "D42B5605-DB46-4B3B-8EA0-4CE7066523CE";
paths = (
{
closed = 1;
nodes = (
"334 652 OFFCURVE",
"395 689 OFFCURVE",
"453 735 CURVE",
"401 747 LINE",
"431 664 LINE",
"615 664 LINE",
"615 1057 LINE SMOOTH",
"615 1259 OFFCURVE",
"479 1331 OFFCURVE",
"350 1331 CURVE SMOOTH",
"287 1331 OFFCURVE",
"202 1329 OFFCURVE",
"70 1291 CURVE",
"113 1126 LINE",
"204 1149 OFFCURVE",
"266 1153 OFFCURVE",
"307 1153 CURVE SMOOTH",
"386 1153 OFFCURVE",
"404 1123 OFFCURVE",
"404 1060 CURVE SMOOTH",
"404 977 LINE",
"438 1042 LINE",
"393 1059 OFFCURVE",
"360 1069 OFFCURVE",
"290 1069 CURVE SMOOTH",
"105 1069 OFFCURVE",
"27 954 OFFCURVE",
"27 857 CURVE SMOOTH",
"27 722 OFFCURVE",
"124 652 OFFCURVE",
"261 652 CURVE SMOOTH"
);
},
{
closed = 1;
nodes = (
"266 806 OFFCURVE",
"241 820 OFFCURVE",
"241 860 CURVE SMOOTH",
"241 888 OFFCURVE",
"262 916 OFFCURVE",
"317 916 CURVE SMOOTH",
"365 916 OFFCURVE",
"387 914 OFFCURVE",
"440 891 CURVE",
"404 973 LINE",
"404 768 LINE",
"435 858 LINE",
"403 829 OFFCURVE",
"358 806 OFFCURVE",
"303 806 CURVE SMOOTH"
);
}
);
width = 698;
}
);
unicode = 00AA;
},
{
glyphname = ordmasculine;
layers = (
{
layerId = "1D628CB9-BBF5-410A-9D74-9E6094BFE839";
paths = (
{
closed = 1;
nodes = (
"560 639 OFFCURVE",
"630 766 OFFCURVE",
"630 977 CURVE SMOOTH",
"630 1197 OFFCURVE",
"557 1309 OFFCURVE",
"377 1309 CURVE SMOOTH",
"197 1309 OFFCURVE",
"127 1184 OFFCURVE",
"127 975 CURVE SMOOTH",
"127 738 OFFCURVE",
"220 639 OFFCURVE",
"377 639 CURVE SMOOTH"
);
},
{
closed = 1;
nodes = (
"248 728 OFFCURVE",
"219 817 OFFCURVE",
"219 976 CURVE SMOOTH",
"219 1150 OFFCURVE",
"250 1224 OFFCURVE",
"377 1224 CURVE SMOOTH",
"505 1224 OFFCURVE",
"538 1145 OFFCURVE",
"538 976 CURVE SMOOTH",
"538 803 OFFCURVE",
"508 728 OFFCURVE",
"377 728 CURVE SMOOTH"
);
}
);
width = 762;
},
{
guideLines = (
{
position = "{653, 652}";
}
);
layerId = "D42B5605-DB46-4B3B-8EA0-4CE7066523CE";
paths = (
{
closed = 1;
nodes = (
"578 652 OFFCURVE",
"687 752 OFFCURVE",
"687 992 CURVE SMOOTH",
"687 1232 OFFCURVE",
"578 1331 OFFCURVE",
"372 1331 CURVE SMOOTH",
"165 1331 OFFCURVE",
"56 1232 OFFCURVE",
"56 992 CURVE SMOOTH",
"56 752 OFFCURVE",
"165 652 OFFCURVE",
"372 652 CURVE SMOOTH"
);
},
{
closed = 1;
nodes = (
"317 851 OFFCURVE",
"285 872 OFFCURVE",
"285 992 CURVE SMOOTH",
"285 1111 OFFCURVE",
"320 1132 OFFCURVE",
"372 1132 CURVE SMOOTH",
"423 1132 OFFCURVE",
"458 1111 OFFCURVE",
"458 992 CURVE SMOOTH",
"458 872 OFFCURVE",
"426 851 OFFCURVE",
"372 851 CURVE SMOOTH"
);
}
);
width = 743;
}
);
unicode = 00BA;
},
{
glyphname = Delta;
layers = (
{
guideLines = (
{
angle = 103.8448;
position = "{756, 670}";
},
{
angle = 103.8448;
position = "{596, 670}";
},
{
angle = 76.1552;
position = "{250, 670}";
},
{
angle = 76.1552;
position = "{410, 670}";
}
);
layerId = "1D628CB9-BBF5-410A-9D74-9E6094BFE839";
paths = (
{
closed = 1;
nodes = (
"941 0 LINE",
"601 1339 LINE",
"405 1339 LINE",
"64 0 LINE"
);
},
{
closed = 1;
nodes = (
"490 1243 LINE",
"514 1243 LINE",
"787 122 LINE",
"219 122 LINE"
);
}
);
width = 1005;
},
{
guideLines = (
{
angle = 103.8448;
position = "{759, 670}";
},
{
angle = 103.8448;
position = "{599, 670}";
},
{
angle = 76.1552;
position = "{253, 670}";
},
{
angle = 76.1552;
position = "{413, 670}";
}
);
layerId = "D42B5605-DB46-4B3B-8EA0-4CE7066523CE";
paths = (
{
closed = 1;
nodes = (
"1004 0 LINE",
"614 1349 LINE",
"398 1349 LINE",
"7 0 LINE"
);
},
{
closed = 1;
nodes = (
"493 785 LINE",
"517 785 LINE",
"662 242 LINE",
"350 242 LINE"
);
}
);
width = 1011;
}
);
unicode = 0394;
},
{
glyphname = Omega;
layers = (
{
guideLines = (
{
position = "{470, 102}";
},
{
position = "{470, 93}";
}
);
layerId = "1D628CB9-BBF5-410A-9D74-9E6094BFE839";
paths = (
{
closed = 1;
nodes = (
"890 0 LINE",
"890 93 LINE",
"717 93 LINE",
"717 102 LINE",
"864 214 OFFCURVE",
"914 461 OFFCURVE",
"914 675 CURVE SMOOTH",
"914 1081 OFFCURVE",
"847 1363 OFFCURVE",
"517 1363 CURVE SMOOTH",
"187 1363 OFFCURVE",
"120 1081 OFFCURVE",
"120 675 CURVE SMOOTH",
"120 461 OFFCURVE",
"174 210 OFFCURVE",
"317 102 CURVE",
"317 93 LINE",
"156 93 LINE",
"156 1 LINE",
"464 1 LINE",
"464 103 LINE",
"301 166 OFFCURVE",
"248 428 OFFCURVE",
"248 675 CURVE SMOOTH",
"248 1050 OFFCURVE",
"297 1257 OFFCURVE",
"517 1257 CURVE SMOOTH",
"737 1257 OFFCURVE",
"785 1050 OFFCURVE",
"786 675 CURVE SMOOTH",
"787 428 OFFCURVE",
"721 158 OFFCURVE",
"571 102 CURVE",
"571 0 LINE"
);
}
);
width = 1034;
},
{
layerId = "D42B5605-DB46-4B3B-8EA0-4CE7066523CE";
paths = (
{
closed = 1;
nodes = (
"1171 0 LINE",
"1171 285 LINE",
"1028 285 LINE",
"1028 296 LINE",
"1079 343 OFFCURVE",
"1165 492 OFFCURVE",
"1165 705 CURVE SMOOTH",
"1165 1181 OFFCURVE",
"1018 1391 OFFCURVE",
"648 1391 CURVE SMOOTH",
"278 1391 OFFCURVE",
"130 1181 OFFCURVE",
"130 705 CURVE SMOOTH",
"130 492 OFFCURVE",
"219 338 OFFCURVE",
"268 296 CURVE",
"268 285 LINE",
"137 285 LINE",
"137 1 LINE",
"585 1 LINE",
"585 295 LINE",
"450 358 OFFCURVE",
"458 568 OFFCURVE",
"458 665 CURVE SMOOTH",
"458 1050 OFFCURVE",
"528 1106 OFFCURVE",
"648 1106 CURVE SMOOTH",
"768 1106 OFFCURVE",
"836 1050 OFFCURVE",
"837 665 CURVE SMOOTH",
"837 568 OFFCURVE",
"830 358 OFFCURVE",
"712 294 CURVE",
"712 0 LINE"
);
}
);
width = 1295;
}
);
unicode = 03A9;
},
{
color = 4;
glyphname = mu;
layers = (
{
layerId = "1D628CB9-BBF5-410A-9D74-9E6094BFE839";
paths = (
{
closed = 1;
nodes = (
"282 -262 OFFCURVE",
"293 -183 OFFCURVE",
"293 -68 CURVE",
"293 95 LINE",
"329 8 OFFCURVE",
"427 -10 OFFCURVE",
"502 -10 CURVE SMOOTH",
"601 -10 OFFCURVE",
"680 34 OFFCURVE",
"764 90 CURVE",
"764 0 LINE",
"889 0 LINE",
"889 985 LINE",
"761 985 LINE",
"761 180 LINE",
"705 144 OFFCURVE",
"616 95 OFFCURVE",
"515 95 CURVE SMOOTH",
"382 95 OFFCURVE",
"302 177 OFFCURVE",
"302 344 CURVE SMOOTH",
"302 985 LINE",
"174 985 LINE",
"174 -66 LINE SMOOTH",
"174 -162 OFFCURVE",
"165 -243 OFFCURVE",
"146 -309 CURVE",
"262 -328 LINE"
);
}
);
width = 1034;
},
{
guideLines = (
{
position = "{738, 314}";
}
);
layerId = "D42B5605-DB46-4B3B-8EA0-4CE7066523CE";
paths = (
{
closed = 1;
nodes = (
"415 -298 OFFCURVE",
"430 -183 OFFCURVE",
"430 -68 CURVE SMOOTH",
"430 85 LINE",
"462 28 OFFCURVE",
"524 -10 OFFCURVE",
"609 -10 CURVE SMOOTH",
"688 -10 OFFCURVE",
"749 16 OFFCURVE",
"821 85 CURVE",
"821 0 LINE",
"1146 0 LINE",
"1146 985 LINE",
"818 985 LINE",
"818 314 LINE",
"762 289 OFFCURVE",
"703 275 OFFCURVE",
"632 275 CURVE SMOOTH",
"509 275 OFFCURVE",
"439 337 OFFCURVE",
"439 464 CURVE SMOOTH",
"439 985 LINE",
"111 985 LINE",
"111 -66 LINE SMOOTH",
"111 -162 OFFCURVE",
"105 -239 OFFCURVE",
"83 -309 CURVE",
"392 -368 LINE"
);
}
);
width = 1229;
}
);
unicode = 03BC;
},
{
glyphname = pi;
layers = (
{
layerId = "1D628CB9-BBF5-410A-9D74-9E6094BFE839";
paths = (
{
closed = 1;
nodes = (
"386 0 LINE",
"417 297 OFFCURVE",
"434 566 OFFCURVE",
"439 875 CURVE",
"797 875 LINE",
"797 270 LINE SMOOTH",
"797 178 OFFCURVE",
"801 88 OFFCURVE",
"808 0 CURVE",
"921 0 LINE",
"914 83 OFFCURVE",
"910 177 OFFCURVE",
"910 280 CURVE SMOOTH",
"910 876 LINE",
"1088 876 LINE",
"1088 985 LINE",
"386 985 LINE SMOOTH",
"278 985 OFFCURVE",
"189 979 OFFCURVE",
"118 966 CURVE",
"117 965 LINE",
"126 863 LINE",
"183 871 OFFCURVE",
"250 875 OFFCURVE",
"327 875 CURVE",
"320 539 OFFCURVE",
"302 270 OFFCURVE",
"273 0 CURVE"
);
}
);
width = 1213;
},
{
layerId = "D42B5605-DB46-4B3B-8EA0-4CE7066523CE";
paths = (
{
closed = 1;
nodes = (
"539 0 LINE",
"570 297 OFFCURVE",
"587 566 OFFCURVE",
"592 675 CURVE",
"810 675 LINE",
"810 270 LINE SMOOTH",
"810 178 OFFCURVE",
"814 88 OFFCURVE",
"821 0 CURVE",
"1134 0 LINE",
"1127 83 OFFCURVE",
"1123 177 OFFCURVE",
"1123 280 CURVE SMOOTH",
"1123 676 LINE",
"1311 676 LINE",
"1311 985 LINE",
"439 985 LINE SMOOTH",
"231 985 OFFCURVE",
"132 979 OFFCURVE",
"61 966 CURVE",
"60 965 LINE",
"69 663 LINE",
"126 671 OFFCURVE",
"203 675 OFFCURVE",
"280 675 CURVE",
"273 539 OFFCURVE",
"255 270 OFFCURVE",
"226 0 CURVE"
);
}
);
width = 1371;
}
);
unicode = 03C0;
},
{
glyphname = zero;
layers = (
{
layerId = "1D628CB9-BBF5-410A-9D74-9E6094BFE839";
paths = (
{
closed = 1;
nodes = (
"849 -10 OFFCURVE",
"916 241 OFFCURVE",
"916 657 CURVE SMOOTH",
"916 1074 OFFCURVE",
"837 1308 OFFCURVE",
"518 1308 CURVE SMOOTH",
"199 1308 OFFCURVE",
"120 1074 OFFCURVE",
"120 657 CURVE SMOOTH",
"120 241 OFFCURVE",
"187 -10 OFFCURVE",
"518 -10 CURVE SMOOTH"
);
},
{
closed = 1;
nodes = (
"298 96 OFFCURVE",
"248 273 OFFCURVE",
"248 654 CURVE SMOOTH",
"248 1039 OFFCURVE",
"301 1202 OFFCURVE",
"518 1202 CURVE SMOOTH",
"735 1202 OFFCURVE",
"788 1039 OFFCURVE",
"788 654 CURVE SMOOTH",
"788 273 OFFCURVE",
"738 96 OFFCURVE",
"518 96 CURVE SMOOTH"
);
}
);
width = 1036;
},
{
layerId = "D42B5605-DB46-4B3B-8EA0-4CE7066523CE";
paths = (
{
closed = 1;
nodes = (
"941 -40 OFFCURVE",
"1063 209 OFFCURVE",
"1063 646 CURVE SMOOTH",
"1063 1083 OFFCURVE",
"943 1331 OFFCURVE",
"565 1331 CURVE SMOOTH",
"193 1331 OFFCURVE",
"65 1110 OFFCURVE",
"65 646 CURVE SMOOTH",
"65 213 OFFCURVE",
"184 -40 OFFCURVE",
"565 -40 CURVE SMOOTH"
);
},
{
closed = 1;
nodes = (
"432 266 OFFCURVE",
"393 374 OFFCURVE",
"393 646 CURVE SMOOTH",
"393 918 OFFCURVE",
"432 1025 OFFCURVE",
"565 1025 CURVE SMOOTH",
"708 1025 OFFCURVE",
"735 918 OFFCURVE",
"735 646 CURVE SMOOTH",
"735 374 OFFCURVE",
"708 266 OFFCURVE",
"565 266 CURVE SMOOTH"
);
}
);
width = 1128;
}
);
leftKerningGroup = RoundUPPER;
rightKerningGroup = RoundUPPER;
unicode = 0030;
},
{
glyphname = one;
layers = (
{
guideLines = (
{
angle = 24.6948;
position = "{434, 1309}";
},
{
angle = 112.494;
position = "{102, 1209}";
},
{
angle = 270;
position = "{141, 743}";
}
);
layerId = "1D628CB9-BBF5-410A-9D74-9E6094BFE839";
paths = (
{
closed = 1;
nodes = (
"685 0 LINE",
"685 101 LINE",
"470 101 LINE",
"470 1284 LINE",
"357 1284 LINE",
"97 1165 LINE",
"135 1074 LINE",
"342 1167 LINE",
"342 101 LINE",
"118 101 LINE",
"118 0 LINE"
);
}
);
width = 765;
},
{
layerId = "D42B5605-DB46-4B3B-8EA0-4CE7066523CE";
paths = (
{
closed = 1;
nodes = (
"988 0 LINE",
"988 285 LINE",
"725 285 LINE",
"725 1308 LINE",
"412 1308 LINE",
"43 1131 LINE",
"159 868 LINE",
"397 981 LINE",
"397 285 LINE",
"105 285 LINE",
"105 0 LINE"
);
}
);
width = 1028;
}
);
leftKerningGroup = "1";
rightKerningGroup = "1";
unicode = 0031;
},
{
glyphname = two;
layers = (
{
layerId = "1D628CB9-BBF5-410A-9D74-9E6094BFE839";
paths = (
{
closed = 1;
nodes = (
"816 0 LINE",
"806 110 LINE",
"224 110 LINE",
"246 266 OFFCURVE",
"352 369 OFFCURVE",
"463 468 CURVE SMOOTH",
"647 632 OFFCURVE",
"795 728 OFFCURVE",
"795 956 CURVE SMOOTH",
"795 1144 OFFCURVE",
"694 1301 OFFCURVE",
"439 1301 CURVE SMOOTH",
"290 1301 OFFCURVE",
"192 1271 OFFCURVE",
"94 1226 CURVE",
"134 1115 LINE",
"157 1127 OFFCURVE",
"291 1185 OFFCURVE",
"426 1185 CURVE SMOOTH",
"598 1185 OFFCURVE",
"668 1100 OFFCURVE",
"668 952 CURVE SMOOTH",
"668 787 OFFCURVE",
"571 718 OFFCURVE",
"431 604 CURVE SMOOTH",
"257 462 OFFCURVE",
"82 289 OFFCURVE",
"80 0 CURVE"
);
}
);
width = 906;
},
{
layerId = "D42B5605-DB46-4B3B-8EA0-4CE7066523CE";
paths = (
{
closed = 1;
nodes = (
"986 0 LINE",
"946 285 LINE",
"454 285 LINE",
"462 337 OFFCURVE",
"553 426 OFFCURVE",
"638 490 CURVE SMOOTH",
"716 549 OFFCURVE",
"968 683 OFFCURVE",
"968 931 CURVE SMOOTH",
"968 1179 OFFCURVE",
"817 1331 OFFCURVE",
"497 1331 CURVE SMOOTH",
"310 1331 OFFCURVE",
"160 1256 OFFCURVE",
"62 1201 CURVE",
"172 950 LINE",
"195 962 OFFCURVE",
"329 1046 OFFCURVE",
"454 1046 CURVE SMOOTH",
"565 1046 OFFCURVE",
"640 1003 OFFCURVE",
"640 911 CURVE SMOOTH",
"640 794 OFFCURVE",
"459 716 OFFCURVE",
"315 603 CURVE SMOOTH",
"174 492 OFFCURVE",
"50 322 OFFCURVE",
"50 0 CURVE"
);
}
);
width = 1041;
}
);
leftKerningGroup = "2";
rightKerningGroup = "2";
unicode = 0032;
},
{
glyphname = three;
layers = (
{
guideLines = (
{
position = "{164, 732}";
},
{
position = "{649, 1301}";
},
{
position = "{285, -10}";
},
{
position = "{2142, 349}";
}
);
layerId = "1D628CB9-BBF5-410A-9D74-9E6094BFE839";
paths = (
{
closed = 1;
nodes = (
"592 -10 OFFCURVE",
"799 96 OFFCURVE",
"799 349 CURVE SMOOTH",
"799 550 OFFCURVE",
"681 665 OFFCURVE",
"517 685 CURVE",
"674 725 OFFCURVE",
"747 841 OFFCURVE",
"747 985 CURVE SMOOTH",
"747 1188 OFFCURVE",
"600 1301 OFFCURVE",
"376 1301 CURVE SMOOTH",
"279 1301 OFFCURVE",
"173 1282 OFFCURVE",
"60 1245 CURVE",
"87 1144 LINE",
"186 1178 OFFCURVE",
"284 1195 OFFCURVE",
"381 1195 CURVE SMOOTH",
"538 1195 OFFCURVE",
"619 1120 OFFCURVE",
"619 980 CURVE SMOOTH",
"619 845 OFFCURVE",
"540 732 OFFCURVE",
"369 732 CURVE SMOOTH",
"211 732 LINE",
"213 626 LINE",
"388 627 LINE SMOOTH",
"550 627 OFFCURVE",
"671 532 OFFCURVE",
"671 349 CURVE SMOOTH",
"671 180 OFFCURVE",
"540 96 OFFCURVE",
"374 96 CURVE SMOOTH",
"290 96 OFFCURVE",
"177 111 OFFCURVE",
"87 145 CURVE",
"60 40 LINE",
"159 3 OFFCURVE",
"262 -10 OFFCURVE",
"369 -10 CURVE SMOOTH"
);
}
);
width = 909;
},
{
layerId = "D42B5605-DB46-4B3B-8EA0-4CE7066523CE";
paths = (
{
closed = 1;
nodes = (
"754 -30 OFFCURVE",
"929 101 OFFCURVE",
"929 344 CURVE SMOOTH",
"929 507 OFFCURVE",
"811 645 OFFCURVE",
"647 665 CURVE",
"811 712 OFFCURVE",
"877 817 OFFCURVE",
"877 965 CURVE SMOOTH",
"877 1198 OFFCURVE",
"697 1331 OFFCURVE",
"442 1331 CURVE SMOOTH",
"335 1331 OFFCURVE",
"170 1313 OFFCURVE",
"20 1260 CURVE",
"86 992 LINE",
"222 1033 OFFCURVE",
"350 1038 OFFCURVE",
"391 1038 CURVE SMOOTH",
"474 1038 OFFCURVE",
"549 1007 OFFCURVE",
"549 920 CURVE SMOOTH",
"549 829 OFFCURVE",
"469 797 OFFCURVE",
"344 797 CURVE SMOOTH",
"191 797 LINE",
"193 531 LINE",
"348 532 LINE SMOOTH",
"514 533 OFFCURVE",
"601 468 OFFCURVE",
"601 395 CURVE SMOOTH",
"601 296 OFFCURVE",
"535 245 OFFCURVE",
"394 245 CURVE SMOOTH",
"290 245 OFFCURVE",
"167 277 OFFCURVE",
"80 302 CURVE",
"20 40 LINE",
"149 -7 OFFCURVE",
"282 -30 OFFCURVE",
"429 -30 CURVE SMOOTH"
);
}
);
width = 989;
}
);
leftKerningGroup = "3";
rightKerningGroup = B;
unicode = 0033;
},
{
glyphname = four;
layers = (
{
layerId = "1D628CB9-BBF5-410A-9D74-9E6094BFE839";
paths = (
{
closed = 1;
nodes = (
"750 0 LINE",
"750 260 LINE",
"910 260 LINE",
"910 360 LINE",
"750 360 LINE",
"750 747 LINE",
"622 747 LINE",
"622 360 LINE",
"208 360 LINE",
"446 637 OFFCURVE",
"550 976 OFFCURVE",
"550 1284 CURVE",
"425 1284 LINE",
"425 975 OFFCURVE",
"300 634 OFFCURVE",
"78 356 CURVE",
"78 260 LINE",
"622 260 LINE",
"622 0 LINE"
);
}
);
width = 967;
},
{
layerId = "D42B5605-DB46-4B3B-8EA0-4CE7066523CE";
paths = (
{
closed = 1;
nodes = (
"941 -25 LINE",
"941 185 LINE",
"1112 185 LINE",
"1112 470 LINE",
"941 470 LINE",
"941 757 LINE",
"643 757 LINE",
"643 470 LINE",
"361 470 LINE",
"576 695 OFFCURVE",
"704 1023 OFFCURVE",
"714 1308 CURVE",
"377 1308 LINE",
"377 1022 OFFCURVE",
"249 692 OFFCURVE",
"50 466 CURVE",
"50 185 LINE",
"643 185 LINE",
"643 -25 LINE"
);
}
);
width = 1157;
}
);
leftKerningGroup = "4";
rightKerningGroup = "4";
unicode = 0034;
},
{
glyphname = five;
layers = (
{
guideLines = (
{
angle = 76.5576;
position = "{161, 312}";
},
{
angle = 90;
position = "{123, 961}";
}
);
layerId = "1D628CB9-BBF5-410A-9D74-9E6094BFE839";
paths = (
{
closed = 1;
nodes = (
"636 -10 OFFCURVE",
"808 105 OFFCURVE",
"808 375 CURVE SMOOTH",
"808 644 OFFCURVE",
"657 789 OFFCURVE",
"448 789 CURVE SMOOTH",
"369 789 OFFCURVE",
"327 773 OFFCURVE",
"221 728 CURVE",
"236 1178 LINE",
"740 1178 LINE",
"740 1284 LINE",
"123 1284 LINE",
"123 637 LINE",
"194 608 LINE",
"313 667 OFFCURVE",
"362 683 OFFCURVE",
"447 683 CURVE SMOOTH",
"575 683 OFFCURVE",
"680 594 OFFCURVE",
"680 377 CURVE SMOOTH",
"680 182 OFFCURVE",
"578 96 OFFCURVE",
"394 96 CURVE SMOOTH",
"304 96 OFFCURVE",
"173 129 OFFCURVE",
"101 159 CURVE",
"75 54 LINE",
"144 24 OFFCURVE",
"291 -10 OFFCURVE",
"387 -10 CURVE SMOOTH"
);
}
);
width = 888;
},
{
guideLines = (
{
angle = 76.5576;
position = "{174, 287}";
},
{
angle = 90;
position = "{132, 951}";
}
);
layerId = "D42B5605-DB46-4B3B-8EA0-4CE7066523CE";
paths = (
{
closed = 1;
nodes = (
"868 -40 OFFCURVE",
"1017 141 OFFCURVE",
"1017 401 CURVE SMOOTH",
"1017 649 OFFCURVE",
"858 819 OFFCURVE",
"627 819 CURVE SMOOTH",
"545 819 OFFCURVE",
"494 806 OFFCURVE",
"428 785 CURVE",
"445 1023 LINE",
"942 1023 LINE",
"942 1308 LINE",
"132 1308 LINE",
"132 587 LINE",
"363 492 LINE",
"445 525 OFFCURVE",
"476 534 OFFCURVE",
"546 534 CURVE SMOOTH",
"634 534 OFFCURVE",
"689 476 OFFCURVE",
"689 401 CURVE SMOOTH",
"689 274 OFFCURVE",
"605 245 OFFCURVE",
"490 245 CURVE SMOOTH",
"400 245 OFFCURVE",
"314 261 OFFCURVE",
"131 336 CURVE",
"49 68 LINE",
"213 -6 OFFCURVE",
"355 -40 OFFCURVE",
"524 -40 CURVE SMOOTH"
);
}
);
width = 1064;
}
);
leftKerningGroup = "5";
rightKerningGroup = "5";
unicode = 0035;
},
